<?xml version="1.0" encoding="utf-8" standalone="no"?>
<!DOCTYPE svg PUBLIC "-//W3C//DTD SVG 1.1//EN"
  "http://www.w3.org/Graphics/SVG/1.1/DTD/svg11.dtd">
<svg xmlns:xlink="http://www.w3.org/1999/xlink" width="460.8pt" height="345.6pt" viewBox="0 0 460.8 345.6" xmlns="http://www.w3.org/2000/svg" version="1.1">
 <metadata>
  <rdf:RDF xmlns:dc="http://purl.org/dc/elements/1.1/" xmlns:cc="http://creativecommons.org/ns#" xmlns:rdf="http://www.w3.org/1999/02/22-rdf-syntax-ns#">
   <cc:Work>
    <dc:type rdf:resource="http://purl.org/dc/dcmitype/StillImage"/>
    <dc:date>2022-06-22T16:11:50.537239</dc:date>
    <dc:format>image/svg+xml</dc:format>
    <dc:creator>
     <cc:Agent>
      <dc:title>Matplotlib v3.5.2, https://matplotlib.org/</dc:title>
     </cc:Agent>
    </dc:creator>
   </cc:Work>
  </rdf:RDF>
 </metadata>
 <defs>
  <style type="text/css">*{stroke-linejoin: round; stroke-linecap: butt}</style>
 </defs>
 <g id="figure_1">
  <g id="patch_1">
   <path d="M 0 345.6 
L 460.8 345.6 
L 460.8 0 
L 0 0 
z
" style="fill: #ffffff"/>
  </g>
  <g id="axes_1">
   <g id="patch_2">
    <path d="M 57.6 307.584 
L 414.72 307.584 
L 414.72 41.472 
L 57.6 41.472 
z
" style="fill: #ffffff"/>
   </g>
   <g id="matplotlib.axis_1">
    <g id="xtick_1">
     <g id="line2d_1">
      <path d="M 73.832727 307.584 
L 73.832727 41.472 
" clip-path="url(#p6d2a6d4c4f)" style="fill: none; stroke: #b0b0b0; stroke-width: 0.8; stroke-linecap: square"/>
     </g>
     <g id="line2d_2">
      <defs>
       <path id="m91c0b5a075" d="M 0 0 
L 0 3.5 
" style="stroke: #000000; stroke-width: 0.8"/>
      </defs>
      <g>
       <use xlink:href="#m91c0b5a075" x="73.832727" y="307.584" style="stroke: #000000; stroke-width: 0.8"/>
      </g>
     </g>
     <g id="text_1">
      <!-- 0 -->
      <g transform="translate(70.651477 322.182437)scale(0.1 -0.1)">
       <defs>
        <path id="DejaVuSans-30" d="M 2034 4250 
Q 1547 4250 1301 3770 
Q 1056 3291 1056 2328 
Q 1056 1369 1301 889 
Q 1547 409 2034 409 
Q 2525 409 2770 889 
Q 3016 1369 3016 2328 
Q 3016 3291 2770 3770 
Q 2525 4250 2034 4250 
z
M 2034 4750 
Q 2819 4750 3233 4129 
Q 3647 3509 3647 2328 
Q 3647 1150 3233 529 
Q 2819 -91 2034 -91 
Q 1250 -91 836 529 
Q 422 1150 422 2328 
Q 422 3509 836 4129 
Q 1250 4750 2034 4750 
z
" transform="scale(0.015625)"/>
       </defs>
       <use xlink:href="#DejaVuSans-30"/>
      </g>
     </g>
    </g>
    <g id="xtick_2">
     <g id="line2d_3">
      <path d="M 151.874685 307.584 
L 151.874685 41.472 
" clip-path="url(#p6d2a6d4c4f)" style="fill: none; stroke: #b0b0b0; stroke-width: 0.8; stroke-linecap: square"/>
     </g>
     <g id="line2d_4">
      <g>
       <use xlink:href="#m91c0b5a075" x="151.874685" y="307.584" style="stroke: #000000; stroke-width: 0.8"/>
      </g>
     </g>
     <g id="text_2">
      <!-- 50 -->
      <g transform="translate(145.512185 322.182437)scale(0.1 -0.1)">
       <defs>
        <path id="DejaVuSans-35" d="M 691 4666 
L 3169 4666 
L 3169 4134 
L 1269 4134 
L 1269 2991 
Q 1406 3038 1543 3061 
Q 1681 3084 1819 3084 
Q 2600 3084 3056 2656 
Q 3513 2228 3513 1497 
Q 3513 744 3044 326 
Q 2575 -91 1722 -91 
Q 1428 -91 1123 -41 
Q 819 9 494 109 
L 494 744 
Q 775 591 1075 516 
Q 1375 441 1709 441 
Q 2250 441 2565 725 
Q 2881 1009 2881 1497 
Q 2881 1984 2565 2268 
Q 2250 2553 1709 2553 
Q 1456 2553 1204 2497 
Q 953 2441 691 2322 
L 691 4666 
z
" transform="scale(0.015625)"/>
       </defs>
       <use xlink:href="#DejaVuSans-35"/>
       <use xlink:href="#DejaVuSans-30" x="63.623047"/>
      </g>
     </g>
    </g>
    <g id="xtick_3">
     <g id="line2d_5">
      <path d="M 229.916643 307.584 
L 229.916643 41.472 
" clip-path="url(#p6d2a6d4c4f)" style="fill: none; stroke: #b0b0b0; stroke-width: 0.8; stroke-linecap: square"/>
     </g>
     <g id="line2d_6">
      <g>
       <use xlink:href="#m91c0b5a075" x="229.916643" y="307.584" style="stroke: #000000; stroke-width: 0.8"/>
      </g>
     </g>
     <g id="text_3">
      <!-- 100 -->
      <g transform="translate(220.372893 322.182437)scale(0.1 -0.1)">
       <defs>
        <path id="DejaVuSans-31" d="M 794 531 
L 1825 531 
L 1825 4091 
L 703 3866 
L 703 4441 
L 1819 4666 
L 2450 4666 
L 2450 531 
L 3481 531 
L 3481 0 
L 794 0 
L 794 531 
z
" transform="scale(0.015625)"/>
       </defs>
       <use xlink:href="#DejaVuSans-31"/>
       <use xlink:href="#DejaVuSans-30" x="63.623047"/>
       <use xlink:href="#DejaVuSans-30" x="127.246094"/>
      </g>
     </g>
    </g>
    <g id="xtick_4">
     <g id="line2d_7">
      <path d="M 307.958601 307.584 
L 307.958601 41.472 
" clip-path="url(#p6d2a6d4c4f)" style="fill: none; stroke: #b0b0b0; stroke-width: 0.8; stroke-linecap: square"/>
     </g>
     <g id="line2d_8">
      <g>
       <use xlink:href="#m91c0b5a075" x="307.958601" y="307.584" style="stroke: #000000; stroke-width: 0.8"/>
      </g>
     </g>
     <g id="text_4">
      <!-- 150 -->
      <g transform="translate(298.414851 322.182437)scale(0.1 -0.1)">
       <use xlink:href="#DejaVuSans-31"/>
       <use xlink:href="#DejaVuSans-35" x="63.623047"/>
       <use xlink:href="#DejaVuSans-30" x="127.246094"/>
      </g>
     </g>
    </g>
    <g id="xtick_5">
     <g id="line2d_9">
      <path d="M 386.000559 307.584 
L 386.000559 41.472 
" clip-path="url(#p6d2a6d4c4f)" style="fill: none; stroke: #b0b0b0; stroke-width: 0.8; stroke-linecap: square"/>
     </g>
     <g id="line2d_10">
      <g>
       <use xlink:href="#m91c0b5a075" x="386.000559" y="307.584" style="stroke: #000000; stroke-width: 0.8"/>
      </g>
     </g>
     <g id="text_5">
      <!-- 200 -->
      <g transform="translate(376.456809 322.182437)scale(0.1 -0.1)">
       <defs>
        <path id="DejaVuSans-32" d="M 1228 531 
L 3431 531 
L 3431 0 
L 469 0 
L 469 531 
Q 828 903 1448 1529 
Q 2069 2156 2228 2338 
Q 2531 2678 2651 2914 
Q 2772 3150 2772 3378 
Q 2772 3750 2511 3984 
Q 2250 4219 1831 4219 
Q 1534 4219 1204 4116 
Q 875 4013 500 3803 
L 500 4441 
Q 881 4594 1212 4672 
Q 1544 4750 1819 4750 
Q 2544 4750 2975 4387 
Q 3406 4025 3406 3419 
Q 3406 3131 3298 2873 
Q 3191 2616 2906 2266 
Q 2828 2175 2409 1742 
Q 1991 1309 1228 531 
z
" transform="scale(0.015625)"/>
       </defs>
       <use xlink:href="#DejaVuSans-32"/>
       <use xlink:href="#DejaVuSans-30" x="63.623047"/>
       <use xlink:href="#DejaVuSans-30" x="127.246094"/>
      </g>
     </g>
    </g>
    <g id="xtick_6">
     <g id="line2d_11">
      <path d="M 58.224336 307.584 
L 58.224336 41.472 
" clip-path="url(#p6d2a6d4c4f)" style="fill: none; stroke-dasharray: 0.8,1.32; stroke-dashoffset: 0; stroke: #b0b0b0; stroke-width: 0.8"/>
     </g>
     <g id="line2d_12">
      <defs>
       <path id="m5d8734e66e" d="M 0 0 
L 0 2 
" style="stroke: #000000; stroke-width: 0.6"/>
      </defs>
      <g>
       <use xlink:href="#m5d8734e66e" x="58.224336" y="307.584" style="stroke: #000000; stroke-width: 0.6"/>
      </g>
     </g>
    </g>
    <g id="xtick_7">
     <g id="line2d_13">
      <path d="M 89.441119 307.584 
L 89.441119 41.472 
" clip-path="url(#p6d2a6d4c4f)" style="fill: none; stroke-dasharray: 0.8,1.32; stroke-dashoffset: 0; stroke: #b0b0b0; stroke-width: 0.8"/>
     </g>
     <g id="line2d_14">
      <g>
       <use xlink:href="#m5d8734e66e" x="89.441119" y="307.584" style="stroke: #000000; stroke-width: 0.6"/>
      </g>
     </g>
    </g>
    <g id="xtick_8">
     <g id="line2d_15">
      <path d="M 105.04951 307.584 
L 105.04951 41.472 
" clip-path="url(#p6d2a6d4c4f)" style="fill: none; stroke-dasharray: 0.8,1.32; stroke-dashoffset: 0; stroke: #b0b0b0; stroke-width: 0.8"/>
     </g>
     <g id="line2d_16">
      <g>
       <use xlink:href="#m5d8734e66e" x="105.04951" y="307.584" style="stroke: #000000; stroke-width: 0.6"/>
      </g>
     </g>
    </g>
    <g id="xtick_9">
     <g id="line2d_17">
      <path d="M 120.657902 307.584 
L 120.657902 41.472 
" clip-path="url(#p6d2a6d4c4f)" style="fill: none; stroke-dasharray: 0.8,1.32; stroke-dashoffset: 0; stroke: #b0b0b0; stroke-width: 0.8"/>
     </g>
     <g id="line2d_18">
      <g>
       <use xlink:href="#m5d8734e66e" x="120.657902" y="307.584" style="stroke: #000000; stroke-width: 0.6"/>
      </g>
     </g>
    </g>
    <g id="xtick_10">
     <g id="line2d_19">
      <path d="M 136.266294 307.584 
L 136.266294 41.472 
" clip-path="url(#p6d2a6d4c4f)" style="fill: none; stroke-dasharray: 0.8,1.32; stroke-dashoffset: 0; stroke: #b0b0b0; stroke-width: 0.8"/>
     </g>
     <g id="line2d_20">
      <g>
       <use xlink:href="#m5d8734e66e" x="136.266294" y="307.584" style="stroke: #000000; stroke-width: 0.6"/>
      </g>
     </g>
    </g>
    <g id="xtick_11">
     <g id="line2d_21">
      <path d="M 167.483077 307.584 
L 167.483077 41.472 
" clip-path="url(#p6d2a6d4c4f)" style="fill: none; stroke-dasharray: 0.8,1.32; stroke-dashoffset: 0; stroke: #b0b0b0; stroke-width: 0.8"/>
     </g>
     <g id="line2d_22">
      <g>
       <use xlink:href="#m5d8734e66e" x="167.483077" y="307.584" style="stroke: #000000; stroke-width: 0.6"/>
      </g>
     </g>
    </g>
    <g id="xtick_12">
     <g id="line2d_23">
      <path d="M 183.091469 307.584 
L 183.091469 41.472 
" clip-path="url(#p6d2a6d4c4f)" style="fill: none; stroke-dasharray: 0.8,1.32; stroke-dashoffset: 0; stroke: #b0b0b0; stroke-width: 0.8"/>
     </g>
     <g id="line2d_24">
      <g>
       <use xlink:href="#m5d8734e66e" x="183.091469" y="307.584" style="stroke: #000000; stroke-width: 0.6"/>
      </g>
     </g>
    </g>
    <g id="xtick_13">
     <g id="line2d_25">
      <path d="M 198.69986 307.584 
L 198.69986 41.472 
" clip-path="url(#p6d2a6d4c4f)" style="fill: none; stroke-dasharray: 0.8,1.32; stroke-dashoffset: 0; stroke: #b0b0b0; stroke-width: 0.8"/>
     </g>
     <g id="line2d_26">
      <g>
       <use xlink:href="#m5d8734e66e" x="198.69986" y="307.584" style="stroke: #000000; stroke-width: 0.6"/>
      </g>
     </g>
    </g>
    <g id="xtick_14">
     <g id="line2d_27">
      <path d="M 214.308252 307.584 
L 214.308252 41.472 
" clip-path="url(#p6d2a6d4c4f)" style="fill: none; stroke-dasharray: 0.8,1.32; stroke-dashoffset: 0; stroke: #b0b0b0; stroke-width: 0.8"/>
     </g>
     <g id="line2d_28">
      <g>
       <use xlink:href="#m5d8734e66e" x="214.308252" y="307.584" style="stroke: #000000; stroke-width: 0.6"/>
      </g>
     </g>
    </g>
    <g id="xtick_15">
     <g id="line2d_29">
      <path d="M 245.525035 307.584 
L 245.525035 41.472 
" clip-path="url(#p6d2a6d4c4f)" style="fill: none; stroke-dasharray: 0.8,1.32; stroke-dashoffset: 0; stroke: #b0b0b0; stroke-width: 0.8"/>
     </g>
     <g id="line2d_30">
      <g>
       <use xlink:href="#m5d8734e66e" x="245.525035" y="307.584" style="stroke: #000000; stroke-width: 0.6"/>
      </g>
     </g>
    </g>
    <g id="xtick_16">
     <g id="line2d_31">
      <path d="M 261.133427 307.584 
L 261.133427 41.472 
" clip-path="url(#p6d2a6d4c4f)" style="fill: none; stroke-dasharray: 0.8,1.32; stroke-dashoffset: 0; stroke: #b0b0b0; stroke-width: 0.8"/>
     </g>
     <g id="line2d_32">
      <g>
       <use xlink:href="#m5d8734e66e" x="261.133427" y="307.584" style="stroke: #000000; stroke-width: 0.6"/>
      </g>
     </g>
    </g>
    <g id="xtick_17">
     <g id="line2d_33">
      <path d="M 276.741818 307.584 
L 276.741818 41.472 
" clip-path="url(#p6d2a6d4c4f)" style="fill: none; stroke-dasharray: 0.8,1.32; stroke-dashoffset: 0; stroke: #b0b0b0; stroke-width: 0.8"/>
     </g>
     <g id="line2d_34">
      <g>
       <use xlink:href="#m5d8734e66e" x="276.741818" y="307.584" style="stroke: #000000; stroke-width: 0.6"/>
      </g>
     </g>
    </g>
    <g id="xtick_18">
     <g id="line2d_35">
      <path d="M 292.35021 307.584 
L 292.35021 41.472 
" clip-path="url(#p6d2a6d4c4f)" style="fill: none; stroke-dasharray: 0.8,1.32; stroke-dashoffset: 0; stroke: #b0b0b0; stroke-width: 0.8"/>
     </g>
     <g id="line2d_36">
      <g>
       <use xlink:href="#m5d8734e66e" x="292.35021" y="307.584" style="stroke: #000000; stroke-width: 0.6"/>
      </g>
     </g>
    </g>
    <g id="xtick_19">
     <g id="line2d_37">
      <path d="M 323.566993 307.584 
L 323.566993 41.472 
" clip-path="url(#p6d2a6d4c4f)" style="fill: none; stroke-dasharray: 0.8,1.32; stroke-dashoffset: 0; stroke: #b0b0b0; stroke-width: 0.8"/>
     </g>
     <g id="line2d_38">
      <g>
       <use xlink:href="#m5d8734e66e" x="323.566993" y="307.584" style="stroke: #000000; stroke-width: 0.6"/>
      </g>
     </g>
    </g>
    <g id="xtick_20">
     <g id="line2d_39">
      <path d="M 339.175385 307.584 
L 339.175385 41.472 
" clip-path="url(#p6d2a6d4c4f)" style="fill: none; stroke-dasharray: 0.8,1.32; stroke-dashoffset: 0; stroke: #b0b0b0; stroke-width: 0.8"/>
     </g>
     <g id="line2d_40">
      <g>
       <use xlink:href="#m5d8734e66e" x="339.175385" y="307.584" style="stroke: #000000; stroke-width: 0.6"/>
      </g>
     </g>
    </g>
    <g id="xtick_21">
     <g id="line2d_41">
      <path d="M 354.783776 307.584 
L 354.783776 41.472 
" clip-path="url(#p6d2a6d4c4f)" style="fill: none; stroke-dasharray: 0.8,1.32; stroke-dashoffset: 0; stroke: #b0b0b0; stroke-width: 0.8"/>
     </g>
     <g id="line2d_42">
      <g>
       <use xlink:href="#m5d8734e66e" x="354.783776" y="307.584" style="stroke: #000000; stroke-width: 0.6"/>
      </g>
     </g>
    </g>
    <g id="xtick_22">
     <g id="line2d_43">
      <path d="M 370.392168 307.584 
L 370.392168 41.472 
" clip-path="url(#p6d2a6d4c4f)" style="fill: none; stroke-dasharray: 0.8,1.32; stroke-dashoffset: 0; stroke: #b0b0b0; stroke-width: 0.8"/>
     </g>
     <g id="line2d_44">
      <g>
       <use xlink:href="#m5d8734e66e" x="370.392168" y="307.584" style="stroke: #000000; stroke-width: 0.6"/>
      </g>
     </g>
    </g>
    <g id="xtick_23">
     <g id="line2d_45">
      <path d="M 401.608951 307.584 
L 401.608951 41.472 
" clip-path="url(#p6d2a6d4c4f)" style="fill: none; stroke-dasharray: 0.8,1.32; stroke-dashoffset: 0; stroke: #b0b0b0; stroke-width: 0.8"/>
     </g>
     <g id="line2d_46">
      <g>
       <use xlink:href="#m5d8734e66e" x="401.608951" y="307.584" style="stroke: #000000; stroke-width: 0.6"/>
      </g>
     </g>
    </g>
    <g id="text_6">
     <!-- Time (ms) -->
     <g transform="translate(210.960781 335.860562)scale(0.1 -0.1)">
      <defs>
       <path id="DejaVuSans-54" d="M -19 4666 
L 3928 4666 
L 3928 4134 
L 2272 4134 
L 2272 0 
L 1638 0 
L 1638 4134 
L -19 4134 
L -19 4666 
z
" transform="scale(0.015625)"/>
       <path id="DejaVuSans-69" d="M 603 3500 
L 1178 3500 
L 1178 0 
L 603 0 
L 603 3500 
z
M 603 4863 
L 1178 4863 
L 1178 4134 
L 603 4134 
L 603 4863 
z
" transform="scale(0.015625)"/>
       <path id="DejaVuSans-6d" d="M 3328 2828 
Q 3544 3216 3844 3400 
Q 4144 3584 4550 3584 
Q 5097 3584 5394 3201 
Q 5691 2819 5691 2113 
L 5691 0 
L 5113 0 
L 5113 2094 
Q 5113 2597 4934 2840 
Q 4756 3084 4391 3084 
Q 3944 3084 3684 2787 
Q 3425 2491 3425 1978 
L 3425 0 
L 2847 0 
L 2847 2094 
Q 2847 2600 2669 2842 
Q 2491 3084 2119 3084 
Q 1678 3084 1418 2786 
Q 1159 2488 1159 1978 
L 1159 0 
L 581 0 
L 581 3500 
L 1159 3500 
L 1159 2956 
Q 1356 3278 1631 3431 
Q 1906 3584 2284 3584 
Q 2666 3584 2933 3390 
Q 3200 3197 3328 2828 
z
" transform="scale(0.015625)"/>
       <path id="DejaVuSans-65" d="M 3597 1894 
L 3597 1613 
L 953 1613 
Q 991 1019 1311 708 
Q 1631 397 2203 397 
Q 2534 397 2845 478 
Q 3156 559 3463 722 
L 3463 178 
Q 3153 47 2828 -22 
Q 2503 -91 2169 -91 
Q 1331 -91 842 396 
Q 353 884 353 1716 
Q 353 2575 817 3079 
Q 1281 3584 2069 3584 
Q 2775 3584 3186 3129 
Q 3597 2675 3597 1894 
z
M 3022 2063 
Q 3016 2534 2758 2815 
Q 2500 3097 2075 3097 
Q 1594 3097 1305 2825 
Q 1016 2553 972 2059 
L 3022 2063 
z
" transform="scale(0.015625)"/>
       <path id="DejaVuSans-20" transform="scale(0.015625)"/>
       <path id="DejaVuSans-28" d="M 1984 4856 
Q 1566 4138 1362 3434 
Q 1159 2731 1159 2009 
Q 1159 1288 1364 580 
Q 1569 -128 1984 -844 
L 1484 -844 
Q 1016 -109 783 600 
Q 550 1309 550 2009 
Q 550 2706 781 3412 
Q 1013 4119 1484 4856 
L 1984 4856 
z
" transform="scale(0.015625)"/>
       <path id="DejaVuSans-73" d="M 2834 3397 
L 2834 2853 
Q 2591 2978 2328 3040 
Q 2066 3103 1784 3103 
Q 1356 3103 1142 2972 
Q 928 2841 928 2578 
Q 928 2378 1081 2264 
Q 1234 2150 1697 2047 
L 1894 2003 
Q 2506 1872 2764 1633 
Q 3022 1394 3022 966 
Q 3022 478 2636 193 
Q 2250 -91 1575 -91 
Q 1294 -91 989 -36 
Q 684 19 347 128 
L 347 722 
Q 666 556 975 473 
Q 1284 391 1588 391 
Q 1994 391 2212 530 
Q 2431 669 2431 922 
Q 2431 1156 2273 1281 
Q 2116 1406 1581 1522 
L 1381 1569 
Q 847 1681 609 1914 
Q 372 2147 372 2553 
Q 372 3047 722 3315 
Q 1072 3584 1716 3584 
Q 2034 3584 2315 3537 
Q 2597 3491 2834 3397 
z
" transform="scale(0.015625)"/>
       <path id="DejaVuSans-29" d="M 513 4856 
L 1013 4856 
Q 1481 4119 1714 3412 
Q 1947 2706 1947 2009 
Q 1947 1309 1714 600 
Q 1481 -109 1013 -844 
L 513 -844 
Q 928 -128 1133 580 
Q 1338 1288 1338 2009 
Q 1338 2731 1133 3434 
Q 928 4138 513 4856 
z
" transform="scale(0.015625)"/>
      </defs>
      <use xlink:href="#DejaVuSans-54"/>
      <use xlink:href="#DejaVuSans-69" x="57.958984"/>
      <use xlink:href="#DejaVuSans-6d" x="85.742188"/>
      <use xlink:href="#DejaVuSans-65" x="183.154297"/>
      <use xlink:href="#DejaVuSans-20" x="244.677734"/>
      <use xlink:href="#DejaVuSans-28" x="276.464844"/>
      <use xlink:href="#DejaVuSans-6d" x="315.478516"/>
      <use xlink:href="#DejaVuSans-73" x="412.890625"/>
      <use xlink:href="#DejaVuSans-29" x="464.990234"/>
     </g>
    </g>
   </g>
   <g id="matplotlib.axis_2">
    <g id="ytick_1">
     <g id="line2d_47">
      <path d="M 57.6 276.696353 
L 414.72 276.696353 
" clip-path="url(#p6d2a6d4c4f)" style="fill: none; stroke: #b0b0b0; stroke-width: 0.8; stroke-linecap: square"/>
     </g>
     <g id="line2d_48">
      <defs>
       <path id="m281709dcc2" d="M 0 0 
L -3.5 0 
" style="stroke: #000000; stroke-width: 0.8"/>
      </defs>
      <g>
       <use xlink:href="#m281709dcc2" x="57.6" y="276.696353" style="stroke: #000000; stroke-width: 0.8"/>
      </g>
     </g>
     <g id="text_7">
      <!-- 1 -->
      <g transform="translate(44.2375 280.495572)scale(0.1 -0.1)">
       <use xlink:href="#DejaVuSans-31"/>
      </g>
     </g>
    </g>
    <g id="ytick_2">
     <g id="line2d_49">
      <path d="M 57.6 242.584425 
L 414.72 242.584425 
" clip-path="url(#p6d2a6d4c4f)" style="fill: none; stroke: #b0b0b0; stroke-width: 0.8; stroke-linecap: square"/>
     </g>
     <g id="line2d_50">
      <g>
       <use xlink:href="#m281709dcc2" x="57.6" y="242.584425" style="stroke: #000000; stroke-width: 0.8"/>
      </g>
     </g>
     <g id="text_8">
      <!-- 2 -->
      <g transform="translate(44.2375 246.383644)scale(0.1 -0.1)">
       <use xlink:href="#DejaVuSans-32"/>
      </g>
     </g>
    </g>
    <g id="ytick_3">
     <g id="line2d_51">
      <path d="M 57.6 208.472498 
L 414.72 208.472498 
" clip-path="url(#p6d2a6d4c4f)" style="fill: none; stroke: #b0b0b0; stroke-width: 0.8; stroke-linecap: square"/>
     </g>
     <g id="line2d_52">
      <g>
       <use xlink:href="#m281709dcc2" x="57.6" y="208.472498" style="stroke: #000000; stroke-width: 0.8"/>
      </g>
     </g>
     <g id="text_9">
      <!-- 3 -->
      <g transform="translate(44.2375 212.271717)scale(0.1 -0.1)">
       <defs>
        <path id="DejaVuSans-33" d="M 2597 2516 
Q 3050 2419 3304 2112 
Q 3559 1806 3559 1356 
Q 3559 666 3084 287 
Q 2609 -91 1734 -91 
Q 1441 -91 1130 -33 
Q 819 25 488 141 
L 488 750 
Q 750 597 1062 519 
Q 1375 441 1716 441 
Q 2309 441 2620 675 
Q 2931 909 2931 1356 
Q 2931 1769 2642 2001 
Q 2353 2234 1838 2234 
L 1294 2234 
L 1294 2753 
L 1863 2753 
Q 2328 2753 2575 2939 
Q 2822 3125 2822 3475 
Q 2822 3834 2567 4026 
Q 2313 4219 1838 4219 
Q 1578 4219 1281 4162 
Q 984 4106 628 3988 
L 628 4550 
Q 988 4650 1302 4700 
Q 1616 4750 1894 4750 
Q 2613 4750 3031 4423 
Q 3450 4097 3450 3541 
Q 3450 3153 3228 2886 
Q 3006 2619 2597 2516 
z
" transform="scale(0.015625)"/>
       </defs>
       <use xlink:href="#DejaVuSans-33"/>
      </g>
     </g>
    </g>
    <g id="ytick_4">
     <g id="line2d_53">
      <path d="M 57.6 174.36057 
L 414.72 174.36057 
" clip-path="url(#p6d2a6d4c4f)" style="fill: none; stroke: #b0b0b0; stroke-width: 0.8; stroke-linecap: square"/>
     </g>
     <g id="line2d_54">
      <g>
       <use xlink:href="#m281709dcc2" x="57.6" y="174.36057" style="stroke: #000000; stroke-width: 0.8"/>
      </g>
     </g>
     <g id="text_10">
      <!-- 4 -->
      <g transform="translate(44.2375 178.159789)scale(0.1 -0.1)">
       <defs>
        <path id="DejaVuSans-34" d="M 2419 4116 
L 825 1625 
L 2419 1625 
L 2419 4116 
z
M 2253 4666 
L 3047 4666 
L 3047 1625 
L 3713 1625 
L 3713 1100 
L 3047 1100 
L 3047 0 
L 2419 0 
L 2419 1100 
L 313 1100 
L 313 1709 
L 2253 4666 
z
" transform="scale(0.015625)"/>
       </defs>
       <use xlink:href="#DejaVuSans-34"/>
      </g>
     </g>
    </g>
    <g id="ytick_5">
     <g id="line2d_55">
      <path d="M 57.6 140.248642 
L 414.72 140.248642 
" clip-path="url(#p6d2a6d4c4f)" style="fill: none; stroke: #b0b0b0; stroke-width: 0.8; stroke-linecap: square"/>
     </g>
     <g id="line2d_56">
      <g>
       <use xlink:href="#m281709dcc2" x="57.6" y="140.248642" style="stroke: #000000; stroke-width: 0.8"/>
      </g>
     </g>
     <g id="text_11">
      <!-- 5 -->
      <g transform="translate(44.2375 144.047861)scale(0.1 -0.1)">
       <use xlink:href="#DejaVuSans-35"/>
      </g>
     </g>
    </g>
    <g id="ytick_6">
     <g id="line2d_57">
      <path d="M 57.6 106.136715 
L 414.72 106.136715 
" clip-path="url(#p6d2a6d4c4f)" style="fill: none; stroke: #b0b0b0; stroke-width: 0.8; stroke-linecap: square"/>
     </g>
     <g id="line2d_58">
      <g>
       <use xlink:href="#m281709dcc2" x="57.6" y="106.136715" style="stroke: #000000; stroke-width: 0.8"/>
      </g>
     </g>
     <g id="text_12">
      <!-- 6 -->
      <g transform="translate(44.2375 109.935934)scale(0.1 -0.1)">
       <defs>
        <path id="DejaVuSans-36" d="M 2113 2584 
Q 1688 2584 1439 2293 
Q 1191 2003 1191 1497 
Q 1191 994 1439 701 
Q 1688 409 2113 409 
Q 2538 409 2786 701 
Q 3034 994 3034 1497 
Q 3034 2003 2786 2293 
Q 2538 2584 2113 2584 
z
M 3366 4563 
L 3366 3988 
Q 3128 4100 2886 4159 
Q 2644 4219 2406 4219 
Q 1781 4219 1451 3797 
Q 1122 3375 1075 2522 
Q 1259 2794 1537 2939 
Q 1816 3084 2150 3084 
Q 2853 3084 3261 2657 
Q 3669 2231 3669 1497 
Q 3669 778 3244 343 
Q 2819 -91 2113 -91 
Q 1303 -91 875 529 
Q 447 1150 447 2328 
Q 447 3434 972 4092 
Q 1497 4750 2381 4750 
Q 2619 4750 2861 4703 
Q 3103 4656 3366 4563 
z
" transform="scale(0.015625)"/>
       </defs>
       <use xlink:href="#DejaVuSans-36"/>
      </g>
     </g>
    </g>
    <g id="ytick_7">
     <g id="line2d_59">
      <path d="M 57.6 72.024787 
L 414.72 72.024787 
" clip-path="url(#p6d2a6d4c4f)" style="fill: none; stroke: #b0b0b0; stroke-width: 0.8; stroke-linecap: square"/>
     </g>
     <g id="line2d_60">
      <g>
       <use xlink:href="#m281709dcc2" x="57.6" y="72.024787" style="stroke: #000000; stroke-width: 0.8"/>
      </g>
     </g>
     <g id="text_13">
      <!-- 7 -->
      <g transform="translate(44.2375 75.824006)scale(0.1 -0.1)">
       <defs>
        <path id="DejaVuSans-37" d="M 525 4666 
L 3525 4666 
L 3525 4397 
L 1831 0 
L 1172 0 
L 2766 4134 
L 525 4134 
L 525 4666 
z
" transform="scale(0.015625)"/>
       </defs>
       <use xlink:href="#DejaVuSans-37"/>
      </g>
     </g>
    </g>
    <g id="ytick_8">
     <g id="line2d_61">
      <path d="M 57.6 303.985895 
L 414.72 303.985895 
" clip-path="url(#p6d2a6d4c4f)" style="fill: none; stroke-dasharray: 0.8,1.32; stroke-dashoffset: 0; stroke: #b0b0b0; stroke-width: 0.8"/>
     </g>
     <g id="line2d_62">
      <defs>
       <path id="m30010806c8" d="M 0 0 
L -2 0 
" style="stroke: #000000; stroke-width: 0.6"/>
      </defs>
      <g>
       <use xlink:href="#m30010806c8" x="57.6" y="303.985895" style="stroke: #000000; stroke-width: 0.6"/>
      </g>
     </g>
    </g>
    <g id="ytick_9">
     <g id="line2d_63">
      <path d="M 57.6 297.16351 
L 414.72 297.16351 
" clip-path="url(#p6d2a6d4c4f)" style="fill: none; stroke-dasharray: 0.8,1.32; stroke-dashoffset: 0; stroke: #b0b0b0; stroke-width: 0.8"/>
     </g>
     <g id="line2d_64">
      <g>
       <use xlink:href="#m30010806c8" x="57.6" y="297.16351" style="stroke: #000000; stroke-width: 0.6"/>
      </g>
     </g>
    </g>
    <g id="ytick_10">
     <g id="line2d_65">
      <path d="M 57.6 290.341124 
L 414.72 290.341124 
" clip-path="url(#p6d2a6d4c4f)" style="fill: none; stroke-dasharray: 0.8,1.32; stroke-dashoffset: 0; stroke: #b0b0b0; stroke-width: 0.8"/>
     </g>
     <g id="line2d_66">
      <g>
       <use xlink:href="#m30010806c8" x="57.6" y="290.341124" style="stroke: #000000; stroke-width: 0.6"/>
      </g>
     </g>
    </g>
    <g id="ytick_11">
     <g id="line2d_67">
      <path d="M 57.6 283.518739 
L 414.72 283.518739 
" clip-path="url(#p6d2a6d4c4f)" style="fill: none; stroke-dasharray: 0.8,1.32; stroke-dashoffset: 0; stroke: #b0b0b0; stroke-width: 0.8"/>
     </g>
     <g id="line2d_68">
      <g>
       <use xlink:href="#m30010806c8" x="57.6" y="283.518739" style="stroke: #000000; stroke-width: 0.6"/>
      </g>
     </g>
    </g>
    <g id="ytick_12">
     <g id="line2d_69">
      <path d="M 57.6 269.873968 
L 414.72 269.873968 
" clip-path="url(#p6d2a6d4c4f)" style="fill: none; stroke-dasharray: 0.8,1.32; stroke-dashoffset: 0; stroke: #b0b0b0; stroke-width: 0.8"/>
     </g>
     <g id="line2d_70">
      <g>
       <use xlink:href="#m30010806c8" x="57.6" y="269.873968" style="stroke: #000000; stroke-width: 0.6"/>
      </g>
     </g>
    </g>
    <g id="ytick_13">
     <g id="line2d_71">
      <path d="M 57.6 263.051582 
L 414.72 263.051582 
" clip-path="url(#p6d2a6d4c4f)" style="fill: none; stroke-dasharray: 0.8,1.32; stroke-dashoffset: 0; stroke: #b0b0b0; stroke-width: 0.8"/>
     </g>
     <g id="line2d_72">
      <g>
       <use xlink:href="#m30010806c8" x="57.6" y="263.051582" style="stroke: #000000; stroke-width: 0.6"/>
      </g>
     </g>
    </g>
    <g id="ytick_14">
     <g id="line2d_73">
      <path d="M 57.6 256.229196 
L 414.72 256.229196 
" clip-path="url(#p6d2a6d4c4f)" style="fill: none; stroke-dasharray: 0.8,1.32; stroke-dashoffset: 0; stroke: #b0b0b0; stroke-width: 0.8"/>
     </g>
     <g id="line2d_74">
      <g>
       <use xlink:href="#m30010806c8" x="57.6" y="256.229196" style="stroke: #000000; stroke-width: 0.6"/>
      </g>
     </g>
    </g>
    <g id="ytick_15">
     <g id="line2d_75">
      <path d="M 57.6 249.406811 
L 414.72 249.406811 
" clip-path="url(#p6d2a6d4c4f)" style="fill: none; stroke-dasharray: 0.8,1.32; stroke-dashoffset: 0; stroke: #b0b0b0; stroke-width: 0.8"/>
     </g>
     <g id="line2d_76">
      <g>
       <use xlink:href="#m30010806c8" x="57.6" y="249.406811" style="stroke: #000000; stroke-width: 0.6"/>
      </g>
     </g>
    </g>
    <g id="ytick_16">
     <g id="line2d_77">
      <path d="M 57.6 235.76204 
L 414.72 235.76204 
" clip-path="url(#p6d2a6d4c4f)" style="fill: none; stroke-dasharray: 0.8,1.32; stroke-dashoffset: 0; stroke: #b0b0b0; stroke-width: 0.8"/>
     </g>
     <g id="line2d_78">
      <g>
       <use xlink:href="#m30010806c8" x="57.6" y="235.76204" style="stroke: #000000; stroke-width: 0.6"/>
      </g>
     </g>
    </g>
    <g id="ytick_17">
     <g id="line2d_79">
      <path d="M 57.6 228.939654 
L 414.72 228.939654 
" clip-path="url(#p6d2a6d4c4f)" style="fill: none; stroke-dasharray: 0.8,1.32; stroke-dashoffset: 0; stroke: #b0b0b0; stroke-width: 0.8"/>
     </g>
     <g id="line2d_80">
      <g>
       <use xlink:href="#m30010806c8" x="57.6" y="228.939654" style="stroke: #000000; stroke-width: 0.6"/>
      </g>
     </g>
    </g>
    <g id="ytick_18">
     <g id="line2d_81">
      <path d="M 57.6 222.117269 
L 414.72 222.117269 
" clip-path="url(#p6d2a6d4c4f)" style="fill: none; stroke-dasharray: 0.8,1.32; stroke-dashoffset: 0; stroke: #b0b0b0; stroke-width: 0.8"/>
     </g>
     <g id="line2d_82">
      <g>
       <use xlink:href="#m30010806c8" x="57.6" y="222.117269" style="stroke: #000000; stroke-width: 0.6"/>
      </g>
     </g>
    </g>
    <g id="ytick_19">
     <g id="line2d_83">
      <path d="M 57.6 215.294883 
L 414.72 215.294883 
" clip-path="url(#p6d2a6d4c4f)" style="fill: none; stroke-dasharray: 0.8,1.32; stroke-dashoffset: 0; stroke: #b0b0b0; stroke-width: 0.8"/>
     </g>
     <g id="line2d_84">
      <g>
       <use xlink:href="#m30010806c8" x="57.6" y="215.294883" style="stroke: #000000; stroke-width: 0.6"/>
      </g>
     </g>
    </g>
    <g id="ytick_20">
     <g id="line2d_85">
      <path d="M 57.6 201.650112 
L 414.72 201.650112 
" clip-path="url(#p6d2a6d4c4f)" style="fill: none; stroke-dasharray: 0.8,1.32; stroke-dashoffset: 0; stroke: #b0b0b0; stroke-width: 0.8"/>
     </g>
     <g id="line2d_86">
      <g>
       <use xlink:href="#m30010806c8" x="57.6" y="201.650112" style="stroke: #000000; stroke-width: 0.6"/>
      </g>
     </g>
    </g>
    <g id="ytick_21">
     <g id="line2d_87">
      <path d="M 57.6 194.827727 
L 414.72 194.827727 
" clip-path="url(#p6d2a6d4c4f)" style="fill: none; stroke-dasharray: 0.8,1.32; stroke-dashoffset: 0; stroke: #b0b0b0; stroke-width: 0.8"/>
     </g>
     <g id="line2d_88">
      <g>
       <use xlink:href="#m30010806c8" x="57.6" y="194.827727" style="stroke: #000000; stroke-width: 0.6"/>
      </g>
     </g>
    </g>
    <g id="ytick_22">
     <g id="line2d_89">
      <path d="M 57.6 188.005341 
L 414.72 188.005341 
" clip-path="url(#p6d2a6d4c4f)" style="fill: none; stroke-dasharray: 0.8,1.32; stroke-dashoffset: 0; stroke: #b0b0b0; stroke-width: 0.8"/>
     </g>
     <g id="line2d_90">
      <g>
       <use xlink:href="#m30010806c8" x="57.6" y="188.005341" style="stroke: #000000; stroke-width: 0.6"/>
      </g>
     </g>
    </g>
    <g id="ytick_23">
     <g id="line2d_91">
      <path d="M 57.6 181.182956 
L 414.72 181.182956 
" clip-path="url(#p6d2a6d4c4f)" style="fill: none; stroke-dasharray: 0.8,1.32; stroke-dashoffset: 0; stroke: #b0b0b0; stroke-width: 0.8"/>
     </g>
     <g id="line2d_92">
      <g>
       <use xlink:href="#m30010806c8" x="57.6" y="181.182956" style="stroke: #000000; stroke-width: 0.6"/>
      </g>
     </g>
    </g>
    <g id="ytick_24">
     <g id="line2d_93">
      <path d="M 57.6 167.538185 
L 414.72 167.538185 
" clip-path="url(#p6d2a6d4c4f)" style="fill: none; stroke-dasharray: 0.8,1.32; stroke-dashoffset: 0; stroke: #b0b0b0; stroke-width: 0.8"/>
     </g>
     <g id="line2d_94">
      <g>
       <use xlink:href="#m30010806c8" x="57.6" y="167.538185" style="stroke: #000000; stroke-width: 0.6"/>
      </g>
     </g>
    </g>
    <g id="ytick_25">
     <g id="line2d_95">
      <path d="M 57.6 160.715799 
L 414.72 160.715799 
" clip-path="url(#p6d2a6d4c4f)" style="fill: none; stroke-dasharray: 0.8,1.32; stroke-dashoffset: 0; stroke: #b0b0b0; stroke-width: 0.8"/>
     </g>
     <g id="line2d_96">
      <g>
       <use xlink:href="#m30010806c8" x="57.6" y="160.715799" style="stroke: #000000; stroke-width: 0.6"/>
      </g>
     </g>
    </g>
    <g id="ytick_26">
     <g id="line2d_97">
      <path d="M 57.6 153.893414 
L 414.72 153.893414 
" clip-path="url(#p6d2a6d4c4f)" style="fill: none; stroke-dasharray: 0.8,1.32; stroke-dashoffset: 0; stroke: #b0b0b0; stroke-width: 0.8"/>
     </g>
     <g id="line2d_98">
      <g>
       <use xlink:href="#m30010806c8" x="57.6" y="153.893414" style="stroke: #000000; stroke-width: 0.6"/>
      </g>
     </g>
    </g>
    <g id="ytick_27">
     <g id="line2d_99">
      <path d="M 57.6 147.071028 
L 414.72 147.071028 
" clip-path="url(#p6d2a6d4c4f)" style="fill: none; stroke-dasharray: 0.8,1.32; stroke-dashoffset: 0; stroke: #b0b0b0; stroke-width: 0.8"/>
     </g>
     <g id="line2d_100">
      <g>
       <use xlink:href="#m30010806c8" x="57.6" y="147.071028" style="stroke: #000000; stroke-width: 0.6"/>
      </g>
     </g>
    </g>
    <g id="ytick_28">
     <g id="line2d_101">
      <path d="M 57.6 133.426257 
L 414.72 133.426257 
" clip-path="url(#p6d2a6d4c4f)" style="fill: none; stroke-dasharray: 0.8,1.32; stroke-dashoffset: 0; stroke: #b0b0b0; stroke-width: 0.8"/>
     </g>
     <g id="line2d_102">
      <g>
       <use xlink:href="#m30010806c8" x="57.6" y="133.426257" style="stroke: #000000; stroke-width: 0.6"/>
      </g>
     </g>
    </g>
    <g id="ytick_29">
     <g id="line2d_103">
      <path d="M 57.6 126.603871 
L 414.72 126.603871 
" clip-path="url(#p6d2a6d4c4f)" style="fill: none; stroke-dasharray: 0.8,1.32; stroke-dashoffset: 0; stroke: #b0b0b0; stroke-width: 0.8"/>
     </g>
     <g id="line2d_104">
      <g>
       <use xlink:href="#m30010806c8" x="57.6" y="126.603871" style="stroke: #000000; stroke-width: 0.6"/>
      </g>
     </g>
    </g>
    <g id="ytick_30">
     <g id="line2d_105">
      <path d="M 57.6 119.781486 
L 414.72 119.781486 
" clip-path="url(#p6d2a6d4c4f)" style="fill: none; stroke-dasharray: 0.8,1.32; stroke-dashoffset: 0; stroke: #b0b0b0; stroke-width: 0.8"/>
     </g>
     <g id="line2d_106">
      <g>
       <use xlink:href="#m30010806c8" x="57.6" y="119.781486" style="stroke: #000000; stroke-width: 0.6"/>
      </g>
     </g>
    </g>
    <g id="ytick_31">
     <g id="line2d_107">
      <path d="M 57.6 112.9591 
L 414.72 112.9591 
" clip-path="url(#p6d2a6d4c4f)" style="fill: none; stroke-dasharray: 0.8,1.32; stroke-dashoffset: 0; stroke: #b0b0b0; stroke-width: 0.8"/>
     </g>
     <g id="line2d_108">
      <g>
       <use xlink:href="#m30010806c8" x="57.6" y="112.9591" style="stroke: #000000; stroke-width: 0.6"/>
      </g>
     </g>
    </g>
    <g id="ytick_32">
     <g id="line2d_109">
      <path d="M 57.6 99.314329 
L 414.72 99.314329 
" clip-path="url(#p6d2a6d4c4f)" style="fill: none; stroke-dasharray: 0.8,1.32; stroke-dashoffset: 0; stroke: #b0b0b0; stroke-width: 0.8"/>
     </g>
     <g id="line2d_110">
      <g>
       <use xlink:href="#m30010806c8" x="57.6" y="99.314329" style="stroke: #000000; stroke-width: 0.6"/>
      </g>
     </g>
    </g>
    <g id="ytick_33">
     <g id="line2d_111">
      <path d="M 57.6 92.491944 
L 414.72 92.491944 
" clip-path="url(#p6d2a6d4c4f)" style="fill: none; stroke-dasharray: 0.8,1.32; stroke-dashoffset: 0; stroke: #b0b0b0; stroke-width: 0.8"/>
     </g>
     <g id="line2d_112">
      <g>
       <use xlink:href="#m30010806c8" x="57.6" y="92.491944" style="stroke: #000000; stroke-width: 0.6"/>
      </g>
     </g>
    </g>
    <g id="ytick_34">
     <g id="line2d_113">
      <path d="M 57.6 85.669558 
L 414.72 85.669558 
" clip-path="url(#p6d2a6d4c4f)" style="fill: none; stroke-dasharray: 0.8,1.32; stroke-dashoffset: 0; stroke: #b0b0b0; stroke-width: 0.8"/>
     </g>
     <g id="line2d_114">
      <g>
       <use xlink:href="#m30010806c8" x="57.6" y="85.669558" style="stroke: #000000; stroke-width: 0.6"/>
      </g>
     </g>
    </g>
    <g id="ytick_35">
     <g id="line2d_115">
      <path d="M 57.6 78.847173 
L 414.72 78.847173 
" clip-path="url(#p6d2a6d4c4f)" style="fill: none; stroke-dasharray: 0.8,1.32; stroke-dashoffset: 0; stroke: #b0b0b0; stroke-width: 0.8"/>
     </g>
     <g id="line2d_116">
      <g>
       <use xlink:href="#m30010806c8" x="57.6" y="78.847173" style="stroke: #000000; stroke-width: 0.6"/>
      </g>
     </g>
    </g>
    <g id="ytick_36">
     <g id="line2d_117">
      <path d="M 57.6 65.202402 
L 414.72 65.202402 
" clip-path="url(#p6d2a6d4c4f)" style="fill: none; stroke-dasharray: 0.8,1.32; stroke-dashoffset: 0; stroke: #b0b0b0; stroke-width: 0.8"/>
     </g>
     <g id="line2d_118">
      <g>
       <use xlink:href="#m30010806c8" x="57.6" y="65.202402" style="stroke: #000000; stroke-width: 0.6"/>
      </g>
     </g>
    </g>
    <g id="ytick_37">
     <g id="line2d_119">
      <path d="M 57.6 58.380016 
L 414.72 58.380016 
" clip-path="url(#p6d2a6d4c4f)" style="fill: none; stroke-dasharray: 0.8,1.32; stroke-dashoffset: 0; stroke: #b0b0b0; stroke-width: 0.8"/>
     </g>
     <g id="line2d_120">
      <g>
       <use xlink:href="#m30010806c8" x="57.6" y="58.380016" style="stroke: #000000; stroke-width: 0.6"/>
      </g>
     </g>
    </g>
    <g id="ytick_38">
     <g id="line2d_121">
      <path d="M 57.6 51.557631 
L 414.72 51.557631 
" clip-path="url(#p6d2a6d4c4f)" style="fill: none; stroke-dasharray: 0.8,1.32; stroke-dashoffset: 0; stroke: #b0b0b0; stroke-width: 0.8"/>
     </g>
     <g id="line2d_122">
      <g>
       <use xlink:href="#m30010806c8" x="57.6" y="51.557631" style="stroke: #000000; stroke-width: 0.6"/>
      </g>
     </g>
    </g>
    <g id="ytick_39">
     <g id="line2d_123">
      <path d="M 57.6 44.735245 
L 414.72 44.735245 
" clip-path="url(#p6d2a6d4c4f)" style="fill: none; stroke-dasharray: 0.8,1.32; stroke-dashoffset: 0; stroke: #b0b0b0; stroke-width: 0.8"/>
     </g>
     <g id="line2d_124">
      <g>
       <use xlink:href="#m30010806c8" x="57.6" y="44.735245" style="stroke: #000000; stroke-width: 0.6"/>
      </g>
     </g>
    </g>
    <g id="text_14">
     <!-- Power (W) -->
     <g transform="translate(38.157812 200.076437)rotate(-90)scale(0.1 -0.1)">
      <defs>
       <path id="DejaVuSans-50" d="M 1259 4147 
L 1259 2394 
L 2053 2394 
Q 2494 2394 2734 2622 
Q 2975 2850 2975 3272 
Q 2975 3691 2734 3919 
Q 2494 4147 2053 4147 
L 1259 4147 
z
M 628 4666 
L 2053 4666 
Q 2838 4666 3239 4311 
Q 3641 3956 3641 3272 
Q 3641 2581 3239 2228 
Q 2838 1875 2053 1875 
L 1259 1875 
L 1259 0 
L 628 0 
L 628 4666 
z
" transform="scale(0.015625)"/>
       <path id="DejaVuSans-6f" d="M 1959 3097 
Q 1497 3097 1228 2736 
Q 959 2375 959 1747 
Q 959 1119 1226 758 
Q 1494 397 1959 397 
Q 2419 397 2687 759 
Q 2956 1122 2956 1747 
Q 2956 2369 2687 2733 
Q 2419 3097 1959 3097 
z
M 1959 3584 
Q 2709 3584 3137 3096 
Q 3566 2609 3566 1747 
Q 3566 888 3137 398 
Q 2709 -91 1959 -91 
Q 1206 -91 779 398 
Q 353 888 353 1747 
Q 353 2609 779 3096 
Q 1206 3584 1959 3584 
z
" transform="scale(0.015625)"/>
       <path id="DejaVuSans-77" d="M 269 3500 
L 844 3500 
L 1563 769 
L 2278 3500 
L 2956 3500 
L 3675 769 
L 4391 3500 
L 4966 3500 
L 4050 0 
L 3372 0 
L 2619 2869 
L 1863 0 
L 1184 0 
L 269 3500 
z
" transform="scale(0.015625)"/>
       <path id="DejaVuSans-72" d="M 2631 2963 
Q 2534 3019 2420 3045 
Q 2306 3072 2169 3072 
Q 1681 3072 1420 2755 
Q 1159 2438 1159 1844 
L 1159 0 
L 581 0 
L 581 3500 
L 1159 3500 
L 1159 2956 
Q 1341 3275 1631 3429 
Q 1922 3584 2338 3584 
Q 2397 3584 2469 3576 
Q 2541 3569 2628 3553 
L 2631 2963 
z
" transform="scale(0.015625)"/>
       <path id="DejaVuSans-57" d="M 213 4666 
L 850 4666 
L 1831 722 
L 2809 4666 
L 3519 4666 
L 4500 722 
L 5478 4666 
L 6119 4666 
L 4947 0 
L 4153 0 
L 3169 4050 
L 2175 0 
L 1381 0 
L 213 4666 
z
" transform="scale(0.015625)"/>
      </defs>
      <use xlink:href="#DejaVuSans-50"/>
      <use xlink:href="#DejaVuSans-6f" x="56.677734"/>
      <use xlink:href="#DejaVuSans-77" x="117.859375"/>
      <use xlink:href="#DejaVuSans-65" x="199.646484"/>
      <use xlink:href="#DejaVuSans-72" x="261.169922"/>
      <use xlink:href="#DejaVuSans-20" x="302.283203"/>
      <use xlink:href="#DejaVuSans-28" x="334.070312"/>
      <use xlink:href="#DejaVuSans-57" x="373.083984"/>
      <use xlink:href="#DejaVuSans-29" x="471.960938"/>
     </g>
    </g>
   </g>
   <g id="line2d_125">
    <path d="M 73.832727 241.665365 
L 75.393566 213.619817 
L 76.954406 74.140469 
L 78.515245 75.845366 
L 80.076084 75.135846 
L 81.636923 75.654944 
L 83.197762 76.042473 
L 86.319441 76.44073 
L 87.88028 75.425729 
L 89.441119 76.347263 
L 91.001958 76.05518 
L 92.562797 76.644293 
L 94.123636 75.701098 
L 95.684476 76.574107 
L 97.245315 77.007499 
L 98.806154 73.637156 
L 100.366993 73.501902 
L 101.927832 73.671694 
L 103.488671 73.493374 
L 105.04951 72.56408 
L 106.61035 73.873125 
L 108.171189 72.58557 
L 109.732028 73.422251 
L 111.292867 72.620791 
L 112.853706 73.001565 
L 114.414545 73.73608 
L 115.975385 72.626163 
L 117.536224 73.470434 
L 119.097063 73.482799 
L 120.657902 75.698113 
L 122.218741 75.815032 
L 123.77958 77.275534 
L 125.34042 75.952162 
L 126.901259 76.055521 
L 128.462098 75.821257 
L 130.022937 76.369521 
L 131.583776 75.456089 
L 133.144615 75.461632 
L 134.705455 76.180967 
L 136.266294 76.130738 
L 137.827133 76.335921 
L 139.387972 75.334395 
L 140.948811 76.432969 
L 142.50965 283.296431 
L 144.07049 77.120154 
L 145.631329 75.839678 
L 147.192168 75.246471 
L 148.753007 76.167152 
L 150.313846 283.466283 
L 151.874685 76.103789 
L 153.435524 74.648063 
L 154.996364 75.930671 
L 156.557203 283.527599 
L 158.118042 75.318618 
L 159.678881 74.878233 
L 161.23972 75.457965 
L 162.800559 283.394563 
L 164.361399 76.195636 
L 165.922238 75.014084 
L 167.483077 283.545943 
L 169.043916 75.37567 
L 170.604755 75.584179 
L 172.165594 74.67467 
L 173.726434 283.324446 
L 175.287273 71.083793 
L 176.848112 71.979828 
L 178.408951 283.138689 
L 179.96979 71.603744 
L 181.530629 70.105292 
L 183.091469 283.241716 
L 184.652308 71.71384 
L 186.213147 70.38646 
L 187.773986 283.209002 
L 189.334825 70.784631 
L 190.895664 70.855157 
L 192.456503 283.14332 
L 194.017343 71.624126 
L 195.578182 70.369062 
L 197.139021 283.310272 
L 198.69986 71.748549 
L 200.260699 71.152102 
L 201.821538 75.891016 
L 203.382378 283.43061 
L 204.943217 76.355109 
L 206.504056 77.177888 
L 208.064895 283.414672 
L 209.625734 76.30812 
L 211.186573 75.963589 
L 212.747413 283.476013 
L 214.308252 77.188975 
L 215.869091 75.70775 
L 217.42993 283.526209 
L 218.990769 76.135172 
L 220.551608 76.267697 
L 222.112448 76.202032 
L 223.673287 283.500335 
L 225.234126 76.280915 
L 226.794965 76.315795 
L 228.355804 283.556049 
L 229.916643 76.451304 
L 231.477483 72.18936 
L 233.038322 283.147328 
L 234.599161 64.434355 
L 236.16 65.256196 
L 237.720839 282.993432 
L 239.281678 64.936056 
L 240.842517 63.612087 
L 242.403357 283.198138 
L 243.964196 64.972811 
L 245.525035 63.869802 
L 247.085874 283.107417 
L 248.646713 63.955594 
L 250.207552 64.12061 
L 251.768392 283.08376 
L 253.329231 64.735222 
L 254.89007 63.646028 
L 256.450909 283.205651 
L 258.011748 64.980913 
L 259.572587 67.61768 
L 261.133427 283.563451 
L 262.694266 78.827115 
L 264.255105 79.443432 
L 265.815944 283.573966 
L 267.376783 79.222387 
L 268.937622 78.436789 
L 270.498462 283.402144 
L 272.059301 78.99017 
L 273.62014 78.752921 
L 275.180979 283.444784 
L 276.741818 79.078605 
L 278.302657 77.857313 
L 279.863497 283.540357 
L 281.424336 79.052851 
L 282.985175 78.861142 
L 284.546014 283.534439 
L 286.106853 78.577245 
L 287.667692 78.670371 
L 289.228531 283.511515 
L 290.789371 79.371541 
L 292.35021 71.097523 
L 293.911049 283.225939 
L 295.471888 72.153287 
L 297.032727 70.408462 
L 298.593566 283.277354 
L 300.154406 70.326252 
L 301.715245 283.152973 
L 303.276084 70.777041 
L 304.836923 69.866338 
L 306.397762 283.245587 
L 307.958601 70.430634 
L 309.519441 70.036898 
L 311.08028 283.292721 
L 312.641119 70.461079 
L 314.201958 70.512588 
L 315.762797 283.20994 
L 317.323636 70.780708 
L 318.884476 283.354933 
L 320.445315 70.619018 
L 322.006154 73.208113 
L 323.566993 283.229631 
L 325.127832 72.532953 
L 326.688671 72.302015 
L 328.24951 283.060846 
L 329.81035 71.662501 
L 331.371189 283.1691 
L 332.932028 71.179988 
L 334.492867 71.525968 
L 336.053706 283.049043 
L 337.614545 71.534496 
L 339.175385 69.927313 
L 340.736224 283.196893 
L 342.297063 71.090274 
L 343.857902 283.324633 
L 345.418741 71.421415 
L 346.97958 70.789407 
L 348.54042 283.118998 
L 350.101259 71.895486 
L 351.662098 283.300542 
L 353.222937 119.863423 
L 354.783776 224.612164 
L 356.344615 295.488 
L 357.905455 225.048626 
L 359.466294 224.472987 
L 364.148811 224.425828 
L 365.70965 224.65813 
L 367.27049 224.312917 
L 368.831329 224.264308 
L 370.392168 224.766776 
L 371.953007 224.399988 
L 373.513846 224.440496 
L 375.074685 224.766606 
L 376.635524 225.365014 
L 378.196364 226.099188 
L 379.757203 226.428965 
L 381.318042 226.240326 
L 382.878881 226.205276 
L 384.43972 225.952422 
L 386.000559 226.416429 
L 387.561399 225.872344 
L 389.122238 226.315884 
L 390.683077 225.989092 
L 392.243916 226.02815 
L 393.804755 226.32373 
L 395.365594 226.090063 
L 396.926434 226.330808 
L 398.487273 226.158799 
L 398.487273 226.158799 
" clip-path="url(#p6d2a6d4c4f)" style="fill: none; stroke: #1f77b4; stroke-width: 1.5; stroke-linecap: square"/>
   </g>
   <g id="line2d_126">
    <path d="M 73.832727 224.170551 
L 75.393566 210.105862 
L 76.954406 57.477133 
L 78.515245 59.055049 
L 80.076084 59.305865 
L 81.636923 59.231672 
L 83.197762 60.535447 
L 84.758601 59.411458 
L 86.319441 59.62534 
L 87.88028 60.062911 
L 89.441119 60.089859 
L 91.001958 59.781488 
L 92.562797 60.015581 
L 94.123636 60.520778 
L 95.684476 60.109047 
L 97.245315 57.612651 
L 98.806154 58.431423 
L 100.366993 58.02839 
L 103.488671 57.660152 
L 105.04951 57.747564 
L 109.732028 57.24501 
L 111.292867 58.060882 
L 112.853706 57.384442 
L 114.414545 58.32073 
L 117.536224 57.431602 
L 119.097063 54.977334 
L 120.657902 56.398011 
L 122.218741 56.026106 
L 123.77958 55.129303 
L 125.34042 55.817341 
L 126.901259 54.906637 
L 128.462098 55.939802 
L 130.022937 55.069351 
L 131.583776 55.760544 
L 133.144615 55.413029 
L 134.705455 55.609684 
L 136.266294 56.019965 
L 139.387972 57.17943 
L 140.948811 58.073248 
L 142.50965 57.748928 
L 144.07049 57.674564 
L 145.631329 57.472281 
L 147.192168 57.539055 
L 148.753007 57.354083 
L 150.313846 283.123705 
L 151.874685 57.334468 
L 153.435524 56.862018 
L 154.996364 57.332848 
L 156.557203 57.150435 
L 158.118042 283.234202 
L 159.678881 58.031716 
L 161.23972 57.506648 
L 162.800559 54.176813 
L 164.361399 283.047303 
L 165.922238 55.914389 
L 167.483077 54.850694 
L 169.043916 54.245804 
L 170.604755 283.054552 
L 172.165594 55.516814 
L 173.726434 53.568 
L 175.287273 54.393168 
L 176.848112 283.106811 
L 178.408951 54.932136 
L 179.96979 54.419775 
L 181.530629 54.141507 
L 183.091469 283.164102 
L 184.652308 55.543763 
L 186.213147 54.764049 
L 187.773986 55.621197 
L 189.334825 283.073919 
L 190.895664 55.803184 
L 192.456503 55.50948 
L 194.017343 55.375932 
L 195.578182 283.162695 
L 197.139021 55.494556 
L 198.69986 54.900071 
L 200.260699 54.996352 
L 201.821538 283.138868 
L 203.382378 55.332866 
L 204.943217 55.049993 
L 206.504056 55.191131 
L 208.064895 283.068956 
L 209.625734 55.701701 
L 211.186573 55.778112 
L 212.747413 56.241949 
L 214.308252 283.160819 
L 215.869091 54.820846 
L 217.42993 55.601071 
L 218.990769 283.071898 
L 220.551608 55.699484 
L 222.112448 54.650883 
L 223.673287 55.125295 
L 225.234126 283.02751 
L 226.794965 55.251594 
L 228.355804 54.610205 
L 229.916643 282.979924 
L 231.477483 55.131776 
L 233.038322 55.172113 
L 234.599161 54.63613 
L 236.16 283.131594 
L 237.720839 55.799602 
L 239.281678 56.315716 
L 240.842517 283.367375 
L 242.403357 55.282124 
L 243.964196 56.541281 
L 245.525035 55.89486 
L 247.085874 283.279998 
L 248.646713 55.360667 
L 250.207552 56.098423 
L 251.768392 283.152905 
L 253.329231 55.655906 
L 254.89007 55.272232 
L 256.450909 283.122878 
L 258.011748 56.079235 
L 259.572587 55.63723 
L 261.133427 55.413882 
L 262.694266 283.233119 
L 264.255105 56.531218 
L 265.815944 58.142921 
L 267.376783 283.07003 
L 268.937622 54.948936 
L 270.498462 55.883773 
L 272.059301 283.127014 
L 273.62014 55.784081 
L 275.180979 54.392485 
L 276.741818 283.086822 
L 278.302657 55.601412 
L 279.863497 54.351892 
L 281.424336 283.193319 
L 282.985175 54.985009 
L 284.546014 54.549656 
L 286.106853 55.08112 
L 287.667692 283.084809 
L 289.228531 55.243663 
L 290.789371 55.342502 
L 292.35021 283.094361 
L 293.911049 56.756101 
L 295.471888 56.77563 
L 297.032727 283.144079 
L 298.593566 58.506384 
L 300.154406 57.463923 
L 301.715245 283.228838 
L 303.276084 57.038718 
L 304.836923 57.548009 
L 306.397762 283.090344 
L 307.958601 57.043238 
L 309.519441 56.674573 
L 311.08028 283.206742 
L 312.641119 57.058418 
L 314.201958 57.287906 
L 315.762797 283.16852 
L 317.323636 57.371054 
L 318.884476 57.528736 
L 320.445315 283.174328 
L 322.006154 77.079535 
L 323.566993 218.794375 
L 325.127832 295.4807 
L 326.688671 219.251816 
L 329.81035 218.832836 
L 331.371189 218.906262 
L 332.932028 218.784823 
L 334.492867 218.941141 
L 336.053706 218.784056 
L 339.175385 218.945405 
L 340.736224 218.878461 
L 343.857902 219.123384 
L 345.418741 219.988463 
L 353.222937 219.918278 
L 354.783776 219.667981 
L 356.344615 219.911285 
L 357.905455 219.744051 
L 359.466294 219.92058 
L 361.027133 219.849798 
L 362.587972 220.047988 
L 364.148811 219.87035 
L 364.148811 219.87035 
" clip-path="url(#p6d2a6d4c4f)" style="fill: none; stroke: #ff7f0e; stroke-width: 1.5; stroke-linecap: square"/>
   </g>
   <g id="line2d_127">
    <path d="M 73.832727 224.742608 
L 75.393566 210.069618 
L 76.954406 57.661252 
L 78.515245 59.025883 
L 80.076084 59.204126 
L 81.636923 59.10324 
L 83.197762 60.406162 
L 84.758601 59.12381 
L 86.319441 59.690579 
L 89.441119 59.963986 
L 91.001958 59.6725 
L 92.562797 59.757439 
L 94.123636 60.508498 
L 95.684476 60.472681 
L 97.245315 58.132176 
L 98.806154 59.026079 
L 100.366993 58.090986 
L 101.927832 57.772636 
L 105.04951 57.894075 
L 108.171189 57.495988 
L 109.732028 57.714902 
L 111.292867 58.121516 
L 112.853706 57.799073 
L 114.414545 58.47918 
L 115.975385 58.106251 
L 117.536224 58.178398 
L 119.097063 55.229336 
L 120.657902 57.128091 
L 122.218741 55.920273 
L 123.77958 55.045558 
L 125.34042 56.156072 
L 126.901259 55.051613 
L 128.462098 56.249112 
L 130.022937 55.243066 
L 131.583776 55.902109 
L 134.705455 55.548965 
L 137.827133 56.974843 
L 139.387972 57.679937 
L 140.948811 58.536999 
L 142.50965 57.845039 
L 144.07049 57.504602 
L 145.631329 57.410112 
L 147.192168 57.68079 
L 148.753007 57.273408 
L 150.313846 57.190516 
L 153.435524 57.71294 
L 154.996364 57.357153 
L 156.557203 58.112306 
L 159.678881 57.282448 
L 161.23972 54.621973 
L 162.800559 55.786128 
L 164.361399 55.400152 
L 165.922238 54.086928 
L 167.483077 55.412688 
L 169.043916 53.948007 
L 170.604755 55.044705 
L 172.165594 54.719789 
L 173.726434 54.906467 
L 175.287273 54.764391 
L 176.848112 54.760041 
L 178.408951 55.563207 
L 179.96979 56.118122 
L 181.530629 55.701701 
L 183.091469 56.655641 
L 184.652308 55.72285 
L 186.213147 55.371156 
L 189.334825 55.478097 
L 190.895664 55.482106 
L 192.456503 54.847709 
L 194.017343 55.722254 
L 195.578182 55.673473 
L 197.139021 55.194201 
L 198.69986 56.241437 
L 200.260699 55.761056 
L 201.821538 56.837372 
L 203.382378 55.331757 
L 204.943217 55.902364 
L 206.504056 55.793547 
L 208.064895 54.602529 
L 209.625734 55.62367 
L 211.186573 54.644999 
L 212.747413 55.098858 
L 214.308252 55.288009 
L 215.869091 55.072933 
L 218.990769 55.421301 
L 220.551608 55.803866 
L 222.112448 58.119725 
L 223.673287 55.871834 
L 225.234126 57.386063 
L 226.794965 56.294907 
L 228.355804 55.653689 
L 229.916643 56.180036 
L 231.477483 55.63578 
L 233.038322 55.989009 
L 234.599161 55.57327 
L 236.16 56.132108 
L 239.281678 55.983466 
L 240.842517 56.720369 
L 242.403357 56.324073 
L 243.964196 57.847682 
L 245.525035 55.421557 
L 247.085874 55.816488 
L 248.646713 55.609002 
L 250.207552 54.946207 
L 251.768392 55.583844 
L 253.329231 54.612934 
L 254.89007 54.850608 
L 256.450909 55.55502 
L 258.011748 55.145506 
L 259.572587 55.089733 
L 261.133427 55.579921 
L 262.694266 55.815294 
L 264.255105 58.147185 
L 265.815944 57.000001 
L 267.376783 58.596183 
L 268.937622 57.807345 
L 270.498462 56.861165 
L 272.059301 57.64429 
L 273.62014 56.772389 
L 275.180979 57.554661 
L 276.741818 56.729152 
L 278.302657 57.524898 
L 279.863497 57.648042 
L 281.424336 57.041191 
L 282.985175 57.992999 
L 284.546014 57.621179 
L 286.106853 201.359888 
L 287.667692 219.21796 
L 289.228531 219.120911 
L 290.789371 219.325071 
L 292.35021 218.87812 
L 293.911049 219.153318 
L 295.471888 218.868057 
L 297.032727 218.873941 
L 298.593566 219.067611 
L 300.154406 219.091234 
L 301.715245 218.913084 
L 303.276084 219.177878 
L 304.836923 219.038872 
L 306.397762 220.212493 
L 307.958601 220.019078 
L 309.519441 220.405652 
L 311.08028 220.124569 
L 312.641119 219.657407 
L 314.201958 220.191088 
L 315.762797 219.877343 
L 317.323636 220.06061 
L 318.884476 219.841611 
L 320.445315 220.151518 
L 322.006154 220.169 
L 323.566993 219.756416 
L 325.127832 220.187335 
L 326.688671 226.948183 
L 326.688671 226.948183 
" clip-path="url(#p6d2a6d4c4f)" style="fill: none; stroke: #2ca02c; stroke-width: 1.5; stroke-linecap: square"/>
   </g>
   <g id="patch_3">
    <path d="M 57.6 307.584 
L 57.6 41.472 
" style="fill: none; stroke: #000000; stroke-width: 0.8; stroke-linejoin: miter; stroke-linecap: square"/>
   </g>
   <g id="patch_4">
    <path d="M 414.72 307.584 
L 414.72 41.472 
" style="fill: none; stroke: #000000; stroke-width: 0.8; stroke-linejoin: miter; stroke-linecap: square"/>
   </g>
   <g id="patch_5">
    <path d="M 57.6 307.584 
L 414.72 307.584 
" style="fill: none; stroke: #000000; stroke-width: 0.8; stroke-linejoin: miter; stroke-linecap: square"/>
   </g>
   <g id="patch_6">
    <path d="M 57.6 41.472 
L 414.72 41.472 
" style="fill: none; stroke: #000000; stroke-width: 0.8; stroke-linejoin: miter; stroke-linecap: square"/>
   </g>
   <g id="legend_1">
    <g id="patch_7">
     <path d="M 297.237188 198.045187 
L 407.72 198.045187 
Q 409.72 198.045187 409.72 196.045187 
L 409.72 153.010812 
Q 409.72 151.010812 407.72 151.010812 
L 297.237188 151.010812 
Q 295.237188 151.010812 295.237188 153.010812 
L 295.237188 196.045187 
Q 295.237188 198.045187 297.237188 198.045187 
z
" style="fill: #ffffff; opacity: 0.8; stroke: #cccccc; stroke-linejoin: miter"/>
    </g>
    <g id="line2d_128">
     <path d="M 299.237188 159.10925 
L 309.237188 159.10925 
L 319.237188 159.10925 
" style="fill: none; stroke: #1f77b4; stroke-width: 1.5; stroke-linecap: square"/>
    </g>
    <g id="text_15">
     <!-- No L3 -->
     <g transform="translate(327.237188 162.60925)scale(0.1 -0.1)">
      <defs>
       <path id="DejaVuSans-4e" d="M 628 4666 
L 1478 4666 
L 3547 763 
L 3547 4666 
L 4159 4666 
L 4159 0 
L 3309 0 
L 1241 3903 
L 1241 0 
L 628 0 
L 628 4666 
z
" transform="scale(0.015625)"/>
       <path id="DejaVuSans-4c" d="M 628 4666 
L 1259 4666 
L 1259 531 
L 3531 531 
L 3531 0 
L 628 0 
L 628 4666 
z
" transform="scale(0.015625)"/>
      </defs>
      <use xlink:href="#DejaVuSans-4e"/>
      <use xlink:href="#DejaVuSans-6f" x="74.804688"/>
      <use xlink:href="#DejaVuSans-20" x="135.986328"/>
      <use xlink:href="#DejaVuSans-4c" x="167.773438"/>
      <use xlink:href="#DejaVuSans-33" x="223.486328"/>
     </g>
    </g>
    <g id="line2d_129">
     <path d="M 299.237188 173.787375 
L 309.237188 173.787375 
L 319.237188 173.787375 
" style="fill: none; stroke: #ff7f0e; stroke-width: 1.5; stroke-linecap: square"/>
    </g>
    <g id="text_16">
     <!-- Stacked L3 -->
     <g transform="translate(327.237188 177.287375)scale(0.1 -0.1)">
      <defs>
       <path id="DejaVuSans-53" d="M 3425 4513 
L 3425 3897 
Q 3066 4069 2747 4153 
Q 2428 4238 2131 4238 
Q 1616 4238 1336 4038 
Q 1056 3838 1056 3469 
Q 1056 3159 1242 3001 
Q 1428 2844 1947 2747 
L 2328 2669 
Q 3034 2534 3370 2195 
Q 3706 1856 3706 1288 
Q 3706 609 3251 259 
Q 2797 -91 1919 -91 
Q 1588 -91 1214 -16 
Q 841 59 441 206 
L 441 856 
Q 825 641 1194 531 
Q 1563 422 1919 422 
Q 2459 422 2753 634 
Q 3047 847 3047 1241 
Q 3047 1584 2836 1778 
Q 2625 1972 2144 2069 
L 1759 2144 
Q 1053 2284 737 2584 
Q 422 2884 422 3419 
Q 422 4038 858 4394 
Q 1294 4750 2059 4750 
Q 2388 4750 2728 4690 
Q 3069 4631 3425 4513 
z
" transform="scale(0.015625)"/>
       <path id="DejaVuSans-74" d="M 1172 4494 
L 1172 3500 
L 2356 3500 
L 2356 3053 
L 1172 3053 
L 1172 1153 
Q 1172 725 1289 603 
Q 1406 481 1766 481 
L 2356 481 
L 2356 0 
L 1766 0 
Q 1100 0 847 248 
Q 594 497 594 1153 
L 594 3053 
L 172 3053 
L 172 3500 
L 594 3500 
L 594 4494 
L 1172 4494 
z
" transform="scale(0.015625)"/>
       <path id="DejaVuSans-61" d="M 2194 1759 
Q 1497 1759 1228 1600 
Q 959 1441 959 1056 
Q 959 750 1161 570 
Q 1363 391 1709 391 
Q 2188 391 2477 730 
Q 2766 1069 2766 1631 
L 2766 1759 
L 2194 1759 
z
M 3341 1997 
L 3341 0 
L 2766 0 
L 2766 531 
Q 2569 213 2275 61 
Q 1981 -91 1556 -91 
Q 1019 -91 701 211 
Q 384 513 384 1019 
Q 384 1609 779 1909 
Q 1175 2209 1959 2209 
L 2766 2209 
L 2766 2266 
Q 2766 2663 2505 2880 
Q 2244 3097 1772 3097 
Q 1472 3097 1187 3025 
Q 903 2953 641 2809 
L 641 3341 
Q 956 3463 1253 3523 
Q 1550 3584 1831 3584 
Q 2591 3584 2966 3190 
Q 3341 2797 3341 1997 
z
" transform="scale(0.015625)"/>
       <path id="DejaVuSans-63" d="M 3122 3366 
L 3122 2828 
Q 2878 2963 2633 3030 
Q 2388 3097 2138 3097 
Q 1578 3097 1268 2742 
Q 959 2388 959 1747 
Q 959 1106 1268 751 
Q 1578 397 2138 397 
Q 2388 397 2633 464 
Q 2878 531 3122 666 
L 3122 134 
Q 2881 22 2623 -34 
Q 2366 -91 2075 -91 
Q 1284 -91 818 406 
Q 353 903 353 1747 
Q 353 2603 823 3093 
Q 1294 3584 2113 3584 
Q 2378 3584 2631 3529 
Q 2884 3475 3122 3366 
z
" transform="scale(0.015625)"/>
       <path id="DejaVuSans-6b" d="M 581 4863 
L 1159 4863 
L 1159 1991 
L 2875 3500 
L 3609 3500 
L 1753 1863 
L 3688 0 
L 2938 0 
L 1159 1709 
L 1159 0 
L 581 0 
L 581 4863 
z
" transform="scale(0.015625)"/>
       <path id="DejaVuSans-64" d="M 2906 2969 
L 2906 4863 
L 3481 4863 
L 3481 0 
L 2906 0 
L 2906 525 
Q 2725 213 2448 61 
Q 2172 -91 1784 -91 
Q 1150 -91 751 415 
Q 353 922 353 1747 
Q 353 2572 751 3078 
Q 1150 3584 1784 3584 
Q 2172 3584 2448 3432 
Q 2725 3281 2906 2969 
z
M 947 1747 
Q 947 1113 1208 752 
Q 1469 391 1925 391 
Q 2381 391 2643 752 
Q 2906 1113 2906 1747 
Q 2906 2381 2643 2742 
Q 2381 3103 1925 3103 
Q 1469 3103 1208 2742 
Q 947 2381 947 1747 
z
" transform="scale(0.015625)"/>
      </defs>
      <use xlink:href="#DejaVuSans-53"/>
      <use xlink:href="#DejaVuSans-74" x="63.476562"/>
      <use xlink:href="#DejaVuSans-61" x="102.685547"/>
      <use xlink:href="#DejaVuSans-63" x="163.964844"/>
      <use xlink:href="#DejaVuSans-6b" x="218.945312"/>
      <use xlink:href="#DejaVuSans-65" x="273.230469"/>
      <use xlink:href="#DejaVuSans-64" x="334.753906"/>
      <use xlink:href="#DejaVuSans-20" x="398.230469"/>
      <use xlink:href="#DejaVuSans-4c" x="430.017578"/>
      <use xlink:href="#DejaVuSans-33" x="485.730469"/>
     </g>
    </g>
    <g id="line2d_130">
     <path d="M 299.237188 188.4655 
L 309.237188 188.4655 
L 319.237188 188.4655 
" style="fill: none; stroke: #2ca02c; stroke-width: 1.5; stroke-linecap: square"/>
    </g>
    <g id="text_17">
     <!-- Non-Stacked L3 -->
     <g transform="translate(327.237188 191.9655)scale(0.1 -0.1)">
      <defs>
       <path id="DejaVuSans-6e" d="M 3513 2113 
L 3513 0 
L 2938 0 
L 2938 2094 
Q 2938 2591 2744 2837 
Q 2550 3084 2163 3084 
Q 1697 3084 1428 2787 
Q 1159 2491 1159 1978 
L 1159 0 
L 581 0 
L 581 3500 
L 1159 3500 
L 1159 2956 
Q 1366 3272 1645 3428 
Q 1925 3584 2291 3584 
Q 2894 3584 3203 3211 
Q 3513 2838 3513 2113 
z
" transform="scale(0.015625)"/>
       <path id="DejaVuSans-2d" d="M 313 2009 
L 1997 2009 
L 1997 1497 
L 313 1497 
L 313 2009 
z
" transform="scale(0.015625)"/>
      </defs>
      <use xlink:href="#DejaVuSans-4e"/>
      <use xlink:href="#DejaVuSans-6f" x="74.804688"/>
      <use xlink:href="#DejaVuSans-6e" x="135.986328"/>
      <use xlink:href="#DejaVuSans-2d" x="199.365234"/>
      <use xlink:href="#DejaVuSans-53" x="235.449219"/>
      <use xlink:href="#DejaVuSans-74" x="298.925781"/>
      <use xlink:href="#DejaVuSans-61" x="338.134766"/>
      <use xlink:href="#DejaVuSans-63" x="399.414062"/>
      <use xlink:href="#DejaVuSans-6b" x="454.394531"/>
      <use xlink:href="#DejaVuSans-65" x="508.679688"/>
      <use xlink:href="#DejaVuSans-64" x="570.203125"/>
      <use xlink:href="#DejaVuSans-20" x="633.679688"/>
      <use xlink:href="#DejaVuSans-4c" x="665.466797"/>
      <use xlink:href="#DejaVuSans-33" x="721.179688"/>
     </g>
    </g>
   </g>
  </g>
 </g>
 <defs>
  <clipPath id="p6d2a6d4c4f">
   <rect x="57.6" y="41.472" width="357.12" height="266.112"/>
  </clipPath>
 </defs>
</svg>
