<?xml version="1.0" encoding="utf-8" standalone="no"?>
<!DOCTYPE svg PUBLIC "-//W3C//DTD SVG 1.1//EN"
  "http://www.w3.org/Graphics/SVG/1.1/DTD/svg11.dtd">
<svg xmlns:xlink="http://www.w3.org/1999/xlink" width="460.8pt" height="345.6pt" viewBox="0 0 460.8 345.6" xmlns="http://www.w3.org/2000/svg" version="1.1">
 <metadata>
  <rdf:RDF xmlns:dc="http://purl.org/dc/elements/1.1/" xmlns:cc="http://creativecommons.org/ns#" xmlns:rdf="http://www.w3.org/1999/02/22-rdf-syntax-ns#">
   <cc:Work>
    <dc:type rdf:resource="http://purl.org/dc/dcmitype/StillImage"/>
    <dc:date>2022-06-22T16:11:51.507432</dc:date>
    <dc:format>image/svg+xml</dc:format>
    <dc:creator>
     <cc:Agent>
      <dc:title>Matplotlib v3.5.2, https://matplotlib.org/</dc:title>
     </cc:Agent>
    </dc:creator>
   </cc:Work>
  </rdf:RDF>
 </metadata>
 <defs>
  <style type="text/css">*{stroke-linejoin: round; stroke-linecap: butt}</style>
 </defs>
 <g id="figure_1">
  <g id="patch_1">
   <path d="M 0 345.6 
L 460.8 345.6 
L 460.8 0 
L 0 0 
z
" style="fill: #ffffff"/>
  </g>
  <g id="axes_1">
   <g id="patch_2">
    <path d="M 57.6 307.584 
L 414.72 307.584 
L 414.72 41.472 
L 57.6 41.472 
z
" style="fill: #ffffff"/>
   </g>
   <g id="matplotlib.axis_1">
    <g id="xtick_1">
     <g id="line2d_1">
      <path d="M 73.832727 307.584 
L 73.832727 41.472 
" clip-path="url(#p378e007c60)" style="fill: none; stroke: #b0b0b0; stroke-width: 0.8; stroke-linecap: square"/>
     </g>
     <g id="line2d_2">
      <defs>
       <path id="mff22b2699a" d="M 0 0 
L 0 3.5 
" style="stroke: #000000; stroke-width: 0.8"/>
      </defs>
      <g>
       <use xlink:href="#mff22b2699a" x="73.832727" y="307.584" style="stroke: #000000; stroke-width: 0.8"/>
      </g>
     </g>
     <g id="text_1">
      <!-- 0 -->
      <g transform="translate(70.651477 322.182437)scale(0.1 -0.1)">
       <defs>
        <path id="DejaVuSans-30" d="M 2034 4250 
Q 1547 4250 1301 3770 
Q 1056 3291 1056 2328 
Q 1056 1369 1301 889 
Q 1547 409 2034 409 
Q 2525 409 2770 889 
Q 3016 1369 3016 2328 
Q 3016 3291 2770 3770 
Q 2525 4250 2034 4250 
z
M 2034 4750 
Q 2819 4750 3233 4129 
Q 3647 3509 3647 2328 
Q 3647 1150 3233 529 
Q 2819 -91 2034 -91 
Q 1250 -91 836 529 
Q 422 1150 422 2328 
Q 422 3509 836 4129 
Q 1250 4750 2034 4750 
z
" transform="scale(0.015625)"/>
       </defs>
       <use xlink:href="#DejaVuSans-30"/>
      </g>
     </g>
    </g>
    <g id="xtick_2">
     <g id="line2d_3">
      <path d="M 123.322749 307.584 
L 123.322749 41.472 
" clip-path="url(#p378e007c60)" style="fill: none; stroke: #b0b0b0; stroke-width: 0.8; stroke-linecap: square"/>
     </g>
     <g id="line2d_4">
      <g>
       <use xlink:href="#mff22b2699a" x="123.322749" y="307.584" style="stroke: #000000; stroke-width: 0.8"/>
      </g>
     </g>
     <g id="text_2">
      <!-- 25 -->
      <g transform="translate(116.960249 322.182437)scale(0.1 -0.1)">
       <defs>
        <path id="DejaVuSans-32" d="M 1228 531 
L 3431 531 
L 3431 0 
L 469 0 
L 469 531 
Q 828 903 1448 1529 
Q 2069 2156 2228 2338 
Q 2531 2678 2651 2914 
Q 2772 3150 2772 3378 
Q 2772 3750 2511 3984 
Q 2250 4219 1831 4219 
Q 1534 4219 1204 4116 
Q 875 4013 500 3803 
L 500 4441 
Q 881 4594 1212 4672 
Q 1544 4750 1819 4750 
Q 2544 4750 2975 4387 
Q 3406 4025 3406 3419 
Q 3406 3131 3298 2873 
Q 3191 2616 2906 2266 
Q 2828 2175 2409 1742 
Q 1991 1309 1228 531 
z
" transform="scale(0.015625)"/>
        <path id="DejaVuSans-35" d="M 691 4666 
L 3169 4666 
L 3169 4134 
L 1269 4134 
L 1269 2991 
Q 1406 3038 1543 3061 
Q 1681 3084 1819 3084 
Q 2600 3084 3056 2656 
Q 3513 2228 3513 1497 
Q 3513 744 3044 326 
Q 2575 -91 1722 -91 
Q 1428 -91 1123 -41 
Q 819 9 494 109 
L 494 744 
Q 775 591 1075 516 
Q 1375 441 1709 441 
Q 2250 441 2565 725 
Q 2881 1009 2881 1497 
Q 2881 1984 2565 2268 
Q 2250 2553 1709 2553 
Q 1456 2553 1204 2497 
Q 953 2441 691 2322 
L 691 4666 
z
" transform="scale(0.015625)"/>
       </defs>
       <use xlink:href="#DejaVuSans-32"/>
       <use xlink:href="#DejaVuSans-35" x="63.623047"/>
      </g>
     </g>
    </g>
    <g id="xtick_3">
     <g id="line2d_5">
      <path d="M 172.812772 307.584 
L 172.812772 41.472 
" clip-path="url(#p378e007c60)" style="fill: none; stroke: #b0b0b0; stroke-width: 0.8; stroke-linecap: square"/>
     </g>
     <g id="line2d_6">
      <g>
       <use xlink:href="#mff22b2699a" x="172.812772" y="307.584" style="stroke: #000000; stroke-width: 0.8"/>
      </g>
     </g>
     <g id="text_3">
      <!-- 50 -->
      <g transform="translate(166.450272 322.182437)scale(0.1 -0.1)">
       <use xlink:href="#DejaVuSans-35"/>
       <use xlink:href="#DejaVuSans-30" x="63.623047"/>
      </g>
     </g>
    </g>
    <g id="xtick_4">
     <g id="line2d_7">
      <path d="M 222.302794 307.584 
L 222.302794 41.472 
" clip-path="url(#p378e007c60)" style="fill: none; stroke: #b0b0b0; stroke-width: 0.8; stroke-linecap: square"/>
     </g>
     <g id="line2d_8">
      <g>
       <use xlink:href="#mff22b2699a" x="222.302794" y="307.584" style="stroke: #000000; stroke-width: 0.8"/>
      </g>
     </g>
     <g id="text_4">
      <!-- 75 -->
      <g transform="translate(215.940294 322.182437)scale(0.1 -0.1)">
       <defs>
        <path id="DejaVuSans-37" d="M 525 4666 
L 3525 4666 
L 3525 4397 
L 1831 0 
L 1172 0 
L 2766 4134 
L 525 4134 
L 525 4666 
z
" transform="scale(0.015625)"/>
       </defs>
       <use xlink:href="#DejaVuSans-37"/>
       <use xlink:href="#DejaVuSans-35" x="63.623047"/>
      </g>
     </g>
    </g>
    <g id="xtick_5">
     <g id="line2d_9">
      <path d="M 271.792816 307.584 
L 271.792816 41.472 
" clip-path="url(#p378e007c60)" style="fill: none; stroke: #b0b0b0; stroke-width: 0.8; stroke-linecap: square"/>
     </g>
     <g id="line2d_10">
      <g>
       <use xlink:href="#mff22b2699a" x="271.792816" y="307.584" style="stroke: #000000; stroke-width: 0.8"/>
      </g>
     </g>
     <g id="text_5">
      <!-- 100 -->
      <g transform="translate(262.249066 322.182437)scale(0.1 -0.1)">
       <defs>
        <path id="DejaVuSans-31" d="M 794 531 
L 1825 531 
L 1825 4091 
L 703 3866 
L 703 4441 
L 1819 4666 
L 2450 4666 
L 2450 531 
L 3481 531 
L 3481 0 
L 794 0 
L 794 531 
z
" transform="scale(0.015625)"/>
       </defs>
       <use xlink:href="#DejaVuSans-31"/>
       <use xlink:href="#DejaVuSans-30" x="63.623047"/>
       <use xlink:href="#DejaVuSans-30" x="127.246094"/>
      </g>
     </g>
    </g>
    <g id="xtick_6">
     <g id="line2d_11">
      <path d="M 321.282838 307.584 
L 321.282838 41.472 
" clip-path="url(#p378e007c60)" style="fill: none; stroke: #b0b0b0; stroke-width: 0.8; stroke-linecap: square"/>
     </g>
     <g id="line2d_12">
      <g>
       <use xlink:href="#mff22b2699a" x="321.282838" y="307.584" style="stroke: #000000; stroke-width: 0.8"/>
      </g>
     </g>
     <g id="text_6">
      <!-- 125 -->
      <g transform="translate(311.739088 322.182437)scale(0.1 -0.1)">
       <use xlink:href="#DejaVuSans-31"/>
       <use xlink:href="#DejaVuSans-32" x="63.623047"/>
       <use xlink:href="#DejaVuSans-35" x="127.246094"/>
      </g>
     </g>
    </g>
    <g id="xtick_7">
     <g id="line2d_13">
      <path d="M 370.77286 307.584 
L 370.77286 41.472 
" clip-path="url(#p378e007c60)" style="fill: none; stroke: #b0b0b0; stroke-width: 0.8; stroke-linecap: square"/>
     </g>
     <g id="line2d_14">
      <g>
       <use xlink:href="#mff22b2699a" x="370.77286" y="307.584" style="stroke: #000000; stroke-width: 0.8"/>
      </g>
     </g>
     <g id="text_7">
      <!-- 150 -->
      <g transform="translate(361.22911 322.182437)scale(0.1 -0.1)">
       <use xlink:href="#DejaVuSans-31"/>
       <use xlink:href="#DejaVuSans-35" x="63.623047"/>
       <use xlink:href="#DejaVuSans-30" x="127.246094"/>
      </g>
     </g>
    </g>
    <g id="xtick_8">
     <g id="line2d_15">
      <path d="M 63.934723 307.584 
L 63.934723 41.472 
" clip-path="url(#p378e007c60)" style="fill: none; stroke-dasharray: 0.8,1.32; stroke-dashoffset: 0; stroke: #b0b0b0; stroke-width: 0.8"/>
     </g>
     <g id="line2d_16">
      <defs>
       <path id="m162ea3c2f8" d="M 0 0 
L 0 2 
" style="stroke: #000000; stroke-width: 0.6"/>
      </defs>
      <g>
       <use xlink:href="#m162ea3c2f8" x="63.934723" y="307.584" style="stroke: #000000; stroke-width: 0.6"/>
      </g>
     </g>
    </g>
    <g id="xtick_9">
     <g id="line2d_17">
      <path d="M 83.730732 307.584 
L 83.730732 41.472 
" clip-path="url(#p378e007c60)" style="fill: none; stroke-dasharray: 0.8,1.32; stroke-dashoffset: 0; stroke: #b0b0b0; stroke-width: 0.8"/>
     </g>
     <g id="line2d_18">
      <g>
       <use xlink:href="#m162ea3c2f8" x="83.730732" y="307.584" style="stroke: #000000; stroke-width: 0.6"/>
      </g>
     </g>
    </g>
    <g id="xtick_10">
     <g id="line2d_19">
      <path d="M 93.628736 307.584 
L 93.628736 41.472 
" clip-path="url(#p378e007c60)" style="fill: none; stroke-dasharray: 0.8,1.32; stroke-dashoffset: 0; stroke: #b0b0b0; stroke-width: 0.8"/>
     </g>
     <g id="line2d_20">
      <g>
       <use xlink:href="#m162ea3c2f8" x="93.628736" y="307.584" style="stroke: #000000; stroke-width: 0.6"/>
      </g>
     </g>
    </g>
    <g id="xtick_11">
     <g id="line2d_21">
      <path d="M 103.526741 307.584 
L 103.526741 41.472 
" clip-path="url(#p378e007c60)" style="fill: none; stroke-dasharray: 0.8,1.32; stroke-dashoffset: 0; stroke: #b0b0b0; stroke-width: 0.8"/>
     </g>
     <g id="line2d_22">
      <g>
       <use xlink:href="#m162ea3c2f8" x="103.526741" y="307.584" style="stroke: #000000; stroke-width: 0.6"/>
      </g>
     </g>
    </g>
    <g id="xtick_12">
     <g id="line2d_23">
      <path d="M 113.424745 307.584 
L 113.424745 41.472 
" clip-path="url(#p378e007c60)" style="fill: none; stroke-dasharray: 0.8,1.32; stroke-dashoffset: 0; stroke: #b0b0b0; stroke-width: 0.8"/>
     </g>
     <g id="line2d_24">
      <g>
       <use xlink:href="#m162ea3c2f8" x="113.424745" y="307.584" style="stroke: #000000; stroke-width: 0.6"/>
      </g>
     </g>
    </g>
    <g id="xtick_13">
     <g id="line2d_25">
      <path d="M 133.220754 307.584 
L 133.220754 41.472 
" clip-path="url(#p378e007c60)" style="fill: none; stroke-dasharray: 0.8,1.32; stroke-dashoffset: 0; stroke: #b0b0b0; stroke-width: 0.8"/>
     </g>
     <g id="line2d_26">
      <g>
       <use xlink:href="#m162ea3c2f8" x="133.220754" y="307.584" style="stroke: #000000; stroke-width: 0.6"/>
      </g>
     </g>
    </g>
    <g id="xtick_14">
     <g id="line2d_27">
      <path d="M 143.118758 307.584 
L 143.118758 41.472 
" clip-path="url(#p378e007c60)" style="fill: none; stroke-dasharray: 0.8,1.32; stroke-dashoffset: 0; stroke: #b0b0b0; stroke-width: 0.8"/>
     </g>
     <g id="line2d_28">
      <g>
       <use xlink:href="#m162ea3c2f8" x="143.118758" y="307.584" style="stroke: #000000; stroke-width: 0.6"/>
      </g>
     </g>
    </g>
    <g id="xtick_15">
     <g id="line2d_29">
      <path d="M 153.016763 307.584 
L 153.016763 41.472 
" clip-path="url(#p378e007c60)" style="fill: none; stroke-dasharray: 0.8,1.32; stroke-dashoffset: 0; stroke: #b0b0b0; stroke-width: 0.8"/>
     </g>
     <g id="line2d_30">
      <g>
       <use xlink:href="#m162ea3c2f8" x="153.016763" y="307.584" style="stroke: #000000; stroke-width: 0.6"/>
      </g>
     </g>
    </g>
    <g id="xtick_16">
     <g id="line2d_31">
      <path d="M 162.914767 307.584 
L 162.914767 41.472 
" clip-path="url(#p378e007c60)" style="fill: none; stroke-dasharray: 0.8,1.32; stroke-dashoffset: 0; stroke: #b0b0b0; stroke-width: 0.8"/>
     </g>
     <g id="line2d_32">
      <g>
       <use xlink:href="#m162ea3c2f8" x="162.914767" y="307.584" style="stroke: #000000; stroke-width: 0.6"/>
      </g>
     </g>
    </g>
    <g id="xtick_17">
     <g id="line2d_33">
      <path d="M 182.710776 307.584 
L 182.710776 41.472 
" clip-path="url(#p378e007c60)" style="fill: none; stroke-dasharray: 0.8,1.32; stroke-dashoffset: 0; stroke: #b0b0b0; stroke-width: 0.8"/>
     </g>
     <g id="line2d_34">
      <g>
       <use xlink:href="#m162ea3c2f8" x="182.710776" y="307.584" style="stroke: #000000; stroke-width: 0.6"/>
      </g>
     </g>
    </g>
    <g id="xtick_18">
     <g id="line2d_35">
      <path d="M 192.60878 307.584 
L 192.60878 41.472 
" clip-path="url(#p378e007c60)" style="fill: none; stroke-dasharray: 0.8,1.32; stroke-dashoffset: 0; stroke: #b0b0b0; stroke-width: 0.8"/>
     </g>
     <g id="line2d_36">
      <g>
       <use xlink:href="#m162ea3c2f8" x="192.60878" y="307.584" style="stroke: #000000; stroke-width: 0.6"/>
      </g>
     </g>
    </g>
    <g id="xtick_19">
     <g id="line2d_37">
      <path d="M 202.506785 307.584 
L 202.506785 41.472 
" clip-path="url(#p378e007c60)" style="fill: none; stroke-dasharray: 0.8,1.32; stroke-dashoffset: 0; stroke: #b0b0b0; stroke-width: 0.8"/>
     </g>
     <g id="line2d_38">
      <g>
       <use xlink:href="#m162ea3c2f8" x="202.506785" y="307.584" style="stroke: #000000; stroke-width: 0.6"/>
      </g>
     </g>
    </g>
    <g id="xtick_20">
     <g id="line2d_39">
      <path d="M 212.404789 307.584 
L 212.404789 41.472 
" clip-path="url(#p378e007c60)" style="fill: none; stroke-dasharray: 0.8,1.32; stroke-dashoffset: 0; stroke: #b0b0b0; stroke-width: 0.8"/>
     </g>
     <g id="line2d_40">
      <g>
       <use xlink:href="#m162ea3c2f8" x="212.404789" y="307.584" style="stroke: #000000; stroke-width: 0.6"/>
      </g>
     </g>
    </g>
    <g id="xtick_21">
     <g id="line2d_41">
      <path d="M 232.200798 307.584 
L 232.200798 41.472 
" clip-path="url(#p378e007c60)" style="fill: none; stroke-dasharray: 0.8,1.32; stroke-dashoffset: 0; stroke: #b0b0b0; stroke-width: 0.8"/>
     </g>
     <g id="line2d_42">
      <g>
       <use xlink:href="#m162ea3c2f8" x="232.200798" y="307.584" style="stroke: #000000; stroke-width: 0.6"/>
      </g>
     </g>
    </g>
    <g id="xtick_22">
     <g id="line2d_43">
      <path d="M 242.098803 307.584 
L 242.098803 41.472 
" clip-path="url(#p378e007c60)" style="fill: none; stroke-dasharray: 0.8,1.32; stroke-dashoffset: 0; stroke: #b0b0b0; stroke-width: 0.8"/>
     </g>
     <g id="line2d_44">
      <g>
       <use xlink:href="#m162ea3c2f8" x="242.098803" y="307.584" style="stroke: #000000; stroke-width: 0.6"/>
      </g>
     </g>
    </g>
    <g id="xtick_23">
     <g id="line2d_45">
      <path d="M 251.996807 307.584 
L 251.996807 41.472 
" clip-path="url(#p378e007c60)" style="fill: none; stroke-dasharray: 0.8,1.32; stroke-dashoffset: 0; stroke: #b0b0b0; stroke-width: 0.8"/>
     </g>
     <g id="line2d_46">
      <g>
       <use xlink:href="#m162ea3c2f8" x="251.996807" y="307.584" style="stroke: #000000; stroke-width: 0.6"/>
      </g>
     </g>
    </g>
    <g id="xtick_24">
     <g id="line2d_47">
      <path d="M 261.894812 307.584 
L 261.894812 41.472 
" clip-path="url(#p378e007c60)" style="fill: none; stroke-dasharray: 0.8,1.32; stroke-dashoffset: 0; stroke: #b0b0b0; stroke-width: 0.8"/>
     </g>
     <g id="line2d_48">
      <g>
       <use xlink:href="#m162ea3c2f8" x="261.894812" y="307.584" style="stroke: #000000; stroke-width: 0.6"/>
      </g>
     </g>
    </g>
    <g id="xtick_25">
     <g id="line2d_49">
      <path d="M 281.69082 307.584 
L 281.69082 41.472 
" clip-path="url(#p378e007c60)" style="fill: none; stroke-dasharray: 0.8,1.32; stroke-dashoffset: 0; stroke: #b0b0b0; stroke-width: 0.8"/>
     </g>
     <g id="line2d_50">
      <g>
       <use xlink:href="#m162ea3c2f8" x="281.69082" y="307.584" style="stroke: #000000; stroke-width: 0.6"/>
      </g>
     </g>
    </g>
    <g id="xtick_26">
     <g id="line2d_51">
      <path d="M 291.588825 307.584 
L 291.588825 41.472 
" clip-path="url(#p378e007c60)" style="fill: none; stroke-dasharray: 0.8,1.32; stroke-dashoffset: 0; stroke: #b0b0b0; stroke-width: 0.8"/>
     </g>
     <g id="line2d_52">
      <g>
       <use xlink:href="#m162ea3c2f8" x="291.588825" y="307.584" style="stroke: #000000; stroke-width: 0.6"/>
      </g>
     </g>
    </g>
    <g id="xtick_27">
     <g id="line2d_53">
      <path d="M 301.486829 307.584 
L 301.486829 41.472 
" clip-path="url(#p378e007c60)" style="fill: none; stroke-dasharray: 0.8,1.32; stroke-dashoffset: 0; stroke: #b0b0b0; stroke-width: 0.8"/>
     </g>
     <g id="line2d_54">
      <g>
       <use xlink:href="#m162ea3c2f8" x="301.486829" y="307.584" style="stroke: #000000; stroke-width: 0.6"/>
      </g>
     </g>
    </g>
    <g id="xtick_28">
     <g id="line2d_55">
      <path d="M 311.384834 307.584 
L 311.384834 41.472 
" clip-path="url(#p378e007c60)" style="fill: none; stroke-dasharray: 0.8,1.32; stroke-dashoffset: 0; stroke: #b0b0b0; stroke-width: 0.8"/>
     </g>
     <g id="line2d_56">
      <g>
       <use xlink:href="#m162ea3c2f8" x="311.384834" y="307.584" style="stroke: #000000; stroke-width: 0.6"/>
      </g>
     </g>
    </g>
    <g id="xtick_29">
     <g id="line2d_57">
      <path d="M 331.180843 307.584 
L 331.180843 41.472 
" clip-path="url(#p378e007c60)" style="fill: none; stroke-dasharray: 0.8,1.32; stroke-dashoffset: 0; stroke: #b0b0b0; stroke-width: 0.8"/>
     </g>
     <g id="line2d_58">
      <g>
       <use xlink:href="#m162ea3c2f8" x="331.180843" y="307.584" style="stroke: #000000; stroke-width: 0.6"/>
      </g>
     </g>
    </g>
    <g id="xtick_30">
     <g id="line2d_59">
      <path d="M 341.078847 307.584 
L 341.078847 41.472 
" clip-path="url(#p378e007c60)" style="fill: none; stroke-dasharray: 0.8,1.32; stroke-dashoffset: 0; stroke: #b0b0b0; stroke-width: 0.8"/>
     </g>
     <g id="line2d_60">
      <g>
       <use xlink:href="#m162ea3c2f8" x="341.078847" y="307.584" style="stroke: #000000; stroke-width: 0.6"/>
      </g>
     </g>
    </g>
    <g id="xtick_31">
     <g id="line2d_61">
      <path d="M 350.976851 307.584 
L 350.976851 41.472 
" clip-path="url(#p378e007c60)" style="fill: none; stroke-dasharray: 0.8,1.32; stroke-dashoffset: 0; stroke: #b0b0b0; stroke-width: 0.8"/>
     </g>
     <g id="line2d_62">
      <g>
       <use xlink:href="#m162ea3c2f8" x="350.976851" y="307.584" style="stroke: #000000; stroke-width: 0.6"/>
      </g>
     </g>
    </g>
    <g id="xtick_32">
     <g id="line2d_63">
      <path d="M 360.874856 307.584 
L 360.874856 41.472 
" clip-path="url(#p378e007c60)" style="fill: none; stroke-dasharray: 0.8,1.32; stroke-dashoffset: 0; stroke: #b0b0b0; stroke-width: 0.8"/>
     </g>
     <g id="line2d_64">
      <g>
       <use xlink:href="#m162ea3c2f8" x="360.874856" y="307.584" style="stroke: #000000; stroke-width: 0.6"/>
      </g>
     </g>
    </g>
    <g id="xtick_33">
     <g id="line2d_65">
      <path d="M 380.670865 307.584 
L 380.670865 41.472 
" clip-path="url(#p378e007c60)" style="fill: none; stroke-dasharray: 0.8,1.32; stroke-dashoffset: 0; stroke: #b0b0b0; stroke-width: 0.8"/>
     </g>
     <g id="line2d_66">
      <g>
       <use xlink:href="#m162ea3c2f8" x="380.670865" y="307.584" style="stroke: #000000; stroke-width: 0.6"/>
      </g>
     </g>
    </g>
    <g id="xtick_34">
     <g id="line2d_67">
      <path d="M 390.568869 307.584 
L 390.568869 41.472 
" clip-path="url(#p378e007c60)" style="fill: none; stroke-dasharray: 0.8,1.32; stroke-dashoffset: 0; stroke: #b0b0b0; stroke-width: 0.8"/>
     </g>
     <g id="line2d_68">
      <g>
       <use xlink:href="#m162ea3c2f8" x="390.568869" y="307.584" style="stroke: #000000; stroke-width: 0.6"/>
      </g>
     </g>
    </g>
    <g id="xtick_35">
     <g id="line2d_69">
      <path d="M 400.466874 307.584 
L 400.466874 41.472 
" clip-path="url(#p378e007c60)" style="fill: none; stroke-dasharray: 0.8,1.32; stroke-dashoffset: 0; stroke: #b0b0b0; stroke-width: 0.8"/>
     </g>
     <g id="line2d_70">
      <g>
       <use xlink:href="#m162ea3c2f8" x="400.466874" y="307.584" style="stroke: #000000; stroke-width: 0.6"/>
      </g>
     </g>
    </g>
    <g id="xtick_36">
     <g id="line2d_71">
      <path d="M 410.364878 307.584 
L 410.364878 41.472 
" clip-path="url(#p378e007c60)" style="fill: none; stroke-dasharray: 0.8,1.32; stroke-dashoffset: 0; stroke: #b0b0b0; stroke-width: 0.8"/>
     </g>
     <g id="line2d_72">
      <g>
       <use xlink:href="#m162ea3c2f8" x="410.364878" y="307.584" style="stroke: #000000; stroke-width: 0.6"/>
      </g>
     </g>
    </g>
    <g id="text_8">
     <!-- Time (ms) -->
     <g transform="translate(210.960781 335.860562)scale(0.1 -0.1)">
      <defs>
       <path id="DejaVuSans-54" d="M -19 4666 
L 3928 4666 
L 3928 4134 
L 2272 4134 
L 2272 0 
L 1638 0 
L 1638 4134 
L -19 4134 
L -19 4666 
z
" transform="scale(0.015625)"/>
       <path id="DejaVuSans-69" d="M 603 3500 
L 1178 3500 
L 1178 0 
L 603 0 
L 603 3500 
z
M 603 4863 
L 1178 4863 
L 1178 4134 
L 603 4134 
L 603 4863 
z
" transform="scale(0.015625)"/>
       <path id="DejaVuSans-6d" d="M 3328 2828 
Q 3544 3216 3844 3400 
Q 4144 3584 4550 3584 
Q 5097 3584 5394 3201 
Q 5691 2819 5691 2113 
L 5691 0 
L 5113 0 
L 5113 2094 
Q 5113 2597 4934 2840 
Q 4756 3084 4391 3084 
Q 3944 3084 3684 2787 
Q 3425 2491 3425 1978 
L 3425 0 
L 2847 0 
L 2847 2094 
Q 2847 2600 2669 2842 
Q 2491 3084 2119 3084 
Q 1678 3084 1418 2786 
Q 1159 2488 1159 1978 
L 1159 0 
L 581 0 
L 581 3500 
L 1159 3500 
L 1159 2956 
Q 1356 3278 1631 3431 
Q 1906 3584 2284 3584 
Q 2666 3584 2933 3390 
Q 3200 3197 3328 2828 
z
" transform="scale(0.015625)"/>
       <path id="DejaVuSans-65" d="M 3597 1894 
L 3597 1613 
L 953 1613 
Q 991 1019 1311 708 
Q 1631 397 2203 397 
Q 2534 397 2845 478 
Q 3156 559 3463 722 
L 3463 178 
Q 3153 47 2828 -22 
Q 2503 -91 2169 -91 
Q 1331 -91 842 396 
Q 353 884 353 1716 
Q 353 2575 817 3079 
Q 1281 3584 2069 3584 
Q 2775 3584 3186 3129 
Q 3597 2675 3597 1894 
z
M 3022 2063 
Q 3016 2534 2758 2815 
Q 2500 3097 2075 3097 
Q 1594 3097 1305 2825 
Q 1016 2553 972 2059 
L 3022 2063 
z
" transform="scale(0.015625)"/>
       <path id="DejaVuSans-20" transform="scale(0.015625)"/>
       <path id="DejaVuSans-28" d="M 1984 4856 
Q 1566 4138 1362 3434 
Q 1159 2731 1159 2009 
Q 1159 1288 1364 580 
Q 1569 -128 1984 -844 
L 1484 -844 
Q 1016 -109 783 600 
Q 550 1309 550 2009 
Q 550 2706 781 3412 
Q 1013 4119 1484 4856 
L 1984 4856 
z
" transform="scale(0.015625)"/>
       <path id="DejaVuSans-73" d="M 2834 3397 
L 2834 2853 
Q 2591 2978 2328 3040 
Q 2066 3103 1784 3103 
Q 1356 3103 1142 2972 
Q 928 2841 928 2578 
Q 928 2378 1081 2264 
Q 1234 2150 1697 2047 
L 1894 2003 
Q 2506 1872 2764 1633 
Q 3022 1394 3022 966 
Q 3022 478 2636 193 
Q 2250 -91 1575 -91 
Q 1294 -91 989 -36 
Q 684 19 347 128 
L 347 722 
Q 666 556 975 473 
Q 1284 391 1588 391 
Q 1994 391 2212 530 
Q 2431 669 2431 922 
Q 2431 1156 2273 1281 
Q 2116 1406 1581 1522 
L 1381 1569 
Q 847 1681 609 1914 
Q 372 2147 372 2553 
Q 372 3047 722 3315 
Q 1072 3584 1716 3584 
Q 2034 3584 2315 3537 
Q 2597 3491 2834 3397 
z
" transform="scale(0.015625)"/>
       <path id="DejaVuSans-29" d="M 513 4856 
L 1013 4856 
Q 1481 4119 1714 3412 
Q 1947 2706 1947 2009 
Q 1947 1309 1714 600 
Q 1481 -109 1013 -844 
L 513 -844 
Q 928 -128 1133 580 
Q 1338 1288 1338 2009 
Q 1338 2731 1133 3434 
Q 928 4138 513 4856 
z
" transform="scale(0.015625)"/>
      </defs>
      <use xlink:href="#DejaVuSans-54"/>
      <use xlink:href="#DejaVuSans-69" x="57.958984"/>
      <use xlink:href="#DejaVuSans-6d" x="85.742188"/>
      <use xlink:href="#DejaVuSans-65" x="183.154297"/>
      <use xlink:href="#DejaVuSans-20" x="244.677734"/>
      <use xlink:href="#DejaVuSans-28" x="276.464844"/>
      <use xlink:href="#DejaVuSans-6d" x="315.478516"/>
      <use xlink:href="#DejaVuSans-73" x="412.890625"/>
      <use xlink:href="#DejaVuSans-29" x="464.990234"/>
     </g>
    </g>
   </g>
   <g id="matplotlib.axis_2">
    <g id="ytick_1">
     <g id="line2d_73">
      <path d="M 57.6 266.072262 
L 414.72 266.072262 
" clip-path="url(#p378e007c60)" style="fill: none; stroke: #b0b0b0; stroke-width: 0.8; stroke-linecap: square"/>
     </g>
     <g id="line2d_74">
      <defs>
       <path id="mb115666e37" d="M 0 0 
L -3.5 0 
" style="stroke: #000000; stroke-width: 0.8"/>
      </defs>
      <g>
       <use xlink:href="#mb115666e37" x="57.6" y="266.072262" style="stroke: #000000; stroke-width: 0.8"/>
      </g>
     </g>
     <g id="text_9">
      <!-- 3 -->
      <g transform="translate(44.2375 269.871481)scale(0.1 -0.1)">
       <defs>
        <path id="DejaVuSans-33" d="M 2597 2516 
Q 3050 2419 3304 2112 
Q 3559 1806 3559 1356 
Q 3559 666 3084 287 
Q 2609 -91 1734 -91 
Q 1441 -91 1130 -33 
Q 819 25 488 141 
L 488 750 
Q 750 597 1062 519 
Q 1375 441 1716 441 
Q 2309 441 2620 675 
Q 2931 909 2931 1356 
Q 2931 1769 2642 2001 
Q 2353 2234 1838 2234 
L 1294 2234 
L 1294 2753 
L 1863 2753 
Q 2328 2753 2575 2939 
Q 2822 3125 2822 3475 
Q 2822 3834 2567 4026 
Q 2313 4219 1838 4219 
Q 1578 4219 1281 4162 
Q 984 4106 628 3988 
L 628 4550 
Q 988 4650 1302 4700 
Q 1616 4750 1894 4750 
Q 2613 4750 3031 4423 
Q 3450 4097 3450 3541 
Q 3450 3153 3228 2886 
Q 3006 2619 2597 2516 
z
" transform="scale(0.015625)"/>
       </defs>
       <use xlink:href="#DejaVuSans-33"/>
      </g>
     </g>
    </g>
    <g id="ytick_2">
     <g id="line2d_75">
      <path d="M 57.6 219.460336 
L 414.72 219.460336 
" clip-path="url(#p378e007c60)" style="fill: none; stroke: #b0b0b0; stroke-width: 0.8; stroke-linecap: square"/>
     </g>
     <g id="line2d_76">
      <g>
       <use xlink:href="#mb115666e37" x="57.6" y="219.460336" style="stroke: #000000; stroke-width: 0.8"/>
      </g>
     </g>
     <g id="text_10">
      <!-- 4 -->
      <g transform="translate(44.2375 223.259554)scale(0.1 -0.1)">
       <defs>
        <path id="DejaVuSans-34" d="M 2419 4116 
L 825 1625 
L 2419 1625 
L 2419 4116 
z
M 2253 4666 
L 3047 4666 
L 3047 1625 
L 3713 1625 
L 3713 1100 
L 3047 1100 
L 3047 0 
L 2419 0 
L 2419 1100 
L 313 1100 
L 313 1709 
L 2253 4666 
z
" transform="scale(0.015625)"/>
       </defs>
       <use xlink:href="#DejaVuSans-34"/>
      </g>
     </g>
    </g>
    <g id="ytick_3">
     <g id="line2d_77">
      <path d="M 57.6 172.848409 
L 414.72 172.848409 
" clip-path="url(#p378e007c60)" style="fill: none; stroke: #b0b0b0; stroke-width: 0.8; stroke-linecap: square"/>
     </g>
     <g id="line2d_78">
      <g>
       <use xlink:href="#mb115666e37" x="57.6" y="172.848409" style="stroke: #000000; stroke-width: 0.8"/>
      </g>
     </g>
     <g id="text_11">
      <!-- 5 -->
      <g transform="translate(44.2375 176.647628)scale(0.1 -0.1)">
       <use xlink:href="#DejaVuSans-35"/>
      </g>
     </g>
    </g>
    <g id="ytick_4">
     <g id="line2d_79">
      <path d="M 57.6 126.236483 
L 414.72 126.236483 
" clip-path="url(#p378e007c60)" style="fill: none; stroke: #b0b0b0; stroke-width: 0.8; stroke-linecap: square"/>
     </g>
     <g id="line2d_80">
      <g>
       <use xlink:href="#mb115666e37" x="57.6" y="126.236483" style="stroke: #000000; stroke-width: 0.8"/>
      </g>
     </g>
     <g id="text_12">
      <!-- 6 -->
      <g transform="translate(44.2375 130.035701)scale(0.1 -0.1)">
       <defs>
        <path id="DejaVuSans-36" d="M 2113 2584 
Q 1688 2584 1439 2293 
Q 1191 2003 1191 1497 
Q 1191 994 1439 701 
Q 1688 409 2113 409 
Q 2538 409 2786 701 
Q 3034 994 3034 1497 
Q 3034 2003 2786 2293 
Q 2538 2584 2113 2584 
z
M 3366 4563 
L 3366 3988 
Q 3128 4100 2886 4159 
Q 2644 4219 2406 4219 
Q 1781 4219 1451 3797 
Q 1122 3375 1075 2522 
Q 1259 2794 1537 2939 
Q 1816 3084 2150 3084 
Q 2853 3084 3261 2657 
Q 3669 2231 3669 1497 
Q 3669 778 3244 343 
Q 2819 -91 2113 -91 
Q 1303 -91 875 529 
Q 447 1150 447 2328 
Q 447 3434 972 4092 
Q 1497 4750 2381 4750 
Q 2619 4750 2861 4703 
Q 3103 4656 3366 4563 
z
" transform="scale(0.015625)"/>
       </defs>
       <use xlink:href="#DejaVuSans-36"/>
      </g>
     </g>
    </g>
    <g id="ytick_5">
     <g id="line2d_81">
      <path d="M 57.6 79.624556 
L 414.72 79.624556 
" clip-path="url(#p378e007c60)" style="fill: none; stroke: #b0b0b0; stroke-width: 0.8; stroke-linecap: square"/>
     </g>
     <g id="line2d_82">
      <g>
       <use xlink:href="#mb115666e37" x="57.6" y="79.624556" style="stroke: #000000; stroke-width: 0.8"/>
      </g>
     </g>
     <g id="text_13">
      <!-- 7 -->
      <g transform="translate(44.2375 83.423775)scale(0.1 -0.1)">
       <use xlink:href="#DejaVuSans-37"/>
      </g>
     </g>
    </g>
    <g id="ytick_6">
     <g id="line2d_83">
      <path d="M 57.6 303.361803 
L 414.72 303.361803 
" clip-path="url(#p378e007c60)" style="fill: none; stroke-dasharray: 0.8,1.32; stroke-dashoffset: 0; stroke: #b0b0b0; stroke-width: 0.8"/>
     </g>
     <g id="line2d_84">
      <defs>
       <path id="mc7ee7bbf80" d="M 0 0 
L -2 0 
" style="stroke: #000000; stroke-width: 0.6"/>
      </defs>
      <g>
       <use xlink:href="#mc7ee7bbf80" x="57.6" y="303.361803" style="stroke: #000000; stroke-width: 0.6"/>
      </g>
     </g>
    </g>
    <g id="ytick_7">
     <g id="line2d_85">
      <path d="M 57.6 294.039418 
L 414.72 294.039418 
" clip-path="url(#p378e007c60)" style="fill: none; stroke-dasharray: 0.8,1.32; stroke-dashoffset: 0; stroke: #b0b0b0; stroke-width: 0.8"/>
     </g>
     <g id="line2d_86">
      <g>
       <use xlink:href="#mc7ee7bbf80" x="57.6" y="294.039418" style="stroke: #000000; stroke-width: 0.6"/>
      </g>
     </g>
    </g>
    <g id="ytick_8">
     <g id="line2d_87">
      <path d="M 57.6 284.717033 
L 414.72 284.717033 
" clip-path="url(#p378e007c60)" style="fill: none; stroke-dasharray: 0.8,1.32; stroke-dashoffset: 0; stroke: #b0b0b0; stroke-width: 0.8"/>
     </g>
     <g id="line2d_88">
      <g>
       <use xlink:href="#mc7ee7bbf80" x="57.6" y="284.717033" style="stroke: #000000; stroke-width: 0.6"/>
      </g>
     </g>
    </g>
    <g id="ytick_9">
     <g id="line2d_89">
      <path d="M 57.6 275.394647 
L 414.72 275.394647 
" clip-path="url(#p378e007c60)" style="fill: none; stroke-dasharray: 0.8,1.32; stroke-dashoffset: 0; stroke: #b0b0b0; stroke-width: 0.8"/>
     </g>
     <g id="line2d_90">
      <g>
       <use xlink:href="#mc7ee7bbf80" x="57.6" y="275.394647" style="stroke: #000000; stroke-width: 0.6"/>
      </g>
     </g>
    </g>
    <g id="ytick_10">
     <g id="line2d_91">
      <path d="M 57.6 256.749877 
L 414.72 256.749877 
" clip-path="url(#p378e007c60)" style="fill: none; stroke-dasharray: 0.8,1.32; stroke-dashoffset: 0; stroke: #b0b0b0; stroke-width: 0.8"/>
     </g>
     <g id="line2d_92">
      <g>
       <use xlink:href="#mc7ee7bbf80" x="57.6" y="256.749877" style="stroke: #000000; stroke-width: 0.6"/>
      </g>
     </g>
    </g>
    <g id="ytick_11">
     <g id="line2d_93">
      <path d="M 57.6 247.427491 
L 414.72 247.427491 
" clip-path="url(#p378e007c60)" style="fill: none; stroke-dasharray: 0.8,1.32; stroke-dashoffset: 0; stroke: #b0b0b0; stroke-width: 0.8"/>
     </g>
     <g id="line2d_94">
      <g>
       <use xlink:href="#mc7ee7bbf80" x="57.6" y="247.427491" style="stroke: #000000; stroke-width: 0.6"/>
      </g>
     </g>
    </g>
    <g id="ytick_12">
     <g id="line2d_95">
      <path d="M 57.6 238.105106 
L 414.72 238.105106 
" clip-path="url(#p378e007c60)" style="fill: none; stroke-dasharray: 0.8,1.32; stroke-dashoffset: 0; stroke: #b0b0b0; stroke-width: 0.8"/>
     </g>
     <g id="line2d_96">
      <g>
       <use xlink:href="#mc7ee7bbf80" x="57.6" y="238.105106" style="stroke: #000000; stroke-width: 0.6"/>
      </g>
     </g>
    </g>
    <g id="ytick_13">
     <g id="line2d_97">
      <path d="M 57.6 228.782721 
L 414.72 228.782721 
" clip-path="url(#p378e007c60)" style="fill: none; stroke-dasharray: 0.8,1.32; stroke-dashoffset: 0; stroke: #b0b0b0; stroke-width: 0.8"/>
     </g>
     <g id="line2d_98">
      <g>
       <use xlink:href="#mc7ee7bbf80" x="57.6" y="228.782721" style="stroke: #000000; stroke-width: 0.6"/>
      </g>
     </g>
    </g>
    <g id="ytick_14">
     <g id="line2d_99">
      <path d="M 57.6 210.13795 
L 414.72 210.13795 
" clip-path="url(#p378e007c60)" style="fill: none; stroke-dasharray: 0.8,1.32; stroke-dashoffset: 0; stroke: #b0b0b0; stroke-width: 0.8"/>
     </g>
     <g id="line2d_100">
      <g>
       <use xlink:href="#mc7ee7bbf80" x="57.6" y="210.13795" style="stroke: #000000; stroke-width: 0.6"/>
      </g>
     </g>
    </g>
    <g id="ytick_15">
     <g id="line2d_101">
      <path d="M 57.6 200.815565 
L 414.72 200.815565 
" clip-path="url(#p378e007c60)" style="fill: none; stroke-dasharray: 0.8,1.32; stroke-dashoffset: 0; stroke: #b0b0b0; stroke-width: 0.8"/>
     </g>
     <g id="line2d_102">
      <g>
       <use xlink:href="#mc7ee7bbf80" x="57.6" y="200.815565" style="stroke: #000000; stroke-width: 0.6"/>
      </g>
     </g>
    </g>
    <g id="ytick_16">
     <g id="line2d_103">
      <path d="M 57.6 191.49318 
L 414.72 191.49318 
" clip-path="url(#p378e007c60)" style="fill: none; stroke-dasharray: 0.8,1.32; stroke-dashoffset: 0; stroke: #b0b0b0; stroke-width: 0.8"/>
     </g>
     <g id="line2d_104">
      <g>
       <use xlink:href="#mc7ee7bbf80" x="57.6" y="191.49318" style="stroke: #000000; stroke-width: 0.6"/>
      </g>
     </g>
    </g>
    <g id="ytick_17">
     <g id="line2d_105">
      <path d="M 57.6 182.170794 
L 414.72 182.170794 
" clip-path="url(#p378e007c60)" style="fill: none; stroke-dasharray: 0.8,1.32; stroke-dashoffset: 0; stroke: #b0b0b0; stroke-width: 0.8"/>
     </g>
     <g id="line2d_106">
      <g>
       <use xlink:href="#mc7ee7bbf80" x="57.6" y="182.170794" style="stroke: #000000; stroke-width: 0.6"/>
      </g>
     </g>
    </g>
    <g id="ytick_18">
     <g id="line2d_107">
      <path d="M 57.6 163.526024 
L 414.72 163.526024 
" clip-path="url(#p378e007c60)" style="fill: none; stroke-dasharray: 0.8,1.32; stroke-dashoffset: 0; stroke: #b0b0b0; stroke-width: 0.8"/>
     </g>
     <g id="line2d_108">
      <g>
       <use xlink:href="#mc7ee7bbf80" x="57.6" y="163.526024" style="stroke: #000000; stroke-width: 0.6"/>
      </g>
     </g>
    </g>
    <g id="ytick_19">
     <g id="line2d_109">
      <path d="M 57.6 154.203639 
L 414.72 154.203639 
" clip-path="url(#p378e007c60)" style="fill: none; stroke-dasharray: 0.8,1.32; stroke-dashoffset: 0; stroke: #b0b0b0; stroke-width: 0.8"/>
     </g>
     <g id="line2d_110">
      <g>
       <use xlink:href="#mc7ee7bbf80" x="57.6" y="154.203639" style="stroke: #000000; stroke-width: 0.6"/>
      </g>
     </g>
    </g>
    <g id="ytick_20">
     <g id="line2d_111">
      <path d="M 57.6 144.881253 
L 414.72 144.881253 
" clip-path="url(#p378e007c60)" style="fill: none; stroke-dasharray: 0.8,1.32; stroke-dashoffset: 0; stroke: #b0b0b0; stroke-width: 0.8"/>
     </g>
     <g id="line2d_112">
      <g>
       <use xlink:href="#mc7ee7bbf80" x="57.6" y="144.881253" style="stroke: #000000; stroke-width: 0.6"/>
      </g>
     </g>
    </g>
    <g id="ytick_21">
     <g id="line2d_113">
      <path d="M 57.6 135.558868 
L 414.72 135.558868 
" clip-path="url(#p378e007c60)" style="fill: none; stroke-dasharray: 0.8,1.32; stroke-dashoffset: 0; stroke: #b0b0b0; stroke-width: 0.8"/>
     </g>
     <g id="line2d_114">
      <g>
       <use xlink:href="#mc7ee7bbf80" x="57.6" y="135.558868" style="stroke: #000000; stroke-width: 0.6"/>
      </g>
     </g>
    </g>
    <g id="ytick_22">
     <g id="line2d_115">
      <path d="M 57.6 116.914097 
L 414.72 116.914097 
" clip-path="url(#p378e007c60)" style="fill: none; stroke-dasharray: 0.8,1.32; stroke-dashoffset: 0; stroke: #b0b0b0; stroke-width: 0.8"/>
     </g>
     <g id="line2d_116">
      <g>
       <use xlink:href="#mc7ee7bbf80" x="57.6" y="116.914097" style="stroke: #000000; stroke-width: 0.6"/>
      </g>
     </g>
    </g>
    <g id="ytick_23">
     <g id="line2d_117">
      <path d="M 57.6 107.591712 
L 414.72 107.591712 
" clip-path="url(#p378e007c60)" style="fill: none; stroke-dasharray: 0.8,1.32; stroke-dashoffset: 0; stroke: #b0b0b0; stroke-width: 0.8"/>
     </g>
     <g id="line2d_118">
      <g>
       <use xlink:href="#mc7ee7bbf80" x="57.6" y="107.591712" style="stroke: #000000; stroke-width: 0.6"/>
      </g>
     </g>
    </g>
    <g id="ytick_24">
     <g id="line2d_119">
      <path d="M 57.6 98.269327 
L 414.72 98.269327 
" clip-path="url(#p378e007c60)" style="fill: none; stroke-dasharray: 0.8,1.32; stroke-dashoffset: 0; stroke: #b0b0b0; stroke-width: 0.8"/>
     </g>
     <g id="line2d_120">
      <g>
       <use xlink:href="#mc7ee7bbf80" x="57.6" y="98.269327" style="stroke: #000000; stroke-width: 0.6"/>
      </g>
     </g>
    </g>
    <g id="ytick_25">
     <g id="line2d_121">
      <path d="M 57.6 88.946942 
L 414.72 88.946942 
" clip-path="url(#p378e007c60)" style="fill: none; stroke-dasharray: 0.8,1.32; stroke-dashoffset: 0; stroke: #b0b0b0; stroke-width: 0.8"/>
     </g>
     <g id="line2d_122">
      <g>
       <use xlink:href="#mc7ee7bbf80" x="57.6" y="88.946942" style="stroke: #000000; stroke-width: 0.6"/>
      </g>
     </g>
    </g>
    <g id="ytick_26">
     <g id="line2d_123">
      <path d="M 57.6 70.302171 
L 414.72 70.302171 
" clip-path="url(#p378e007c60)" style="fill: none; stroke-dasharray: 0.8,1.32; stroke-dashoffset: 0; stroke: #b0b0b0; stroke-width: 0.8"/>
     </g>
     <g id="line2d_124">
      <g>
       <use xlink:href="#mc7ee7bbf80" x="57.6" y="70.302171" style="stroke: #000000; stroke-width: 0.6"/>
      </g>
     </g>
    </g>
    <g id="ytick_27">
     <g id="line2d_125">
      <path d="M 57.6 60.979786 
L 414.72 60.979786 
" clip-path="url(#p378e007c60)" style="fill: none; stroke-dasharray: 0.8,1.32; stroke-dashoffset: 0; stroke: #b0b0b0; stroke-width: 0.8"/>
     </g>
     <g id="line2d_126">
      <g>
       <use xlink:href="#mc7ee7bbf80" x="57.6" y="60.979786" style="stroke: #000000; stroke-width: 0.6"/>
      </g>
     </g>
    </g>
    <g id="ytick_28">
     <g id="line2d_127">
      <path d="M 57.6 51.6574 
L 414.72 51.6574 
" clip-path="url(#p378e007c60)" style="fill: none; stroke-dasharray: 0.8,1.32; stroke-dashoffset: 0; stroke: #b0b0b0; stroke-width: 0.8"/>
     </g>
     <g id="line2d_128">
      <g>
       <use xlink:href="#mc7ee7bbf80" x="57.6" y="51.6574" style="stroke: #000000; stroke-width: 0.6"/>
      </g>
     </g>
    </g>
    <g id="ytick_29">
     <g id="line2d_129">
      <path d="M 57.6 42.335015 
L 414.72 42.335015 
" clip-path="url(#p378e007c60)" style="fill: none; stroke-dasharray: 0.8,1.32; stroke-dashoffset: 0; stroke: #b0b0b0; stroke-width: 0.8"/>
     </g>
     <g id="line2d_130">
      <g>
       <use xlink:href="#mc7ee7bbf80" x="57.6" y="42.335015" style="stroke: #000000; stroke-width: 0.6"/>
      </g>
     </g>
    </g>
    <g id="text_14">
     <!-- Power (W) -->
     <g transform="translate(38.157812 200.076437)rotate(-90)scale(0.1 -0.1)">
      <defs>
       <path id="DejaVuSans-50" d="M 1259 4147 
L 1259 2394 
L 2053 2394 
Q 2494 2394 2734 2622 
Q 2975 2850 2975 3272 
Q 2975 3691 2734 3919 
Q 2494 4147 2053 4147 
L 1259 4147 
z
M 628 4666 
L 2053 4666 
Q 2838 4666 3239 4311 
Q 3641 3956 3641 3272 
Q 3641 2581 3239 2228 
Q 2838 1875 2053 1875 
L 1259 1875 
L 1259 0 
L 628 0 
L 628 4666 
z
" transform="scale(0.015625)"/>
       <path id="DejaVuSans-6f" d="M 1959 3097 
Q 1497 3097 1228 2736 
Q 959 2375 959 1747 
Q 959 1119 1226 758 
Q 1494 397 1959 397 
Q 2419 397 2687 759 
Q 2956 1122 2956 1747 
Q 2956 2369 2687 2733 
Q 2419 3097 1959 3097 
z
M 1959 3584 
Q 2709 3584 3137 3096 
Q 3566 2609 3566 1747 
Q 3566 888 3137 398 
Q 2709 -91 1959 -91 
Q 1206 -91 779 398 
Q 353 888 353 1747 
Q 353 2609 779 3096 
Q 1206 3584 1959 3584 
z
" transform="scale(0.015625)"/>
       <path id="DejaVuSans-77" d="M 269 3500 
L 844 3500 
L 1563 769 
L 2278 3500 
L 2956 3500 
L 3675 769 
L 4391 3500 
L 4966 3500 
L 4050 0 
L 3372 0 
L 2619 2869 
L 1863 0 
L 1184 0 
L 269 3500 
z
" transform="scale(0.015625)"/>
       <path id="DejaVuSans-72" d="M 2631 2963 
Q 2534 3019 2420 3045 
Q 2306 3072 2169 3072 
Q 1681 3072 1420 2755 
Q 1159 2438 1159 1844 
L 1159 0 
L 581 0 
L 581 3500 
L 1159 3500 
L 1159 2956 
Q 1341 3275 1631 3429 
Q 1922 3584 2338 3584 
Q 2397 3584 2469 3576 
Q 2541 3569 2628 3553 
L 2631 2963 
z
" transform="scale(0.015625)"/>
       <path id="DejaVuSans-57" d="M 213 4666 
L 850 4666 
L 1831 722 
L 2809 4666 
L 3519 4666 
L 4500 722 
L 5478 4666 
L 6119 4666 
L 4947 0 
L 4153 0 
L 3169 4050 
L 2175 0 
L 1381 0 
L 213 4666 
z
" transform="scale(0.015625)"/>
      </defs>
      <use xlink:href="#DejaVuSans-50"/>
      <use xlink:href="#DejaVuSans-6f" x="56.677734"/>
      <use xlink:href="#DejaVuSans-77" x="117.859375"/>
      <use xlink:href="#DejaVuSans-65" x="199.646484"/>
      <use xlink:href="#DejaVuSans-72" x="261.169922"/>
      <use xlink:href="#DejaVuSans-20" x="302.283203"/>
      <use xlink:href="#DejaVuSans-28" x="334.070312"/>
      <use xlink:href="#DejaVuSans-57" x="373.083984"/>
      <use xlink:href="#DejaVuSans-29" x="471.960938"/>
     </g>
    </g>
   </g>
   <g id="line2d_131">
    <path d="M 73.832727 295.488 
L 75.812328 268.508434 
L 77.791929 64.723388 
L 79.77153 66.175326 
L 81.751131 67.086601 
L 83.730732 65.177609 
L 85.710333 68.356449 
L 87.689933 66.186082 
L 89.669534 67.244755 
L 91.649135 67.566843 
L 93.628736 67.565795 
L 95.608337 67.188704 
L 97.587938 67.248717 
L 99.567539 67.920744 
L 101.54714 67.746183 
L 103.526741 65.060986 
L 105.506341 65.038496 
L 107.485942 64.372878 
L 109.465543 64.661405 
L 111.445144 63.369439 
L 113.424745 64.217543 
L 115.404346 63.678709 
L 117.383947 64.065239 
L 119.363548 63.579193 
L 121.343149 64.359826 
L 123.322749 63.674281 
L 125.30235 64.444427 
L 127.281951 64.45841 
L 129.261552 66.045547 
L 131.241153 62.799142 
L 133.220754 64.351786 
L 135.200355 62.851581 
L 137.179956 63.016121 
L 139.159557 62.286295 
L 141.139157 63.263397 
L 143.118758 63.010528 
L 145.098359 62.103226 
L 149.057561 63.166095 
L 151.037162 62.37579 
L 153.016763 63.814234 
L 154.996364 63.07963 
L 156.975965 63.968869 
L 158.955565 61.378761 
L 160.935166 63.345784 
L 162.914767 62.213114 
L 164.894368 60.745304 
L 166.873969 61.533629 
L 168.85357 60.966595 
L 170.833171 62.068734 
L 172.812772 61.471635 
L 174.792373 62.190507 
L 176.771973 62.089476 
L 178.751574 61.445299 
L 180.731175 62.749035 
L 182.710776 62.954011 
L 184.690377 61.866321 
L 186.669978 61.311173 
L 188.649579 61.052127 
L 190.62918 61.349745 
L 192.60878 59.780787 
L 194.588381 61.036512 
L 196.567982 60.057196 
L 198.547583 60.460389 
L 200.527184 61.045369 
L 202.506785 60.626677 
L 204.486386 60.477519 
L 206.465987 61.261881 
L 208.445588 61.163996 
L 210.425188 63.977375 
L 212.404789 64.397465 
L 214.38439 65.931697 
L 216.363991 64.101247 
L 218.343592 64.051255 
L 222.302794 64.191907 
L 224.282395 64.627612 
L 226.261996 64.131078 
L 228.241596 63.784052 
L 230.221197 64.349921 
L 232.200798 63.073221 
L 234.180399 65.647015 
L 236.16 64.17466 
L 238.139601 63.965256 
L 240.119202 57.474779 
L 242.098803 59.289847 
L 244.078404 59.038725 
L 246.058004 57.455668 
L 248.037605 58.791799 
L 250.017206 57.8112 
L 251.996807 58.344907 
L 253.976408 58.414708 
L 255.956009 58.849015 
L 257.93561 58.464233 
L 259.915211 58.372175 
L 261.894812 59.198837 
L 263.874412 60.924178 
L 265.854013 63.495175 
L 267.833614 65.021133 
L 269.813215 63.889978 
L 271.792816 64.738315 
L 273.772417 63.068326 
L 275.752018 64.260077 
L 277.731619 63.563811 
L 279.71122 63.424674 
L 281.69082 64.22034 
L 283.670421 64.08738 
L 285.650022 63.772982 
L 287.629623 64.419023 
L 289.609224 64.320672 
L 291.588825 64.929307 
L 293.568426 61.634194 
L 295.548027 63.263397 
L 297.527627 62.131194 
L 299.507228 61.418264 
L 301.486829 61.378877 
L 303.46643 61.64037 
L 305.446031 62.039485 
L 307.425632 60.978597 
L 309.405233 62.133058 
L 311.384834 62.030046 
L 313.364435 61.460098 
L 315.344035 62.284314 
L 317.323636 61.946144 
L 319.303237 64.904021 
L 321.282838 62.521335 
L 323.262439 63.575231 
L 325.24204 63.202569 
L 327.221641 61.40731 
L 329.201242 62.681447 
L 331.180843 61.498903 
L 333.160443 63.097575 
L 335.140044 62.144128 
L 337.119645 62.713143 
L 339.099246 62.884675 
L 341.078847 62.29352 
L 343.058448 63.005866 
L 345.038049 73.593171 
L 347.01765 281.835064 
L 348.997251 282.152957 
L 350.976851 281.791249 
L 352.956452 282.12534 
L 354.936053 281.467995 
L 356.915654 281.889017 
L 358.895255 281.890998 
L 360.874856 281.399592 
L 362.854457 282.042953 
L 364.834058 281.9319 
L 366.813659 281.509246 
L 368.793259 282.26436 
L 370.77286 281.847066 
L 372.752461 283.698609 
L 374.732062 283.911975 
L 376.711663 284.444399 
L 378.691264 284.159484 
L 380.670865 283.639994 
L 382.650466 283.986787 
L 384.630067 283.869907 
L 386.609667 283.960218 
L 388.589268 283.895427 
L 394.528071 284.007879 
L 396.507672 284.310157 
L 398.487273 283.947167 
L 398.487273 283.947167 
" clip-path="url(#p378e007c60)" style="fill: none; stroke: #1f77b4; stroke-width: 1.5; stroke-linecap: square"/>
   </g>
   <g id="line2d_132">
    <path d="M 73.832727 277.174524 
L 75.812328 267.047966 
L 77.791929 54.988603 
L 79.77153 55.35798 
L 81.751131 57.017609 
L 83.730732 56.096557 
L 85.710333 58.050436 
L 87.689933 56.537063 
L 89.669534 56.921845 
L 91.649135 57.495404 
L 93.628736 56.97976 
L 95.608337 56.963329 
L 97.587938 57.865736 
L 99.567539 57.784049 
L 101.54714 58.056729 
L 103.526741 55.518942 
L 105.506341 56.835146 
L 107.485942 56.582743 
L 109.465543 55.11167 
L 111.445144 55.591657 
L 113.424745 54.824191 
L 115.404346 56.295497 
L 117.383947 55.040005 
L 119.363548 55.505075 
L 121.343149 55.817025 
L 123.322749 55.408822 
L 125.30235 56.001958 
L 127.281951 56.850062 
L 129.261552 55.616128 
L 131.241153 56.13119 
L 133.220754 55.53817 
L 135.200355 55.367453 
L 137.179956 54.785504 
L 139.159557 55.25675 
L 141.139157 54.977545 
L 143.118758 54.467494 
L 145.098359 54.583208 
L 147.07796 55.234493 
L 149.057561 54.795059 
L 151.037162 55.772511 
L 153.016763 55.276211 
L 154.996364 57.016583 
L 156.975965 55.298701 
L 158.955565 56.279998 
L 160.935166 56.540326 
L 162.914767 54.452811 
L 164.894368 55.949753 
L 166.873969 54.813238 
L 168.85357 55.422572 
L 174.792373 55.220742 
L 176.771973 56.0093 
L 178.751574 56.038665 
L 180.731175 56.372523 
L 182.710776 54.411093 
L 184.690377 56.388255 
L 186.669978 55.177044 
L 188.649579 54.358655 
L 190.62918 54.656272 
L 192.60878 54.050666 
L 194.588381 55.00458 
L 196.567982 53.848021 
L 198.547583 54.634015 
L 200.527184 54.738775 
L 202.506785 54.264149 
L 204.486386 55.372464 
L 206.465987 55.910249 
L 208.445588 55.552736 
L 210.425188 56.098561 
L 212.404789 55.61135 
L 214.38439 55.40416 
L 216.363991 54.701952 
L 218.343592 55.673694 
L 220.323193 54.849129 
L 222.302794 54.635064 
L 224.282395 54.656155 
L 226.261996 55.295788 
L 228.241596 54.883738 
L 230.221197 55.910366 
L 232.200798 55.316879 
L 234.180399 57.608205 
L 236.16 54.533916 
L 238.139601 56.228609 
L 240.119202 55.655632 
L 242.098803 53.726481 
L 244.078404 55.402762 
L 246.058004 53.866782 
L 248.037605 54.727821 
L 251.996807 54.655573 
L 253.976408 54.350731 
L 255.956009 55.23997 
L 257.93561 55.372231 
L 259.915211 56.943403 
L 261.894812 55.173082 
L 263.874412 57.14162 
L 265.854013 55.602028 
L 267.833614 55.112253 
L 269.813215 55.598066 
L 271.792816 55.025322 
L 273.772417 55.559844 
L 275.752018 54.52774 
L 277.731619 55.190678 
L 279.71122 55.405908 
L 281.69082 55.274113 
L 285.650022 57.009125 
L 287.629623 55.72823 
L 289.609224 55.619391 
L 291.588825 54.893876 
L 293.568426 55.218179 
L 295.548027 54.146337 
L 297.527627 55.327484 
L 299.507228 54.367511 
L 301.486829 54.046238 
L 305.446031 54.773967 
L 307.425632 54.488352 
L 309.405233 55.456715 
L 311.384834 54.8454 
L 313.364435 57.528033 
L 315.344035 56.008717 
L 317.323636 57.139289 
L 319.303237 56.889449 
L 321.282838 55.136841 
L 323.262439 56.658604 
L 325.24204 55.023807 
L 327.221641 56.260421 
L 329.201242 55.858976 
L 331.180843 56.086559 
L 333.160443 55.472097 
L 335.140044 56.513291 
L 337.119645 56.394547 
L 339.099246 115.635626 
L 341.078847 280.359097 
L 343.058448 280.820206 
L 345.038049 280.420392 
L 348.997251 280.278692 
L 350.976851 280.360379 
L 354.936053 280.155753 
L 356.915654 280.338588 
L 360.874856 280.291277 
L 362.854457 280.554751 
L 364.834058 280.561393 
L 366.813659 281.389337 
L 368.793259 281.092536 
L 370.77286 281.131224 
L 372.752461 280.997681 
L 374.732062 280.724884 
L 376.711663 281.044292 
L 378.691264 280.573395 
L 382.650466 280.945592 
L 384.630067 280.860641 
L 386.609667 280.595769 
L 388.589268 281.40402 
L 390.568869 280.750404 
L 390.568869 280.750404 
" clip-path="url(#p378e007c60)" style="fill: none; stroke: #ff7f0e; stroke-width: 1.5; stroke-linecap: square"/>
   </g>
   <g id="line2d_133">
    <path d="M 73.832727 278.020763 
L 75.812328 267.440788 
L 77.791929 57.679976 
L 79.77153 58.10517 
L 81.751131 58.959229 
L 83.730732 58.820442 
L 85.710333 60.334886 
L 87.689933 59.057137 
L 89.669534 59.267939 
L 91.649135 60.18969 
L 93.628736 59.568353 
L 95.608337 59.743031 
L 97.587938 60.378469 
L 99.567539 60.561071 
L 101.54714 60.298413 
L 103.526741 57.875525 
L 105.506341 59.639903 
L 107.485942 58.201808 
L 109.465543 57.50228 
L 111.445144 57.804908 
L 117.383947 57.414882 
L 119.363548 57.753751 
L 121.343149 58.403405 
L 123.322749 57.628481 
L 125.30235 58.65138 
L 127.281951 58.355861 
L 129.261552 58.854375 
L 131.241153 57.81959 
L 133.220754 58.200177 
L 135.200355 57.816211 
L 137.179956 56.634482 
L 139.159557 57.995667 
L 141.139157 56.846683 
L 143.118758 56.896558 
L 145.098359 57.803626 
L 147.07796 57.162129 
L 149.057561 57.254304 
L 151.037162 58.189223 
L 153.016763 57.954066 
L 154.996364 60.090523 
L 156.975965 59.743731 
L 158.955565 61.550525 
L 162.914767 59.735807 
L 164.894368 59.967468 
L 166.873969 59.645263 
L 168.85357 59.933907 
L 170.833171 59.587814 
L 172.812772 60.351084 
L 174.792373 60.356095 
L 176.771973 59.92575 
L 178.751574 61.051428 
L 180.731175 60.558973 
L 182.710776 57.182172 
L 184.690377 55.843944 
L 188.649579 55.771928 
L 190.62918 54.679112 
L 192.60878 55.70842 
L 194.588381 54.475068 
L 196.567982 54.840039 
L 198.547583 55.727297 
L 200.527184 55.072983 
L 202.506785 54.902966 
L 204.486386 56.485674 
L 206.465987 55.544579 
L 208.445588 59.3445 
L 210.425188 59.18835 
L 212.404789 60.948299 
L 214.38439 59.990424 
L 216.363991 58.893879 
L 218.343592 59.655867 
L 220.323193 58.851928 
L 222.302794 59.767969 
L 224.282395 59.135562 
L 226.261996 59.80957 
L 228.241596 59.904309 
L 230.221197 59.08254 
L 232.200798 60.295033 
L 234.180399 60.628891 
L 236.16 55.593987 
L 238.139601 55.297186 
L 240.119202 54.543471 
L 242.098803 54.827571 
L 244.078404 53.568 
L 246.058004 54.579479 
L 248.037605 53.716109 
L 250.017206 53.681733 
L 251.996807 53.972825 
L 253.976408 54.606514 
L 255.956009 53.97131 
L 257.93561 55.169702 
L 259.915211 54.525059 
L 261.894812 60.587873 
L 263.874412 60.267532 
L 265.854013 61.389365 
L 267.833614 60.725727 
L 269.813215 59.065061 
L 271.792816 60.807997 
L 273.772417 59.265026 
L 275.752018 60.403056 
L 277.731619 59.898133 
L 281.69082 60.480316 
L 283.670421 60.024917 
L 285.650022 60.668628 
L 287.629623 62.314145 
L 289.609224 56.41191 
L 291.588825 56.991296 
L 293.568426 56.555708 
L 295.548027 56.760218 
L 297.527627 55.503094 
L 299.507228 56.385225 
L 301.486829 55.699097 
L 303.46643 55.567419 
L 305.446031 55.88939 
L 307.425632 56.584025 
L 309.405233 55.749205 
L 311.384834 57.307675 
L 313.364435 56.330572 
L 315.344035 57.821455 
L 317.323636 56.877447 
L 321.282838 57.480139 
L 323.262439 54.983255 
L 325.24204 57.456134 
L 327.221641 55.243582 
L 329.201242 56.552212 
L 331.180843 56.350382 
L 333.160443 56.856938 
L 335.140044 56.138997 
L 337.119645 56.777464 
L 339.099246 57.200001 
L 341.078847 126.759678 
L 343.058448 280.504293 
L 345.038049 281.023084 
L 350.976851 280.363642 
L 352.956452 280.587029 
L 356.915654 280.240004 
L 358.895255 280.57223 
L 360.874856 280.549274 
L 362.854457 280.410021 
L 364.834058 280.668367 
L 366.813659 280.74819 
L 368.793259 281.57392 
L 370.77286 281.625893 
L 372.752461 281.422898 
L 374.732062 281.438862 
L 376.711663 281.029726 
L 378.691264 281.474054 
L 380.670865 281.032057 
L 382.650466 281.260805 
L 384.630067 281.242044 
L 386.609667 281.3503 
L 388.589268 281.113278 
L 390.568869 281.625776 
L 392.54847 281.424762 
L 392.54847 281.424762 
" clip-path="url(#p378e007c60)" style="fill: none; stroke: #2ca02c; stroke-width: 1.5; stroke-linecap: square"/>
   </g>
   <g id="patch_3">
    <path d="M 57.6 307.584 
L 57.6 41.472 
" style="fill: none; stroke: #000000; stroke-width: 0.8; stroke-linejoin: miter; stroke-linecap: square"/>
   </g>
   <g id="patch_4">
    <path d="M 414.72 307.584 
L 414.72 41.472 
" style="fill: none; stroke: #000000; stroke-width: 0.8; stroke-linejoin: miter; stroke-linecap: square"/>
   </g>
   <g id="patch_5">
    <path d="M 57.6 307.584 
L 414.72 307.584 
" style="fill: none; stroke: #000000; stroke-width: 0.8; stroke-linejoin: miter; stroke-linecap: square"/>
   </g>
   <g id="patch_6">
    <path d="M 57.6 41.472 
L 414.72 41.472 
" style="fill: none; stroke: #000000; stroke-width: 0.8; stroke-linejoin: miter; stroke-linecap: square"/>
   </g>
   <g id="legend_1">
    <g id="patch_7">
     <path d="M 180.918594 302.584 
L 291.401406 302.584 
Q 293.401406 302.584 293.401406 300.584 
L 293.401406 257.549625 
Q 293.401406 255.549625 291.401406 255.549625 
L 180.918594 255.549625 
Q 178.918594 255.549625 178.918594 257.549625 
L 178.918594 300.584 
Q 178.918594 302.584 180.918594 302.584 
z
" style="fill: #ffffff; opacity: 0.8; stroke: #cccccc; stroke-linejoin: miter"/>
    </g>
    <g id="line2d_134">
     <path d="M 182.918594 263.648062 
L 192.918594 263.648062 
L 202.918594 263.648062 
" style="fill: none; stroke: #1f77b4; stroke-width: 1.5; stroke-linecap: square"/>
    </g>
    <g id="text_15">
     <!-- No L3 -->
     <g transform="translate(210.918594 267.148062)scale(0.1 -0.1)">
      <defs>
       <path id="DejaVuSans-4e" d="M 628 4666 
L 1478 4666 
L 3547 763 
L 3547 4666 
L 4159 4666 
L 4159 0 
L 3309 0 
L 1241 3903 
L 1241 0 
L 628 0 
L 628 4666 
z
" transform="scale(0.015625)"/>
       <path id="DejaVuSans-4c" d="M 628 4666 
L 1259 4666 
L 1259 531 
L 3531 531 
L 3531 0 
L 628 0 
L 628 4666 
z
" transform="scale(0.015625)"/>
      </defs>
      <use xlink:href="#DejaVuSans-4e"/>
      <use xlink:href="#DejaVuSans-6f" x="74.804688"/>
      <use xlink:href="#DejaVuSans-20" x="135.986328"/>
      <use xlink:href="#DejaVuSans-4c" x="167.773438"/>
      <use xlink:href="#DejaVuSans-33" x="223.486328"/>
     </g>
    </g>
    <g id="line2d_135">
     <path d="M 182.918594 278.326188 
L 192.918594 278.326188 
L 202.918594 278.326188 
" style="fill: none; stroke: #ff7f0e; stroke-width: 1.5; stroke-linecap: square"/>
    </g>
    <g id="text_16">
     <!-- Stacked L3 -->
     <g transform="translate(210.918594 281.826188)scale(0.1 -0.1)">
      <defs>
       <path id="DejaVuSans-53" d="M 3425 4513 
L 3425 3897 
Q 3066 4069 2747 4153 
Q 2428 4238 2131 4238 
Q 1616 4238 1336 4038 
Q 1056 3838 1056 3469 
Q 1056 3159 1242 3001 
Q 1428 2844 1947 2747 
L 2328 2669 
Q 3034 2534 3370 2195 
Q 3706 1856 3706 1288 
Q 3706 609 3251 259 
Q 2797 -91 1919 -91 
Q 1588 -91 1214 -16 
Q 841 59 441 206 
L 441 856 
Q 825 641 1194 531 
Q 1563 422 1919 422 
Q 2459 422 2753 634 
Q 3047 847 3047 1241 
Q 3047 1584 2836 1778 
Q 2625 1972 2144 2069 
L 1759 2144 
Q 1053 2284 737 2584 
Q 422 2884 422 3419 
Q 422 4038 858 4394 
Q 1294 4750 2059 4750 
Q 2388 4750 2728 4690 
Q 3069 4631 3425 4513 
z
" transform="scale(0.015625)"/>
       <path id="DejaVuSans-74" d="M 1172 4494 
L 1172 3500 
L 2356 3500 
L 2356 3053 
L 1172 3053 
L 1172 1153 
Q 1172 725 1289 603 
Q 1406 481 1766 481 
L 2356 481 
L 2356 0 
L 1766 0 
Q 1100 0 847 248 
Q 594 497 594 1153 
L 594 3053 
L 172 3053 
L 172 3500 
L 594 3500 
L 594 4494 
L 1172 4494 
z
" transform="scale(0.015625)"/>
       <path id="DejaVuSans-61" d="M 2194 1759 
Q 1497 1759 1228 1600 
Q 959 1441 959 1056 
Q 959 750 1161 570 
Q 1363 391 1709 391 
Q 2188 391 2477 730 
Q 2766 1069 2766 1631 
L 2766 1759 
L 2194 1759 
z
M 3341 1997 
L 3341 0 
L 2766 0 
L 2766 531 
Q 2569 213 2275 61 
Q 1981 -91 1556 -91 
Q 1019 -91 701 211 
Q 384 513 384 1019 
Q 384 1609 779 1909 
Q 1175 2209 1959 2209 
L 2766 2209 
L 2766 2266 
Q 2766 2663 2505 2880 
Q 2244 3097 1772 3097 
Q 1472 3097 1187 3025 
Q 903 2953 641 2809 
L 641 3341 
Q 956 3463 1253 3523 
Q 1550 3584 1831 3584 
Q 2591 3584 2966 3190 
Q 3341 2797 3341 1997 
z
" transform="scale(0.015625)"/>
       <path id="DejaVuSans-63" d="M 3122 3366 
L 3122 2828 
Q 2878 2963 2633 3030 
Q 2388 3097 2138 3097 
Q 1578 3097 1268 2742 
Q 959 2388 959 1747 
Q 959 1106 1268 751 
Q 1578 397 2138 397 
Q 2388 397 2633 464 
Q 2878 531 3122 666 
L 3122 134 
Q 2881 22 2623 -34 
Q 2366 -91 2075 -91 
Q 1284 -91 818 406 
Q 353 903 353 1747 
Q 353 2603 823 3093 
Q 1294 3584 2113 3584 
Q 2378 3584 2631 3529 
Q 2884 3475 3122 3366 
z
" transform="scale(0.015625)"/>
       <path id="DejaVuSans-6b" d="M 581 4863 
L 1159 4863 
L 1159 1991 
L 2875 3500 
L 3609 3500 
L 1753 1863 
L 3688 0 
L 2938 0 
L 1159 1709 
L 1159 0 
L 581 0 
L 581 4863 
z
" transform="scale(0.015625)"/>
       <path id="DejaVuSans-64" d="M 2906 2969 
L 2906 4863 
L 3481 4863 
L 3481 0 
L 2906 0 
L 2906 525 
Q 2725 213 2448 61 
Q 2172 -91 1784 -91 
Q 1150 -91 751 415 
Q 353 922 353 1747 
Q 353 2572 751 3078 
Q 1150 3584 1784 3584 
Q 2172 3584 2448 3432 
Q 2725 3281 2906 2969 
z
M 947 1747 
Q 947 1113 1208 752 
Q 1469 391 1925 391 
Q 2381 391 2643 752 
Q 2906 1113 2906 1747 
Q 2906 2381 2643 2742 
Q 2381 3103 1925 3103 
Q 1469 3103 1208 2742 
Q 947 2381 947 1747 
z
" transform="scale(0.015625)"/>
      </defs>
      <use xlink:href="#DejaVuSans-53"/>
      <use xlink:href="#DejaVuSans-74" x="63.476562"/>
      <use xlink:href="#DejaVuSans-61" x="102.685547"/>
      <use xlink:href="#DejaVuSans-63" x="163.964844"/>
      <use xlink:href="#DejaVuSans-6b" x="218.945312"/>
      <use xlink:href="#DejaVuSans-65" x="273.230469"/>
      <use xlink:href="#DejaVuSans-64" x="334.753906"/>
      <use xlink:href="#DejaVuSans-20" x="398.230469"/>
      <use xlink:href="#DejaVuSans-4c" x="430.017578"/>
      <use xlink:href="#DejaVuSans-33" x="485.730469"/>
     </g>
    </g>
    <g id="line2d_136">
     <path d="M 182.918594 293.004312 
L 192.918594 293.004312 
L 202.918594 293.004312 
" style="fill: none; stroke: #2ca02c; stroke-width: 1.5; stroke-linecap: square"/>
    </g>
    <g id="text_17">
     <!-- Non-Stacked L3 -->
     <g transform="translate(210.918594 296.504312)scale(0.1 -0.1)">
      <defs>
       <path id="DejaVuSans-6e" d="M 3513 2113 
L 3513 0 
L 2938 0 
L 2938 2094 
Q 2938 2591 2744 2837 
Q 2550 3084 2163 3084 
Q 1697 3084 1428 2787 
Q 1159 2491 1159 1978 
L 1159 0 
L 581 0 
L 581 3500 
L 1159 3500 
L 1159 2956 
Q 1366 3272 1645 3428 
Q 1925 3584 2291 3584 
Q 2894 3584 3203 3211 
Q 3513 2838 3513 2113 
z
" transform="scale(0.015625)"/>
       <path id="DejaVuSans-2d" d="M 313 2009 
L 1997 2009 
L 1997 1497 
L 313 1497 
L 313 2009 
z
" transform="scale(0.015625)"/>
      </defs>
      <use xlink:href="#DejaVuSans-4e"/>
      <use xlink:href="#DejaVuSans-6f" x="74.804688"/>
      <use xlink:href="#DejaVuSans-6e" x="135.986328"/>
      <use xlink:href="#DejaVuSans-2d" x="199.365234"/>
      <use xlink:href="#DejaVuSans-53" x="235.449219"/>
      <use xlink:href="#DejaVuSans-74" x="298.925781"/>
      <use xlink:href="#DejaVuSans-61" x="338.134766"/>
      <use xlink:href="#DejaVuSans-63" x="399.414062"/>
      <use xlink:href="#DejaVuSans-6b" x="454.394531"/>
      <use xlink:href="#DejaVuSans-65" x="508.679688"/>
      <use xlink:href="#DejaVuSans-64" x="570.203125"/>
      <use xlink:href="#DejaVuSans-20" x="633.679688"/>
      <use xlink:href="#DejaVuSans-4c" x="665.466797"/>
      <use xlink:href="#DejaVuSans-33" x="721.179688"/>
     </g>
    </g>
   </g>
  </g>
 </g>
 <defs>
  <clipPath id="p378e007c60">
   <rect x="57.6" y="41.472" width="357.12" height="266.112"/>
  </clipPath>
 </defs>
</svg>
