<?xml version="1.0" encoding="utf-8" standalone="no"?>
<!DOCTYPE svg PUBLIC "-//W3C//DTD SVG 1.1//EN"
  "http://www.w3.org/Graphics/SVG/1.1/DTD/svg11.dtd">
<svg xmlns:xlink="http://www.w3.org/1999/xlink" width="460.8pt" height="345.6pt" viewBox="0 0 460.8 345.6" xmlns="http://www.w3.org/2000/svg" version="1.1">
 <metadata>
  <rdf:RDF xmlns:dc="http://purl.org/dc/elements/1.1/" xmlns:cc="http://creativecommons.org/ns#" xmlns:rdf="http://www.w3.org/1999/02/22-rdf-syntax-ns#">
   <cc:Work>
    <dc:type rdf:resource="http://purl.org/dc/dcmitype/StillImage"/>
    <dc:date>2022-06-22T16:11:48.344827</dc:date>
    <dc:format>image/svg+xml</dc:format>
    <dc:creator>
     <cc:Agent>
      <dc:title>Matplotlib v3.5.2, https://matplotlib.org/</dc:title>
     </cc:Agent>
    </dc:creator>
   </cc:Work>
  </rdf:RDF>
 </metadata>
 <defs>
  <style type="text/css">*{stroke-linejoin: round; stroke-linecap: butt}</style>
 </defs>
 <g id="figure_1">
  <g id="patch_1">
   <path d="M 0 345.6 
L 460.8 345.6 
L 460.8 0 
L 0 0 
z
" style="fill: #ffffff"/>
  </g>
  <g id="axes_1">
   <g id="patch_2">
    <path d="M 57.6 307.584 
L 414.72 307.584 
L 414.72 41.472 
L 57.6 41.472 
z
" style="fill: #ffffff"/>
   </g>
   <g id="matplotlib.axis_1">
    <g id="xtick_1">
     <g id="line2d_1">
      <path d="M 73.832727 307.584 
L 73.832727 41.472 
" clip-path="url(#paf3db9caf1)" style="fill: none; stroke: #b0b0b0; stroke-width: 0.8; stroke-linecap: square"/>
     </g>
     <g id="line2d_2">
      <defs>
       <path id="m10e05e3364" d="M 0 0 
L 0 3.5 
" style="stroke: #000000; stroke-width: 0.8"/>
      </defs>
      <g>
       <use xlink:href="#m10e05e3364" x="73.832727" y="307.584" style="stroke: #000000; stroke-width: 0.8"/>
      </g>
     </g>
     <g id="text_1">
      <!-- 0 -->
      <g transform="translate(70.651477 322.182437)scale(0.1 -0.1)">
       <defs>
        <path id="DejaVuSans-30" d="M 2034 4250 
Q 1547 4250 1301 3770 
Q 1056 3291 1056 2328 
Q 1056 1369 1301 889 
Q 1547 409 2034 409 
Q 2525 409 2770 889 
Q 3016 1369 3016 2328 
Q 3016 3291 2770 3770 
Q 2525 4250 2034 4250 
z
M 2034 4750 
Q 2819 4750 3233 4129 
Q 3647 3509 3647 2328 
Q 3647 1150 3233 529 
Q 2819 -91 2034 -91 
Q 1250 -91 836 529 
Q 422 1150 422 2328 
Q 422 3509 836 4129 
Q 1250 4750 2034 4750 
z
" transform="scale(0.015625)"/>
       </defs>
       <use xlink:href="#DejaVuSans-30"/>
      </g>
     </g>
    </g>
    <g id="xtick_2">
     <g id="line2d_3">
      <path d="M 115.669653 307.584 
L 115.669653 41.472 
" clip-path="url(#paf3db9caf1)" style="fill: none; stroke: #b0b0b0; stroke-width: 0.8; stroke-linecap: square"/>
     </g>
     <g id="line2d_4">
      <g>
       <use xlink:href="#m10e05e3364" x="115.669653" y="307.584" style="stroke: #000000; stroke-width: 0.8"/>
      </g>
     </g>
     <g id="text_2">
      <!-- 25 -->
      <g transform="translate(109.307153 322.182437)scale(0.1 -0.1)">
       <defs>
        <path id="DejaVuSans-32" d="M 1228 531 
L 3431 531 
L 3431 0 
L 469 0 
L 469 531 
Q 828 903 1448 1529 
Q 2069 2156 2228 2338 
Q 2531 2678 2651 2914 
Q 2772 3150 2772 3378 
Q 2772 3750 2511 3984 
Q 2250 4219 1831 4219 
Q 1534 4219 1204 4116 
Q 875 4013 500 3803 
L 500 4441 
Q 881 4594 1212 4672 
Q 1544 4750 1819 4750 
Q 2544 4750 2975 4387 
Q 3406 4025 3406 3419 
Q 3406 3131 3298 2873 
Q 3191 2616 2906 2266 
Q 2828 2175 2409 1742 
Q 1991 1309 1228 531 
z
" transform="scale(0.015625)"/>
        <path id="DejaVuSans-35" d="M 691 4666 
L 3169 4666 
L 3169 4134 
L 1269 4134 
L 1269 2991 
Q 1406 3038 1543 3061 
Q 1681 3084 1819 3084 
Q 2600 3084 3056 2656 
Q 3513 2228 3513 1497 
Q 3513 744 3044 326 
Q 2575 -91 1722 -91 
Q 1428 -91 1123 -41 
Q 819 9 494 109 
L 494 744 
Q 775 591 1075 516 
Q 1375 441 1709 441 
Q 2250 441 2565 725 
Q 2881 1009 2881 1497 
Q 2881 1984 2565 2268 
Q 2250 2553 1709 2553 
Q 1456 2553 1204 2497 
Q 953 2441 691 2322 
L 691 4666 
z
" transform="scale(0.015625)"/>
       </defs>
       <use xlink:href="#DejaVuSans-32"/>
       <use xlink:href="#DejaVuSans-35" x="63.623047"/>
      </g>
     </g>
    </g>
    <g id="xtick_3">
     <g id="line2d_5">
      <path d="M 157.506579 307.584 
L 157.506579 41.472 
" clip-path="url(#paf3db9caf1)" style="fill: none; stroke: #b0b0b0; stroke-width: 0.8; stroke-linecap: square"/>
     </g>
     <g id="line2d_6">
      <g>
       <use xlink:href="#m10e05e3364" x="157.506579" y="307.584" style="stroke: #000000; stroke-width: 0.8"/>
      </g>
     </g>
     <g id="text_3">
      <!-- 50 -->
      <g transform="translate(151.144079 322.182437)scale(0.1 -0.1)">
       <use xlink:href="#DejaVuSans-35"/>
       <use xlink:href="#DejaVuSans-30" x="63.623047"/>
      </g>
     </g>
    </g>
    <g id="xtick_4">
     <g id="line2d_7">
      <path d="M 199.343505 307.584 
L 199.343505 41.472 
" clip-path="url(#paf3db9caf1)" style="fill: none; stroke: #b0b0b0; stroke-width: 0.8; stroke-linecap: square"/>
     </g>
     <g id="line2d_8">
      <g>
       <use xlink:href="#m10e05e3364" x="199.343505" y="307.584" style="stroke: #000000; stroke-width: 0.8"/>
      </g>
     </g>
     <g id="text_4">
      <!-- 75 -->
      <g transform="translate(192.981005 322.182437)scale(0.1 -0.1)">
       <defs>
        <path id="DejaVuSans-37" d="M 525 4666 
L 3525 4666 
L 3525 4397 
L 1831 0 
L 1172 0 
L 2766 4134 
L 525 4134 
L 525 4666 
z
" transform="scale(0.015625)"/>
       </defs>
       <use xlink:href="#DejaVuSans-37"/>
       <use xlink:href="#DejaVuSans-35" x="63.623047"/>
      </g>
     </g>
    </g>
    <g id="xtick_5">
     <g id="line2d_9">
      <path d="M 241.180431 307.584 
L 241.180431 41.472 
" clip-path="url(#paf3db9caf1)" style="fill: none; stroke: #b0b0b0; stroke-width: 0.8; stroke-linecap: square"/>
     </g>
     <g id="line2d_10">
      <g>
       <use xlink:href="#m10e05e3364" x="241.180431" y="307.584" style="stroke: #000000; stroke-width: 0.8"/>
      </g>
     </g>
     <g id="text_5">
      <!-- 100 -->
      <g transform="translate(231.636681 322.182437)scale(0.1 -0.1)">
       <defs>
        <path id="DejaVuSans-31" d="M 794 531 
L 1825 531 
L 1825 4091 
L 703 3866 
L 703 4441 
L 1819 4666 
L 2450 4666 
L 2450 531 
L 3481 531 
L 3481 0 
L 794 0 
L 794 531 
z
" transform="scale(0.015625)"/>
       </defs>
       <use xlink:href="#DejaVuSans-31"/>
       <use xlink:href="#DejaVuSans-30" x="63.623047"/>
       <use xlink:href="#DejaVuSans-30" x="127.246094"/>
      </g>
     </g>
    </g>
    <g id="xtick_6">
     <g id="line2d_11">
      <path d="M 283.017357 307.584 
L 283.017357 41.472 
" clip-path="url(#paf3db9caf1)" style="fill: none; stroke: #b0b0b0; stroke-width: 0.8; stroke-linecap: square"/>
     </g>
     <g id="line2d_12">
      <g>
       <use xlink:href="#m10e05e3364" x="283.017357" y="307.584" style="stroke: #000000; stroke-width: 0.8"/>
      </g>
     </g>
     <g id="text_6">
      <!-- 125 -->
      <g transform="translate(273.473607 322.182437)scale(0.1 -0.1)">
       <use xlink:href="#DejaVuSans-31"/>
       <use xlink:href="#DejaVuSans-32" x="63.623047"/>
       <use xlink:href="#DejaVuSans-35" x="127.246094"/>
      </g>
     </g>
    </g>
    <g id="xtick_7">
     <g id="line2d_13">
      <path d="M 324.854283 307.584 
L 324.854283 41.472 
" clip-path="url(#paf3db9caf1)" style="fill: none; stroke: #b0b0b0; stroke-width: 0.8; stroke-linecap: square"/>
     </g>
     <g id="line2d_14">
      <g>
       <use xlink:href="#m10e05e3364" x="324.854283" y="307.584" style="stroke: #000000; stroke-width: 0.8"/>
      </g>
     </g>
     <g id="text_7">
      <!-- 150 -->
      <g transform="translate(315.310533 322.182437)scale(0.1 -0.1)">
       <use xlink:href="#DejaVuSans-31"/>
       <use xlink:href="#DejaVuSans-35" x="63.623047"/>
       <use xlink:href="#DejaVuSans-30" x="127.246094"/>
      </g>
     </g>
    </g>
    <g id="xtick_8">
     <g id="line2d_15">
      <path d="M 366.691209 307.584 
L 366.691209 41.472 
" clip-path="url(#paf3db9caf1)" style="fill: none; stroke: #b0b0b0; stroke-width: 0.8; stroke-linecap: square"/>
     </g>
     <g id="line2d_16">
      <g>
       <use xlink:href="#m10e05e3364" x="366.691209" y="307.584" style="stroke: #000000; stroke-width: 0.8"/>
      </g>
     </g>
     <g id="text_8">
      <!-- 175 -->
      <g transform="translate(357.147459 322.182437)scale(0.1 -0.1)">
       <use xlink:href="#DejaVuSans-31"/>
       <use xlink:href="#DejaVuSans-37" x="63.623047"/>
       <use xlink:href="#DejaVuSans-35" x="127.246094"/>
      </g>
     </g>
    </g>
    <g id="xtick_9">
     <g id="line2d_17">
      <path d="M 408.528135 307.584 
L 408.528135 41.472 
" clip-path="url(#paf3db9caf1)" style="fill: none; stroke: #b0b0b0; stroke-width: 0.8; stroke-linecap: square"/>
     </g>
     <g id="line2d_18">
      <g>
       <use xlink:href="#m10e05e3364" x="408.528135" y="307.584" style="stroke: #000000; stroke-width: 0.8"/>
      </g>
     </g>
     <g id="text_9">
      <!-- 200 -->
      <g transform="translate(398.984385 322.182437)scale(0.1 -0.1)">
       <use xlink:href="#DejaVuSans-32"/>
       <use xlink:href="#DejaVuSans-30" x="63.623047"/>
       <use xlink:href="#DejaVuSans-30" x="127.246094"/>
      </g>
     </g>
    </g>
    <g id="xtick_10">
     <g id="line2d_19">
      <path d="M 65.465342 307.584 
L 65.465342 41.472 
" clip-path="url(#paf3db9caf1)" style="fill: none; stroke-dasharray: 0.8,1.32; stroke-dashoffset: 0; stroke: #b0b0b0; stroke-width: 0.8"/>
     </g>
     <g id="line2d_20">
      <defs>
       <path id="m0956199a63" d="M 0 0 
L 0 2 
" style="stroke: #000000; stroke-width: 0.6"/>
      </defs>
      <g>
       <use xlink:href="#m0956199a63" x="65.465342" y="307.584" style="stroke: #000000; stroke-width: 0.6"/>
      </g>
     </g>
    </g>
    <g id="xtick_11">
     <g id="line2d_21">
      <path d="M 82.200112 307.584 
L 82.200112 41.472 
" clip-path="url(#paf3db9caf1)" style="fill: none; stroke-dasharray: 0.8,1.32; stroke-dashoffset: 0; stroke: #b0b0b0; stroke-width: 0.8"/>
     </g>
     <g id="line2d_22">
      <g>
       <use xlink:href="#m0956199a63" x="82.200112" y="307.584" style="stroke: #000000; stroke-width: 0.6"/>
      </g>
     </g>
    </g>
    <g id="xtick_12">
     <g id="line2d_23">
      <path d="M 90.567498 307.584 
L 90.567498 41.472 
" clip-path="url(#paf3db9caf1)" style="fill: none; stroke-dasharray: 0.8,1.32; stroke-dashoffset: 0; stroke: #b0b0b0; stroke-width: 0.8"/>
     </g>
     <g id="line2d_24">
      <g>
       <use xlink:href="#m0956199a63" x="90.567498" y="307.584" style="stroke: #000000; stroke-width: 0.6"/>
      </g>
     </g>
    </g>
    <g id="xtick_13">
     <g id="line2d_25">
      <path d="M 98.934883 307.584 
L 98.934883 41.472 
" clip-path="url(#paf3db9caf1)" style="fill: none; stroke-dasharray: 0.8,1.32; stroke-dashoffset: 0; stroke: #b0b0b0; stroke-width: 0.8"/>
     </g>
     <g id="line2d_26">
      <g>
       <use xlink:href="#m0956199a63" x="98.934883" y="307.584" style="stroke: #000000; stroke-width: 0.6"/>
      </g>
     </g>
    </g>
    <g id="xtick_14">
     <g id="line2d_27">
      <path d="M 107.302268 307.584 
L 107.302268 41.472 
" clip-path="url(#paf3db9caf1)" style="fill: none; stroke-dasharray: 0.8,1.32; stroke-dashoffset: 0; stroke: #b0b0b0; stroke-width: 0.8"/>
     </g>
     <g id="line2d_28">
      <g>
       <use xlink:href="#m0956199a63" x="107.302268" y="307.584" style="stroke: #000000; stroke-width: 0.6"/>
      </g>
     </g>
    </g>
    <g id="xtick_15">
     <g id="line2d_29">
      <path d="M 124.037038 307.584 
L 124.037038 41.472 
" clip-path="url(#paf3db9caf1)" style="fill: none; stroke-dasharray: 0.8,1.32; stroke-dashoffset: 0; stroke: #b0b0b0; stroke-width: 0.8"/>
     </g>
     <g id="line2d_30">
      <g>
       <use xlink:href="#m0956199a63" x="124.037038" y="307.584" style="stroke: #000000; stroke-width: 0.6"/>
      </g>
     </g>
    </g>
    <g id="xtick_16">
     <g id="line2d_31">
      <path d="M 132.404424 307.584 
L 132.404424 41.472 
" clip-path="url(#paf3db9caf1)" style="fill: none; stroke-dasharray: 0.8,1.32; stroke-dashoffset: 0; stroke: #b0b0b0; stroke-width: 0.8"/>
     </g>
     <g id="line2d_32">
      <g>
       <use xlink:href="#m0956199a63" x="132.404424" y="307.584" style="stroke: #000000; stroke-width: 0.6"/>
      </g>
     </g>
    </g>
    <g id="xtick_17">
     <g id="line2d_33">
      <path d="M 140.771809 307.584 
L 140.771809 41.472 
" clip-path="url(#paf3db9caf1)" style="fill: none; stroke-dasharray: 0.8,1.32; stroke-dashoffset: 0; stroke: #b0b0b0; stroke-width: 0.8"/>
     </g>
     <g id="line2d_34">
      <g>
       <use xlink:href="#m0956199a63" x="140.771809" y="307.584" style="stroke: #000000; stroke-width: 0.6"/>
      </g>
     </g>
    </g>
    <g id="xtick_18">
     <g id="line2d_35">
      <path d="M 149.139194 307.584 
L 149.139194 41.472 
" clip-path="url(#paf3db9caf1)" style="fill: none; stroke-dasharray: 0.8,1.32; stroke-dashoffset: 0; stroke: #b0b0b0; stroke-width: 0.8"/>
     </g>
     <g id="line2d_36">
      <g>
       <use xlink:href="#m0956199a63" x="149.139194" y="307.584" style="stroke: #000000; stroke-width: 0.6"/>
      </g>
     </g>
    </g>
    <g id="xtick_19">
     <g id="line2d_37">
      <path d="M 165.873964 307.584 
L 165.873964 41.472 
" clip-path="url(#paf3db9caf1)" style="fill: none; stroke-dasharray: 0.8,1.32; stroke-dashoffset: 0; stroke: #b0b0b0; stroke-width: 0.8"/>
     </g>
     <g id="line2d_38">
      <g>
       <use xlink:href="#m0956199a63" x="165.873964" y="307.584" style="stroke: #000000; stroke-width: 0.6"/>
      </g>
     </g>
    </g>
    <g id="xtick_20">
     <g id="line2d_39">
      <path d="M 174.24135 307.584 
L 174.24135 41.472 
" clip-path="url(#paf3db9caf1)" style="fill: none; stroke-dasharray: 0.8,1.32; stroke-dashoffset: 0; stroke: #b0b0b0; stroke-width: 0.8"/>
     </g>
     <g id="line2d_40">
      <g>
       <use xlink:href="#m0956199a63" x="174.24135" y="307.584" style="stroke: #000000; stroke-width: 0.6"/>
      </g>
     </g>
    </g>
    <g id="xtick_21">
     <g id="line2d_41">
      <path d="M 182.608735 307.584 
L 182.608735 41.472 
" clip-path="url(#paf3db9caf1)" style="fill: none; stroke-dasharray: 0.8,1.32; stroke-dashoffset: 0; stroke: #b0b0b0; stroke-width: 0.8"/>
     </g>
     <g id="line2d_42">
      <g>
       <use xlink:href="#m0956199a63" x="182.608735" y="307.584" style="stroke: #000000; stroke-width: 0.6"/>
      </g>
     </g>
    </g>
    <g id="xtick_22">
     <g id="line2d_43">
      <path d="M 190.97612 307.584 
L 190.97612 41.472 
" clip-path="url(#paf3db9caf1)" style="fill: none; stroke-dasharray: 0.8,1.32; stroke-dashoffset: 0; stroke: #b0b0b0; stroke-width: 0.8"/>
     </g>
     <g id="line2d_44">
      <g>
       <use xlink:href="#m0956199a63" x="190.97612" y="307.584" style="stroke: #000000; stroke-width: 0.6"/>
      </g>
     </g>
    </g>
    <g id="xtick_23">
     <g id="line2d_45">
      <path d="M 207.71089 307.584 
L 207.71089 41.472 
" clip-path="url(#paf3db9caf1)" style="fill: none; stroke-dasharray: 0.8,1.32; stroke-dashoffset: 0; stroke: #b0b0b0; stroke-width: 0.8"/>
     </g>
     <g id="line2d_46">
      <g>
       <use xlink:href="#m0956199a63" x="207.71089" y="307.584" style="stroke: #000000; stroke-width: 0.6"/>
      </g>
     </g>
    </g>
    <g id="xtick_24">
     <g id="line2d_47">
      <path d="M 216.078276 307.584 
L 216.078276 41.472 
" clip-path="url(#paf3db9caf1)" style="fill: none; stroke-dasharray: 0.8,1.32; stroke-dashoffset: 0; stroke: #b0b0b0; stroke-width: 0.8"/>
     </g>
     <g id="line2d_48">
      <g>
       <use xlink:href="#m0956199a63" x="216.078276" y="307.584" style="stroke: #000000; stroke-width: 0.6"/>
      </g>
     </g>
    </g>
    <g id="xtick_25">
     <g id="line2d_49">
      <path d="M 224.445661 307.584 
L 224.445661 41.472 
" clip-path="url(#paf3db9caf1)" style="fill: none; stroke-dasharray: 0.8,1.32; stroke-dashoffset: 0; stroke: #b0b0b0; stroke-width: 0.8"/>
     </g>
     <g id="line2d_50">
      <g>
       <use xlink:href="#m0956199a63" x="224.445661" y="307.584" style="stroke: #000000; stroke-width: 0.6"/>
      </g>
     </g>
    </g>
    <g id="xtick_26">
     <g id="line2d_51">
      <path d="M 232.813046 307.584 
L 232.813046 41.472 
" clip-path="url(#paf3db9caf1)" style="fill: none; stroke-dasharray: 0.8,1.32; stroke-dashoffset: 0; stroke: #b0b0b0; stroke-width: 0.8"/>
     </g>
     <g id="line2d_52">
      <g>
       <use xlink:href="#m0956199a63" x="232.813046" y="307.584" style="stroke: #000000; stroke-width: 0.6"/>
      </g>
     </g>
    </g>
    <g id="xtick_27">
     <g id="line2d_53">
      <path d="M 249.547816 307.584 
L 249.547816 41.472 
" clip-path="url(#paf3db9caf1)" style="fill: none; stroke-dasharray: 0.8,1.32; stroke-dashoffset: 0; stroke: #b0b0b0; stroke-width: 0.8"/>
     </g>
     <g id="line2d_54">
      <g>
       <use xlink:href="#m0956199a63" x="249.547816" y="307.584" style="stroke: #000000; stroke-width: 0.6"/>
      </g>
     </g>
    </g>
    <g id="xtick_28">
     <g id="line2d_55">
      <path d="M 257.915201 307.584 
L 257.915201 41.472 
" clip-path="url(#paf3db9caf1)" style="fill: none; stroke-dasharray: 0.8,1.32; stroke-dashoffset: 0; stroke: #b0b0b0; stroke-width: 0.8"/>
     </g>
     <g id="line2d_56">
      <g>
       <use xlink:href="#m0956199a63" x="257.915201" y="307.584" style="stroke: #000000; stroke-width: 0.6"/>
      </g>
     </g>
    </g>
    <g id="xtick_29">
     <g id="line2d_57">
      <path d="M 266.282587 307.584 
L 266.282587 41.472 
" clip-path="url(#paf3db9caf1)" style="fill: none; stroke-dasharray: 0.8,1.32; stroke-dashoffset: 0; stroke: #b0b0b0; stroke-width: 0.8"/>
     </g>
     <g id="line2d_58">
      <g>
       <use xlink:href="#m0956199a63" x="266.282587" y="307.584" style="stroke: #000000; stroke-width: 0.6"/>
      </g>
     </g>
    </g>
    <g id="xtick_30">
     <g id="line2d_59">
      <path d="M 274.649972 307.584 
L 274.649972 41.472 
" clip-path="url(#paf3db9caf1)" style="fill: none; stroke-dasharray: 0.8,1.32; stroke-dashoffset: 0; stroke: #b0b0b0; stroke-width: 0.8"/>
     </g>
     <g id="line2d_60">
      <g>
       <use xlink:href="#m0956199a63" x="274.649972" y="307.584" style="stroke: #000000; stroke-width: 0.6"/>
      </g>
     </g>
    </g>
    <g id="xtick_31">
     <g id="line2d_61">
      <path d="M 291.384742 307.584 
L 291.384742 41.472 
" clip-path="url(#paf3db9caf1)" style="fill: none; stroke-dasharray: 0.8,1.32; stroke-dashoffset: 0; stroke: #b0b0b0; stroke-width: 0.8"/>
     </g>
     <g id="line2d_62">
      <g>
       <use xlink:href="#m0956199a63" x="291.384742" y="307.584" style="stroke: #000000; stroke-width: 0.6"/>
      </g>
     </g>
    </g>
    <g id="xtick_32">
     <g id="line2d_63">
      <path d="M 299.752127 307.584 
L 299.752127 41.472 
" clip-path="url(#paf3db9caf1)" style="fill: none; stroke-dasharray: 0.8,1.32; stroke-dashoffset: 0; stroke: #b0b0b0; stroke-width: 0.8"/>
     </g>
     <g id="line2d_64">
      <g>
       <use xlink:href="#m0956199a63" x="299.752127" y="307.584" style="stroke: #000000; stroke-width: 0.6"/>
      </g>
     </g>
    </g>
    <g id="xtick_33">
     <g id="line2d_65">
      <path d="M 308.119513 307.584 
L 308.119513 41.472 
" clip-path="url(#paf3db9caf1)" style="fill: none; stroke-dasharray: 0.8,1.32; stroke-dashoffset: 0; stroke: #b0b0b0; stroke-width: 0.8"/>
     </g>
     <g id="line2d_66">
      <g>
       <use xlink:href="#m0956199a63" x="308.119513" y="307.584" style="stroke: #000000; stroke-width: 0.6"/>
      </g>
     </g>
    </g>
    <g id="xtick_34">
     <g id="line2d_67">
      <path d="M 316.486898 307.584 
L 316.486898 41.472 
" clip-path="url(#paf3db9caf1)" style="fill: none; stroke-dasharray: 0.8,1.32; stroke-dashoffset: 0; stroke: #b0b0b0; stroke-width: 0.8"/>
     </g>
     <g id="line2d_68">
      <g>
       <use xlink:href="#m0956199a63" x="316.486898" y="307.584" style="stroke: #000000; stroke-width: 0.6"/>
      </g>
     </g>
    </g>
    <g id="xtick_35">
     <g id="line2d_69">
      <path d="M 333.221668 307.584 
L 333.221668 41.472 
" clip-path="url(#paf3db9caf1)" style="fill: none; stroke-dasharray: 0.8,1.32; stroke-dashoffset: 0; stroke: #b0b0b0; stroke-width: 0.8"/>
     </g>
     <g id="line2d_70">
      <g>
       <use xlink:href="#m0956199a63" x="333.221668" y="307.584" style="stroke: #000000; stroke-width: 0.6"/>
      </g>
     </g>
    </g>
    <g id="xtick_36">
     <g id="line2d_71">
      <path d="M 341.589053 307.584 
L 341.589053 41.472 
" clip-path="url(#paf3db9caf1)" style="fill: none; stroke-dasharray: 0.8,1.32; stroke-dashoffset: 0; stroke: #b0b0b0; stroke-width: 0.8"/>
     </g>
     <g id="line2d_72">
      <g>
       <use xlink:href="#m0956199a63" x="341.589053" y="307.584" style="stroke: #000000; stroke-width: 0.6"/>
      </g>
     </g>
    </g>
    <g id="xtick_37">
     <g id="line2d_73">
      <path d="M 349.956439 307.584 
L 349.956439 41.472 
" clip-path="url(#paf3db9caf1)" style="fill: none; stroke-dasharray: 0.8,1.32; stroke-dashoffset: 0; stroke: #b0b0b0; stroke-width: 0.8"/>
     </g>
     <g id="line2d_74">
      <g>
       <use xlink:href="#m0956199a63" x="349.956439" y="307.584" style="stroke: #000000; stroke-width: 0.6"/>
      </g>
     </g>
    </g>
    <g id="xtick_38">
     <g id="line2d_75">
      <path d="M 358.323824 307.584 
L 358.323824 41.472 
" clip-path="url(#paf3db9caf1)" style="fill: none; stroke-dasharray: 0.8,1.32; stroke-dashoffset: 0; stroke: #b0b0b0; stroke-width: 0.8"/>
     </g>
     <g id="line2d_76">
      <g>
       <use xlink:href="#m0956199a63" x="358.323824" y="307.584" style="stroke: #000000; stroke-width: 0.6"/>
      </g>
     </g>
    </g>
    <g id="xtick_39">
     <g id="line2d_77">
      <path d="M 375.058594 307.584 
L 375.058594 41.472 
" clip-path="url(#paf3db9caf1)" style="fill: none; stroke-dasharray: 0.8,1.32; stroke-dashoffset: 0; stroke: #b0b0b0; stroke-width: 0.8"/>
     </g>
     <g id="line2d_78">
      <g>
       <use xlink:href="#m0956199a63" x="375.058594" y="307.584" style="stroke: #000000; stroke-width: 0.6"/>
      </g>
     </g>
    </g>
    <g id="xtick_40">
     <g id="line2d_79">
      <path d="M 383.425979 307.584 
L 383.425979 41.472 
" clip-path="url(#paf3db9caf1)" style="fill: none; stroke-dasharray: 0.8,1.32; stroke-dashoffset: 0; stroke: #b0b0b0; stroke-width: 0.8"/>
     </g>
     <g id="line2d_80">
      <g>
       <use xlink:href="#m0956199a63" x="383.425979" y="307.584" style="stroke: #000000; stroke-width: 0.6"/>
      </g>
     </g>
    </g>
    <g id="xtick_41">
     <g id="line2d_81">
      <path d="M 391.793365 307.584 
L 391.793365 41.472 
" clip-path="url(#paf3db9caf1)" style="fill: none; stroke-dasharray: 0.8,1.32; stroke-dashoffset: 0; stroke: #b0b0b0; stroke-width: 0.8"/>
     </g>
     <g id="line2d_82">
      <g>
       <use xlink:href="#m0956199a63" x="391.793365" y="307.584" style="stroke: #000000; stroke-width: 0.6"/>
      </g>
     </g>
    </g>
    <g id="xtick_42">
     <g id="line2d_83">
      <path d="M 400.16075 307.584 
L 400.16075 41.472 
" clip-path="url(#paf3db9caf1)" style="fill: none; stroke-dasharray: 0.8,1.32; stroke-dashoffset: 0; stroke: #b0b0b0; stroke-width: 0.8"/>
     </g>
     <g id="line2d_84">
      <g>
       <use xlink:href="#m0956199a63" x="400.16075" y="307.584" style="stroke: #000000; stroke-width: 0.6"/>
      </g>
     </g>
    </g>
    <g id="text_10">
     <!-- Time (ms) -->
     <g transform="translate(210.960781 335.860562)scale(0.1 -0.1)">
      <defs>
       <path id="DejaVuSans-54" d="M -19 4666 
L 3928 4666 
L 3928 4134 
L 2272 4134 
L 2272 0 
L 1638 0 
L 1638 4134 
L -19 4134 
L -19 4666 
z
" transform="scale(0.015625)"/>
       <path id="DejaVuSans-69" d="M 603 3500 
L 1178 3500 
L 1178 0 
L 603 0 
L 603 3500 
z
M 603 4863 
L 1178 4863 
L 1178 4134 
L 603 4134 
L 603 4863 
z
" transform="scale(0.015625)"/>
       <path id="DejaVuSans-6d" d="M 3328 2828 
Q 3544 3216 3844 3400 
Q 4144 3584 4550 3584 
Q 5097 3584 5394 3201 
Q 5691 2819 5691 2113 
L 5691 0 
L 5113 0 
L 5113 2094 
Q 5113 2597 4934 2840 
Q 4756 3084 4391 3084 
Q 3944 3084 3684 2787 
Q 3425 2491 3425 1978 
L 3425 0 
L 2847 0 
L 2847 2094 
Q 2847 2600 2669 2842 
Q 2491 3084 2119 3084 
Q 1678 3084 1418 2786 
Q 1159 2488 1159 1978 
L 1159 0 
L 581 0 
L 581 3500 
L 1159 3500 
L 1159 2956 
Q 1356 3278 1631 3431 
Q 1906 3584 2284 3584 
Q 2666 3584 2933 3390 
Q 3200 3197 3328 2828 
z
" transform="scale(0.015625)"/>
       <path id="DejaVuSans-65" d="M 3597 1894 
L 3597 1613 
L 953 1613 
Q 991 1019 1311 708 
Q 1631 397 2203 397 
Q 2534 397 2845 478 
Q 3156 559 3463 722 
L 3463 178 
Q 3153 47 2828 -22 
Q 2503 -91 2169 -91 
Q 1331 -91 842 396 
Q 353 884 353 1716 
Q 353 2575 817 3079 
Q 1281 3584 2069 3584 
Q 2775 3584 3186 3129 
Q 3597 2675 3597 1894 
z
M 3022 2063 
Q 3016 2534 2758 2815 
Q 2500 3097 2075 3097 
Q 1594 3097 1305 2825 
Q 1016 2553 972 2059 
L 3022 2063 
z
" transform="scale(0.015625)"/>
       <path id="DejaVuSans-20" transform="scale(0.015625)"/>
       <path id="DejaVuSans-28" d="M 1984 4856 
Q 1566 4138 1362 3434 
Q 1159 2731 1159 2009 
Q 1159 1288 1364 580 
Q 1569 -128 1984 -844 
L 1484 -844 
Q 1016 -109 783 600 
Q 550 1309 550 2009 
Q 550 2706 781 3412 
Q 1013 4119 1484 4856 
L 1984 4856 
z
" transform="scale(0.015625)"/>
       <path id="DejaVuSans-73" d="M 2834 3397 
L 2834 2853 
Q 2591 2978 2328 3040 
Q 2066 3103 1784 3103 
Q 1356 3103 1142 2972 
Q 928 2841 928 2578 
Q 928 2378 1081 2264 
Q 1234 2150 1697 2047 
L 1894 2003 
Q 2506 1872 2764 1633 
Q 3022 1394 3022 966 
Q 3022 478 2636 193 
Q 2250 -91 1575 -91 
Q 1294 -91 989 -36 
Q 684 19 347 128 
L 347 722 
Q 666 556 975 473 
Q 1284 391 1588 391 
Q 1994 391 2212 530 
Q 2431 669 2431 922 
Q 2431 1156 2273 1281 
Q 2116 1406 1581 1522 
L 1381 1569 
Q 847 1681 609 1914 
Q 372 2147 372 2553 
Q 372 3047 722 3315 
Q 1072 3584 1716 3584 
Q 2034 3584 2315 3537 
Q 2597 3491 2834 3397 
z
" transform="scale(0.015625)"/>
       <path id="DejaVuSans-29" d="M 513 4856 
L 1013 4856 
Q 1481 4119 1714 3412 
Q 1947 2706 1947 2009 
Q 1947 1309 1714 600 
Q 1481 -109 1013 -844 
L 513 -844 
Q 928 -128 1133 580 
Q 1338 1288 1338 2009 
Q 1338 2731 1133 3434 
Q 928 4138 513 4856 
z
" transform="scale(0.015625)"/>
      </defs>
      <use xlink:href="#DejaVuSans-54"/>
      <use xlink:href="#DejaVuSans-69" x="57.958984"/>
      <use xlink:href="#DejaVuSans-6d" x="85.742188"/>
      <use xlink:href="#DejaVuSans-65" x="183.154297"/>
      <use xlink:href="#DejaVuSans-20" x="244.677734"/>
      <use xlink:href="#DejaVuSans-28" x="276.464844"/>
      <use xlink:href="#DejaVuSans-6d" x="315.478516"/>
      <use xlink:href="#DejaVuSans-73" x="412.890625"/>
      <use xlink:href="#DejaVuSans-29" x="464.990234"/>
     </g>
    </g>
   </g>
   <g id="matplotlib.axis_2">
    <g id="ytick_1">
     <g id="line2d_85">
      <path d="M 57.6 279.332201 
L 414.72 279.332201 
" clip-path="url(#paf3db9caf1)" style="fill: none; stroke: #b0b0b0; stroke-width: 0.8; stroke-linecap: square"/>
     </g>
     <g id="line2d_86">
      <defs>
       <path id="m64c1e59f55" d="M 0 0 
L -3.5 0 
" style="stroke: #000000; stroke-width: 0.8"/>
      </defs>
      <g>
       <use xlink:href="#m64c1e59f55" x="57.6" y="279.332201" style="stroke: #000000; stroke-width: 0.8"/>
      </g>
     </g>
     <g id="text_11">
      <!-- 1 -->
      <g transform="translate(44.2375 283.13142)scale(0.1 -0.1)">
       <use xlink:href="#DejaVuSans-31"/>
      </g>
     </g>
    </g>
    <g id="ytick_2">
     <g id="line2d_87">
      <path d="M 57.6 245.165613 
L 414.72 245.165613 
" clip-path="url(#paf3db9caf1)" style="fill: none; stroke: #b0b0b0; stroke-width: 0.8; stroke-linecap: square"/>
     </g>
     <g id="line2d_88">
      <g>
       <use xlink:href="#m64c1e59f55" x="57.6" y="245.165613" style="stroke: #000000; stroke-width: 0.8"/>
      </g>
     </g>
     <g id="text_12">
      <!-- 2 -->
      <g transform="translate(44.2375 248.964832)scale(0.1 -0.1)">
       <use xlink:href="#DejaVuSans-32"/>
      </g>
     </g>
    </g>
    <g id="ytick_3">
     <g id="line2d_89">
      <path d="M 57.6 210.999026 
L 414.72 210.999026 
" clip-path="url(#paf3db9caf1)" style="fill: none; stroke: #b0b0b0; stroke-width: 0.8; stroke-linecap: square"/>
     </g>
     <g id="line2d_90">
      <g>
       <use xlink:href="#m64c1e59f55" x="57.6" y="210.999026" style="stroke: #000000; stroke-width: 0.8"/>
      </g>
     </g>
     <g id="text_13">
      <!-- 3 -->
      <g transform="translate(44.2375 214.798244)scale(0.1 -0.1)">
       <defs>
        <path id="DejaVuSans-33" d="M 2597 2516 
Q 3050 2419 3304 2112 
Q 3559 1806 3559 1356 
Q 3559 666 3084 287 
Q 2609 -91 1734 -91 
Q 1441 -91 1130 -33 
Q 819 25 488 141 
L 488 750 
Q 750 597 1062 519 
Q 1375 441 1716 441 
Q 2309 441 2620 675 
Q 2931 909 2931 1356 
Q 2931 1769 2642 2001 
Q 2353 2234 1838 2234 
L 1294 2234 
L 1294 2753 
L 1863 2753 
Q 2328 2753 2575 2939 
Q 2822 3125 2822 3475 
Q 2822 3834 2567 4026 
Q 2313 4219 1838 4219 
Q 1578 4219 1281 4162 
Q 984 4106 628 3988 
L 628 4550 
Q 988 4650 1302 4700 
Q 1616 4750 1894 4750 
Q 2613 4750 3031 4423 
Q 3450 4097 3450 3541 
Q 3450 3153 3228 2886 
Q 3006 2619 2597 2516 
z
" transform="scale(0.015625)"/>
       </defs>
       <use xlink:href="#DejaVuSans-33"/>
      </g>
     </g>
    </g>
    <g id="ytick_4">
     <g id="line2d_91">
      <path d="M 57.6 176.832438 
L 414.72 176.832438 
" clip-path="url(#paf3db9caf1)" style="fill: none; stroke: #b0b0b0; stroke-width: 0.8; stroke-linecap: square"/>
     </g>
     <g id="line2d_92">
      <g>
       <use xlink:href="#m64c1e59f55" x="57.6" y="176.832438" style="stroke: #000000; stroke-width: 0.8"/>
      </g>
     </g>
     <g id="text_14">
      <!-- 4 -->
      <g transform="translate(44.2375 180.631657)scale(0.1 -0.1)">
       <defs>
        <path id="DejaVuSans-34" d="M 2419 4116 
L 825 1625 
L 2419 1625 
L 2419 4116 
z
M 2253 4666 
L 3047 4666 
L 3047 1625 
L 3713 1625 
L 3713 1100 
L 3047 1100 
L 3047 0 
L 2419 0 
L 2419 1100 
L 313 1100 
L 313 1709 
L 2253 4666 
z
" transform="scale(0.015625)"/>
       </defs>
       <use xlink:href="#DejaVuSans-34"/>
      </g>
     </g>
    </g>
    <g id="ytick_5">
     <g id="line2d_93">
      <path d="M 57.6 142.66585 
L 414.72 142.66585 
" clip-path="url(#paf3db9caf1)" style="fill: none; stroke: #b0b0b0; stroke-width: 0.8; stroke-linecap: square"/>
     </g>
     <g id="line2d_94">
      <g>
       <use xlink:href="#m64c1e59f55" x="57.6" y="142.66585" style="stroke: #000000; stroke-width: 0.8"/>
      </g>
     </g>
     <g id="text_15">
      <!-- 5 -->
      <g transform="translate(44.2375 146.465069)scale(0.1 -0.1)">
       <use xlink:href="#DejaVuSans-35"/>
      </g>
     </g>
    </g>
    <g id="ytick_6">
     <g id="line2d_95">
      <path d="M 57.6 108.499263 
L 414.72 108.499263 
" clip-path="url(#paf3db9caf1)" style="fill: none; stroke: #b0b0b0; stroke-width: 0.8; stroke-linecap: square"/>
     </g>
     <g id="line2d_96">
      <g>
       <use xlink:href="#m64c1e59f55" x="57.6" y="108.499263" style="stroke: #000000; stroke-width: 0.8"/>
      </g>
     </g>
     <g id="text_16">
      <!-- 6 -->
      <g transform="translate(44.2375 112.298482)scale(0.1 -0.1)">
       <defs>
        <path id="DejaVuSans-36" d="M 2113 2584 
Q 1688 2584 1439 2293 
Q 1191 2003 1191 1497 
Q 1191 994 1439 701 
Q 1688 409 2113 409 
Q 2538 409 2786 701 
Q 3034 994 3034 1497 
Q 3034 2003 2786 2293 
Q 2538 2584 2113 2584 
z
M 3366 4563 
L 3366 3988 
Q 3128 4100 2886 4159 
Q 2644 4219 2406 4219 
Q 1781 4219 1451 3797 
Q 1122 3375 1075 2522 
Q 1259 2794 1537 2939 
Q 1816 3084 2150 3084 
Q 2853 3084 3261 2657 
Q 3669 2231 3669 1497 
Q 3669 778 3244 343 
Q 2819 -91 2113 -91 
Q 1303 -91 875 529 
Q 447 1150 447 2328 
Q 447 3434 972 4092 
Q 1497 4750 2381 4750 
Q 2619 4750 2861 4703 
Q 3103 4656 3366 4563 
z
" transform="scale(0.015625)"/>
       </defs>
       <use xlink:href="#DejaVuSans-36"/>
      </g>
     </g>
    </g>
    <g id="ytick_7">
     <g id="line2d_97">
      <path d="M 57.6 74.332675 
L 414.72 74.332675 
" clip-path="url(#paf3db9caf1)" style="fill: none; stroke: #b0b0b0; stroke-width: 0.8; stroke-linecap: square"/>
     </g>
     <g id="line2d_98">
      <g>
       <use xlink:href="#m64c1e59f55" x="57.6" y="74.332675" style="stroke: #000000; stroke-width: 0.8"/>
      </g>
     </g>
     <g id="text_17">
      <!-- 7 -->
      <g transform="translate(44.2375 78.131894)scale(0.1 -0.1)">
       <use xlink:href="#DejaVuSans-37"/>
      </g>
     </g>
    </g>
    <g id="ytick_8">
     <g id="line2d_99">
      <path d="M 57.6 306.665471 
L 414.72 306.665471 
" clip-path="url(#paf3db9caf1)" style="fill: none; stroke-dasharray: 0.8,1.32; stroke-dashoffset: 0; stroke: #b0b0b0; stroke-width: 0.8"/>
     </g>
     <g id="line2d_100">
      <defs>
       <path id="m89887a862d" d="M 0 0 
L -2 0 
" style="stroke: #000000; stroke-width: 0.6"/>
      </defs>
      <g>
       <use xlink:href="#m89887a862d" x="57.6" y="306.665471" style="stroke: #000000; stroke-width: 0.6"/>
      </g>
     </g>
    </g>
    <g id="ytick_9">
     <g id="line2d_101">
      <path d="M 57.6 299.832153 
L 414.72 299.832153 
" clip-path="url(#paf3db9caf1)" style="fill: none; stroke-dasharray: 0.8,1.32; stroke-dashoffset: 0; stroke: #b0b0b0; stroke-width: 0.8"/>
     </g>
     <g id="line2d_102">
      <g>
       <use xlink:href="#m89887a862d" x="57.6" y="299.832153" style="stroke: #000000; stroke-width: 0.6"/>
      </g>
     </g>
    </g>
    <g id="ytick_10">
     <g id="line2d_103">
      <path d="M 57.6 292.998836 
L 414.72 292.998836 
" clip-path="url(#paf3db9caf1)" style="fill: none; stroke-dasharray: 0.8,1.32; stroke-dashoffset: 0; stroke: #b0b0b0; stroke-width: 0.8"/>
     </g>
     <g id="line2d_104">
      <g>
       <use xlink:href="#m89887a862d" x="57.6" y="292.998836" style="stroke: #000000; stroke-width: 0.6"/>
      </g>
     </g>
    </g>
    <g id="ytick_11">
     <g id="line2d_105">
      <path d="M 57.6 286.165518 
L 414.72 286.165518 
" clip-path="url(#paf3db9caf1)" style="fill: none; stroke-dasharray: 0.8,1.32; stroke-dashoffset: 0; stroke: #b0b0b0; stroke-width: 0.8"/>
     </g>
     <g id="line2d_106">
      <g>
       <use xlink:href="#m89887a862d" x="57.6" y="286.165518" style="stroke: #000000; stroke-width: 0.6"/>
      </g>
     </g>
    </g>
    <g id="ytick_12">
     <g id="line2d_107">
      <path d="M 57.6 272.498883 
L 414.72 272.498883 
" clip-path="url(#paf3db9caf1)" style="fill: none; stroke-dasharray: 0.8,1.32; stroke-dashoffset: 0; stroke: #b0b0b0; stroke-width: 0.8"/>
     </g>
     <g id="line2d_108">
      <g>
       <use xlink:href="#m89887a862d" x="57.6" y="272.498883" style="stroke: #000000; stroke-width: 0.6"/>
      </g>
     </g>
    </g>
    <g id="ytick_13">
     <g id="line2d_109">
      <path d="M 57.6 265.665566 
L 414.72 265.665566 
" clip-path="url(#paf3db9caf1)" style="fill: none; stroke-dasharray: 0.8,1.32; stroke-dashoffset: 0; stroke: #b0b0b0; stroke-width: 0.8"/>
     </g>
     <g id="line2d_110">
      <g>
       <use xlink:href="#m89887a862d" x="57.6" y="265.665566" style="stroke: #000000; stroke-width: 0.6"/>
      </g>
     </g>
    </g>
    <g id="ytick_14">
     <g id="line2d_111">
      <path d="M 57.6 258.832248 
L 414.72 258.832248 
" clip-path="url(#paf3db9caf1)" style="fill: none; stroke-dasharray: 0.8,1.32; stroke-dashoffset: 0; stroke: #b0b0b0; stroke-width: 0.8"/>
     </g>
     <g id="line2d_112">
      <g>
       <use xlink:href="#m89887a862d" x="57.6" y="258.832248" style="stroke: #000000; stroke-width: 0.6"/>
      </g>
     </g>
    </g>
    <g id="ytick_15">
     <g id="line2d_113">
      <path d="M 57.6 251.998931 
L 414.72 251.998931 
" clip-path="url(#paf3db9caf1)" style="fill: none; stroke-dasharray: 0.8,1.32; stroke-dashoffset: 0; stroke: #b0b0b0; stroke-width: 0.8"/>
     </g>
     <g id="line2d_114">
      <g>
       <use xlink:href="#m89887a862d" x="57.6" y="251.998931" style="stroke: #000000; stroke-width: 0.6"/>
      </g>
     </g>
    </g>
    <g id="ytick_16">
     <g id="line2d_115">
      <path d="M 57.6 238.332296 
L 414.72 238.332296 
" clip-path="url(#paf3db9caf1)" style="fill: none; stroke-dasharray: 0.8,1.32; stroke-dashoffset: 0; stroke: #b0b0b0; stroke-width: 0.8"/>
     </g>
     <g id="line2d_116">
      <g>
       <use xlink:href="#m89887a862d" x="57.6" y="238.332296" style="stroke: #000000; stroke-width: 0.6"/>
      </g>
     </g>
    </g>
    <g id="ytick_17">
     <g id="line2d_117">
      <path d="M 57.6 231.498978 
L 414.72 231.498978 
" clip-path="url(#paf3db9caf1)" style="fill: none; stroke-dasharray: 0.8,1.32; stroke-dashoffset: 0; stroke: #b0b0b0; stroke-width: 0.8"/>
     </g>
     <g id="line2d_118">
      <g>
       <use xlink:href="#m89887a862d" x="57.6" y="231.498978" style="stroke: #000000; stroke-width: 0.6"/>
      </g>
     </g>
    </g>
    <g id="ytick_18">
     <g id="line2d_119">
      <path d="M 57.6 224.665661 
L 414.72 224.665661 
" clip-path="url(#paf3db9caf1)" style="fill: none; stroke-dasharray: 0.8,1.32; stroke-dashoffset: 0; stroke: #b0b0b0; stroke-width: 0.8"/>
     </g>
     <g id="line2d_120">
      <g>
       <use xlink:href="#m89887a862d" x="57.6" y="224.665661" style="stroke: #000000; stroke-width: 0.6"/>
      </g>
     </g>
    </g>
    <g id="ytick_19">
     <g id="line2d_121">
      <path d="M 57.6 217.832343 
L 414.72 217.832343 
" clip-path="url(#paf3db9caf1)" style="fill: none; stroke-dasharray: 0.8,1.32; stroke-dashoffset: 0; stroke: #b0b0b0; stroke-width: 0.8"/>
     </g>
     <g id="line2d_122">
      <g>
       <use xlink:href="#m89887a862d" x="57.6" y="217.832343" style="stroke: #000000; stroke-width: 0.6"/>
      </g>
     </g>
    </g>
    <g id="ytick_20">
     <g id="line2d_123">
      <path d="M 57.6 204.165708 
L 414.72 204.165708 
" clip-path="url(#paf3db9caf1)" style="fill: none; stroke-dasharray: 0.8,1.32; stroke-dashoffset: 0; stroke: #b0b0b0; stroke-width: 0.8"/>
     </g>
     <g id="line2d_124">
      <g>
       <use xlink:href="#m89887a862d" x="57.6" y="204.165708" style="stroke: #000000; stroke-width: 0.6"/>
      </g>
     </g>
    </g>
    <g id="ytick_21">
     <g id="line2d_125">
      <path d="M 57.6 197.332391 
L 414.72 197.332391 
" clip-path="url(#paf3db9caf1)" style="fill: none; stroke-dasharray: 0.8,1.32; stroke-dashoffset: 0; stroke: #b0b0b0; stroke-width: 0.8"/>
     </g>
     <g id="line2d_126">
      <g>
       <use xlink:href="#m89887a862d" x="57.6" y="197.332391" style="stroke: #000000; stroke-width: 0.6"/>
      </g>
     </g>
    </g>
    <g id="ytick_22">
     <g id="line2d_127">
      <path d="M 57.6 190.499073 
L 414.72 190.499073 
" clip-path="url(#paf3db9caf1)" style="fill: none; stroke-dasharray: 0.8,1.32; stroke-dashoffset: 0; stroke: #b0b0b0; stroke-width: 0.8"/>
     </g>
     <g id="line2d_128">
      <g>
       <use xlink:href="#m89887a862d" x="57.6" y="190.499073" style="stroke: #000000; stroke-width: 0.6"/>
      </g>
     </g>
    </g>
    <g id="ytick_23">
     <g id="line2d_129">
      <path d="M 57.6 183.665756 
L 414.72 183.665756 
" clip-path="url(#paf3db9caf1)" style="fill: none; stroke-dasharray: 0.8,1.32; stroke-dashoffset: 0; stroke: #b0b0b0; stroke-width: 0.8"/>
     </g>
     <g id="line2d_130">
      <g>
       <use xlink:href="#m89887a862d" x="57.6" y="183.665756" style="stroke: #000000; stroke-width: 0.6"/>
      </g>
     </g>
    </g>
    <g id="ytick_24">
     <g id="line2d_131">
      <path d="M 57.6 169.999121 
L 414.72 169.999121 
" clip-path="url(#paf3db9caf1)" style="fill: none; stroke-dasharray: 0.8,1.32; stroke-dashoffset: 0; stroke: #b0b0b0; stroke-width: 0.8"/>
     </g>
     <g id="line2d_132">
      <g>
       <use xlink:href="#m89887a862d" x="57.6" y="169.999121" style="stroke: #000000; stroke-width: 0.6"/>
      </g>
     </g>
    </g>
    <g id="ytick_25">
     <g id="line2d_133">
      <path d="M 57.6 163.165803 
L 414.72 163.165803 
" clip-path="url(#paf3db9caf1)" style="fill: none; stroke-dasharray: 0.8,1.32; stroke-dashoffset: 0; stroke: #b0b0b0; stroke-width: 0.8"/>
     </g>
     <g id="line2d_134">
      <g>
       <use xlink:href="#m89887a862d" x="57.6" y="163.165803" style="stroke: #000000; stroke-width: 0.6"/>
      </g>
     </g>
    </g>
    <g id="ytick_26">
     <g id="line2d_135">
      <path d="M 57.6 156.332486 
L 414.72 156.332486 
" clip-path="url(#paf3db9caf1)" style="fill: none; stroke-dasharray: 0.8,1.32; stroke-dashoffset: 0; stroke: #b0b0b0; stroke-width: 0.8"/>
     </g>
     <g id="line2d_136">
      <g>
       <use xlink:href="#m89887a862d" x="57.6" y="156.332486" style="stroke: #000000; stroke-width: 0.6"/>
      </g>
     </g>
    </g>
    <g id="ytick_27">
     <g id="line2d_137">
      <path d="M 57.6 149.499168 
L 414.72 149.499168 
" clip-path="url(#paf3db9caf1)" style="fill: none; stroke-dasharray: 0.8,1.32; stroke-dashoffset: 0; stroke: #b0b0b0; stroke-width: 0.8"/>
     </g>
     <g id="line2d_138">
      <g>
       <use xlink:href="#m89887a862d" x="57.6" y="149.499168" style="stroke: #000000; stroke-width: 0.6"/>
      </g>
     </g>
    </g>
    <g id="ytick_28">
     <g id="line2d_139">
      <path d="M 57.6 135.832533 
L 414.72 135.832533 
" clip-path="url(#paf3db9caf1)" style="fill: none; stroke-dasharray: 0.8,1.32; stroke-dashoffset: 0; stroke: #b0b0b0; stroke-width: 0.8"/>
     </g>
     <g id="line2d_140">
      <g>
       <use xlink:href="#m89887a862d" x="57.6" y="135.832533" style="stroke: #000000; stroke-width: 0.6"/>
      </g>
     </g>
    </g>
    <g id="ytick_29">
     <g id="line2d_141">
      <path d="M 57.6 128.999215 
L 414.72 128.999215 
" clip-path="url(#paf3db9caf1)" style="fill: none; stroke-dasharray: 0.8,1.32; stroke-dashoffset: 0; stroke: #b0b0b0; stroke-width: 0.8"/>
     </g>
     <g id="line2d_142">
      <g>
       <use xlink:href="#m89887a862d" x="57.6" y="128.999215" style="stroke: #000000; stroke-width: 0.6"/>
      </g>
     </g>
    </g>
    <g id="ytick_30">
     <g id="line2d_143">
      <path d="M 57.6 122.165898 
L 414.72 122.165898 
" clip-path="url(#paf3db9caf1)" style="fill: none; stroke-dasharray: 0.8,1.32; stroke-dashoffset: 0; stroke: #b0b0b0; stroke-width: 0.8"/>
     </g>
     <g id="line2d_144">
      <g>
       <use xlink:href="#m89887a862d" x="57.6" y="122.165898" style="stroke: #000000; stroke-width: 0.6"/>
      </g>
     </g>
    </g>
    <g id="ytick_31">
     <g id="line2d_145">
      <path d="M 57.6 115.33258 
L 414.72 115.33258 
" clip-path="url(#paf3db9caf1)" style="fill: none; stroke-dasharray: 0.8,1.32; stroke-dashoffset: 0; stroke: #b0b0b0; stroke-width: 0.8"/>
     </g>
     <g id="line2d_146">
      <g>
       <use xlink:href="#m89887a862d" x="57.6" y="115.33258" style="stroke: #000000; stroke-width: 0.6"/>
      </g>
     </g>
    </g>
    <g id="ytick_32">
     <g id="line2d_147">
      <path d="M 57.6 101.665945 
L 414.72 101.665945 
" clip-path="url(#paf3db9caf1)" style="fill: none; stroke-dasharray: 0.8,1.32; stroke-dashoffset: 0; stroke: #b0b0b0; stroke-width: 0.8"/>
     </g>
     <g id="line2d_148">
      <g>
       <use xlink:href="#m89887a862d" x="57.6" y="101.665945" style="stroke: #000000; stroke-width: 0.6"/>
      </g>
     </g>
    </g>
    <g id="ytick_33">
     <g id="line2d_149">
      <path d="M 57.6 94.832628 
L 414.72 94.832628 
" clip-path="url(#paf3db9caf1)" style="fill: none; stroke-dasharray: 0.8,1.32; stroke-dashoffset: 0; stroke: #b0b0b0; stroke-width: 0.8"/>
     </g>
     <g id="line2d_150">
      <g>
       <use xlink:href="#m89887a862d" x="57.6" y="94.832628" style="stroke: #000000; stroke-width: 0.6"/>
      </g>
     </g>
    </g>
    <g id="ytick_34">
     <g id="line2d_151">
      <path d="M 57.6 87.99931 
L 414.72 87.99931 
" clip-path="url(#paf3db9caf1)" style="fill: none; stroke-dasharray: 0.8,1.32; stroke-dashoffset: 0; stroke: #b0b0b0; stroke-width: 0.8"/>
     </g>
     <g id="line2d_152">
      <g>
       <use xlink:href="#m89887a862d" x="57.6" y="87.99931" style="stroke: #000000; stroke-width: 0.6"/>
      </g>
     </g>
    </g>
    <g id="ytick_35">
     <g id="line2d_153">
      <path d="M 57.6 81.165993 
L 414.72 81.165993 
" clip-path="url(#paf3db9caf1)" style="fill: none; stroke-dasharray: 0.8,1.32; stroke-dashoffset: 0; stroke: #b0b0b0; stroke-width: 0.8"/>
     </g>
     <g id="line2d_154">
      <g>
       <use xlink:href="#m89887a862d" x="57.6" y="81.165993" style="stroke: #000000; stroke-width: 0.6"/>
      </g>
     </g>
    </g>
    <g id="ytick_36">
     <g id="line2d_155">
      <path d="M 57.6 67.499358 
L 414.72 67.499358 
" clip-path="url(#paf3db9caf1)" style="fill: none; stroke-dasharray: 0.8,1.32; stroke-dashoffset: 0; stroke: #b0b0b0; stroke-width: 0.8"/>
     </g>
     <g id="line2d_156">
      <g>
       <use xlink:href="#m89887a862d" x="57.6" y="67.499358" style="stroke: #000000; stroke-width: 0.6"/>
      </g>
     </g>
    </g>
    <g id="ytick_37">
     <g id="line2d_157">
      <path d="M 57.6 60.66604 
L 414.72 60.66604 
" clip-path="url(#paf3db9caf1)" style="fill: none; stroke-dasharray: 0.8,1.32; stroke-dashoffset: 0; stroke: #b0b0b0; stroke-width: 0.8"/>
     </g>
     <g id="line2d_158">
      <g>
       <use xlink:href="#m89887a862d" x="57.6" y="60.66604" style="stroke: #000000; stroke-width: 0.6"/>
      </g>
     </g>
    </g>
    <g id="ytick_38">
     <g id="line2d_159">
      <path d="M 57.6 53.832723 
L 414.72 53.832723 
" clip-path="url(#paf3db9caf1)" style="fill: none; stroke-dasharray: 0.8,1.32; stroke-dashoffset: 0; stroke: #b0b0b0; stroke-width: 0.8"/>
     </g>
     <g id="line2d_160">
      <g>
       <use xlink:href="#m89887a862d" x="57.6" y="53.832723" style="stroke: #000000; stroke-width: 0.6"/>
      </g>
     </g>
    </g>
    <g id="ytick_39">
     <g id="line2d_161">
      <path d="M 57.6 46.999405 
L 414.72 46.999405 
" clip-path="url(#paf3db9caf1)" style="fill: none; stroke-dasharray: 0.8,1.32; stroke-dashoffset: 0; stroke: #b0b0b0; stroke-width: 0.8"/>
     </g>
     <g id="line2d_162">
      <g>
       <use xlink:href="#m89887a862d" x="57.6" y="46.999405" style="stroke: #000000; stroke-width: 0.6"/>
      </g>
     </g>
    </g>
    <g id="text_18">
     <!-- Power (W) -->
     <g transform="translate(38.157812 200.076437)rotate(-90)scale(0.1 -0.1)">
      <defs>
       <path id="DejaVuSans-50" d="M 1259 4147 
L 1259 2394 
L 2053 2394 
Q 2494 2394 2734 2622 
Q 2975 2850 2975 3272 
Q 2975 3691 2734 3919 
Q 2494 4147 2053 4147 
L 1259 4147 
z
M 628 4666 
L 2053 4666 
Q 2838 4666 3239 4311 
Q 3641 3956 3641 3272 
Q 3641 2581 3239 2228 
Q 2838 1875 2053 1875 
L 1259 1875 
L 1259 0 
L 628 0 
L 628 4666 
z
" transform="scale(0.015625)"/>
       <path id="DejaVuSans-6f" d="M 1959 3097 
Q 1497 3097 1228 2736 
Q 959 2375 959 1747 
Q 959 1119 1226 758 
Q 1494 397 1959 397 
Q 2419 397 2687 759 
Q 2956 1122 2956 1747 
Q 2956 2369 2687 2733 
Q 2419 3097 1959 3097 
z
M 1959 3584 
Q 2709 3584 3137 3096 
Q 3566 2609 3566 1747 
Q 3566 888 3137 398 
Q 2709 -91 1959 -91 
Q 1206 -91 779 398 
Q 353 888 353 1747 
Q 353 2609 779 3096 
Q 1206 3584 1959 3584 
z
" transform="scale(0.015625)"/>
       <path id="DejaVuSans-77" d="M 269 3500 
L 844 3500 
L 1563 769 
L 2278 3500 
L 2956 3500 
L 3675 769 
L 4391 3500 
L 4966 3500 
L 4050 0 
L 3372 0 
L 2619 2869 
L 1863 0 
L 1184 0 
L 269 3500 
z
" transform="scale(0.015625)"/>
       <path id="DejaVuSans-72" d="M 2631 2963 
Q 2534 3019 2420 3045 
Q 2306 3072 2169 3072 
Q 1681 3072 1420 2755 
Q 1159 2438 1159 1844 
L 1159 0 
L 581 0 
L 581 3500 
L 1159 3500 
L 1159 2956 
Q 1341 3275 1631 3429 
Q 1922 3584 2338 3584 
Q 2397 3584 2469 3576 
Q 2541 3569 2628 3553 
L 2631 2963 
z
" transform="scale(0.015625)"/>
       <path id="DejaVuSans-57" d="M 213 4666 
L 850 4666 
L 1831 722 
L 2809 4666 
L 3519 4666 
L 4500 722 
L 5478 4666 
L 6119 4666 
L 4947 0 
L 4153 0 
L 3169 4050 
L 2175 0 
L 1381 0 
L 213 4666 
z
" transform="scale(0.015625)"/>
      </defs>
      <use xlink:href="#DejaVuSans-50"/>
      <use xlink:href="#DejaVuSans-6f" x="56.677734"/>
      <use xlink:href="#DejaVuSans-77" x="117.859375"/>
      <use xlink:href="#DejaVuSans-65" x="199.646484"/>
      <use xlink:href="#DejaVuSans-72" x="261.169922"/>
      <use xlink:href="#DejaVuSans-20" x="302.283203"/>
      <use xlink:href="#DejaVuSans-28" x="334.070312"/>
      <use xlink:href="#DejaVuSans-57" x="373.083984"/>
      <use xlink:href="#DejaVuSans-29" x="471.960938"/>
     </g>
    </g>
   </g>
   <g id="line2d_163">
    <path d="M 73.832727 270.645431 
L 75.506204 294.623218 
L 77.179681 295.488 
L 78.853158 94.588721 
L 80.526635 95.878689 
L 83.87359 96.579805 
L 85.547067 95.137804 
L 87.220544 97.180282 
L 88.894021 96.395305 
L 90.567498 96.50703 
L 92.240975 95.424547 
L 93.914452 96.717923 
L 95.587929 96.499001 
L 97.261406 97.141418 
L 98.934883 95.589742 
L 100.60836 96.149818 
L 102.281837 96.531801 
L 103.955314 99.507796 
L 105.628791 93.121121 
L 107.302268 94.925886 
L 108.975745 95.102612 
L 110.649222 93.628836 
L 112.322699 92.837282 
L 113.996176 93.929673 
L 117.34313 93.647201 
L 119.016607 92.22459 
L 120.690084 93.659586 
L 124.037038 93.779426 
L 125.710515 93.009055 
L 127.383993 94.060702 
L 129.05747 93.539576 
L 130.730947 101.264129 
L 132.404424 100.897693 
L 134.077901 102.352933 
L 135.751378 102.100698 
L 137.424855 101.233806 
L 139.098332 101.565991 
L 140.771809 100.697049 
L 142.445286 102.363183 
L 144.118763 101.103375 
L 147.465717 101.102778 
L 149.139194 101.526785 
L 150.812671 102.105738 
L 152.486148 101.330669 
L 154.159625 102.242062 
L 155.833102 102.092754 
L 157.506579 103.595657 
L 159.180056 98.391659 
L 160.853533 96.701609 
L 162.52701 97.742152 
L 164.200487 97.164566 
L 165.873964 97.311653 
L 167.547441 95.830446 
L 169.220918 97.999256 
L 170.894396 96.746281 
L 172.567873 97.582167 
L 174.24135 96.571519 
L 175.914827 97.642898 
L 177.588304 97.652465 
L 179.261781 97.432176 
L 180.935258 96.410424 
L 182.608735 97.451138 
L 184.282212 97.246907 
L 185.955689 98.291551 
L 187.629166 92.308127 
L 189.302643 92.786886 
L 190.97612 92.638433 
L 192.649597 91.842693 
L 194.323074 91.949207 
L 195.996551 92.376033 
L 197.670028 91.938359 
L 199.343505 92.027278 
L 201.016982 91.528275 
L 202.690459 92.224163 
L 204.363936 92.231594 
L 206.037413 92.027278 
L 207.71089 92.510479 
L 209.384367 92.480241 
L 211.057844 94.406297 
L 212.731321 101.479977 
L 214.404799 102.636003 
L 216.078276 104.307006 
L 217.751753 102.979292 
L 219.42523 102.675978 
L 221.098707 101.016507 
L 222.772184 103.078119 
L 224.445661 102.906346 
L 226.119138 103.478466 
L 227.792615 102.04065 
L 229.466092 102.413579 
L 231.139569 102.566047 
L 232.813046 103.27731 
L 234.486523 101.90219 
L 236.16 102.664618 
L 237.833477 102.679224 
L 239.506954 98.016595 
L 241.180431 77.320355 
L 242.853908 78.191262 
L 244.527385 77.525099 
L 246.200862 77.990106 
L 247.874339 77.139102 
L 249.547816 77.968069 
L 251.221293 77.057871 
L 252.89477 77.215122 
L 254.568247 77.532615 
L 256.241724 77.373228 
L 257.915201 78.027433 
L 259.588679 77.378951 
L 261.262156 77.851475 
L 262.935633 78.184856 
L 264.60911 99.380013 
L 266.282587 107.774829 
L 267.956064 108.881314 
L 269.629541 108.70732 
L 271.303018 107.821039 
L 272.976495 108.047905 
L 274.649972 107.877841 
L 276.323449 109.352215 
L 277.996926 107.625777 
L 279.670403 107.95873 
L 281.34388 107.304867 
L 283.017357 109.036601 
L 284.690834 108.387521 
L 286.364311 109.17993 
L 288.037788 107.917987 
L 289.711265 107.598358 
L 291.384742 108.803072 
L 293.058219 102.958365 
L 294.731696 91.075311 
L 296.405173 91.303288 
L 298.07865 90.218755 
L 299.752127 89.99317 
L 301.425604 88.712179 
L 303.099082 89.896308 
L 304.772559 89.694212 
L 306.446036 90.244123 
L 308.119513 89.096297 
L 309.79299 89.550713 
L 311.466467 91.529129 
L 313.139944 90.507292 
L 314.813421 89.671406 
L 316.486898 90.560421 
L 318.160375 92.191192 
L 319.833852 95.943196 
L 321.507329 93.06355 
L 323.180806 92.563779 
L 324.854283 91.930245 
L 326.52776 92.115342 
L 328.201237 90.916778 
L 329.874714 92.714368 
L 331.548191 91.071724 
L 333.221668 91.939042 
L 334.895145 91.092224 
L 336.568622 92.216988 
L 338.242099 92.560618 
L 339.915576 93.350123 
L 341.589053 91.766416 
L 343.26253 92.229031 
L 344.936007 103.703957 
L 346.609485 219.971479 
L 348.282962 233.461797 
L 349.956439 233.564212 
L 351.629916 233.152932 
L 354.97687 233.109882 
L 356.650347 233.393891 
L 359.997301 233.021903 
L 361.670778 233.286096 
L 365.017732 233.542772 
L 366.691209 233.109882 
L 368.364686 233.1414 
L 370.038163 233.288402 
L 371.71164 235.330026 
L 375.058594 235.843721 
L 376.732071 235.856277 
L 380.079025 235.457041 
L 383.425979 235.752667 
L 385.099456 235.524947 
L 386.772933 235.447132 
L 388.44641 235.65683 
L 390.119888 235.628215 
L 391.793365 235.837059 
L 393.466842 235.567143 
L 396.813796 235.923158 
L 398.487273 249.900154 
L 398.487273 249.900154 
" clip-path="url(#paf3db9caf1)" style="fill: none; stroke: #1f77b4; stroke-width: 1.5; stroke-linecap: square"/>
   </g>
   <g id="line2d_164">
    <path d="M 73.832727 254.441842 
L 75.506204 211.209065 
L 77.179681 54.743835 
L 78.853158 55.807765 
L 80.526635 56.554228 
L 82.200112 55.390685 
L 83.87359 57.156944 
L 85.547067 56.288771 
L 87.220544 56.757451 
L 88.894021 56.857901 
L 90.567498 56.409977 
L 92.240975 56.529474 
L 93.914452 57.305056 
L 95.587929 57.323762 
L 97.261406 57.085963 
L 98.934883 54.839851 
L 100.60836 56.246831 
L 102.281837 55.511054 
L 103.955314 54.531498 
L 105.628791 54.990782 
L 107.302268 54.448644 
L 108.975745 55.396425 
L 110.649222 54.602393 
L 112.322699 55.037163 
L 113.996176 55.22824 
L 115.669653 54.959947 
L 117.34313 55.656433 
L 119.016607 56.000234 
L 120.690084 55.3093 
L 122.363561 56.0959 
L 127.383993 54.627164 
L 129.05747 55.069109 
L 132.404424 54.915103 
L 135.751378 55.314511 
L 137.424855 54.910747 
L 139.098332 56.101282 
L 140.771809 55.496448 
L 142.445286 56.083259 
L 144.118763 55.966324 
L 145.79224 56.381106 
L 147.465717 56.012876 
L 149.139194 55.029988 
L 150.812671 56.098719 
L 152.486148 55.308958 
L 154.159625 55.343125 
L 155.833102 55.841445 
L 157.506579 55.368921 
L 159.180056 55.552652 
L 160.853533 56.418945 
L 162.52701 56.10504 
L 164.200487 56.006555 
L 165.873964 54.108686 
L 167.547441 55.499779 
L 169.220918 54.724539 
L 170.894396 53.568 
L 172.567873 54.767247 
L 174.24135 53.620104 
L 175.914827 54.640404 
L 177.588304 54.048895 
L 179.261781 54.270978 
L 180.935258 54.28379 
L 184.282212 54.816618 
L 185.955689 55.497814 
L 187.629166 55.46305 
L 189.302643 56.457127 
L 190.97612 55.542145 
L 192.649597 55.294438 
L 194.323074 55.167253 
L 195.996551 55.457498 
L 197.670028 55.292217 
L 199.343505 54.932443 
L 201.016982 55.218332 
L 202.690459 55.634737 
L 204.363936 55.426492 
L 206.037413 55.954622 
L 207.71089 56.073863 
L 209.384367 55.558289 
L 211.057844 55.753551 
L 212.731321 55.160505 
L 214.404799 55.500377 
L 216.078276 54.352977 
L 217.751753 55.290252 
L 219.42523 54.715229 
L 221.098707 54.552852 
L 222.772184 54.678414 
L 224.445661 54.963022 
L 226.119138 54.970453 
L 227.792615 55.55231 
L 229.466092 55.360806 
L 231.139569 57.016946 
L 232.813046 56.239656 
L 234.486523 57.396964 
L 236.16 56.920682 
L 237.833477 55.388481 
L 239.506954 56.979961 
L 241.180431 55.769097 
L 242.853908 56.358641 
L 244.527385 56.481727 
L 246.200862 56.231883 
L 247.874339 56.226417 
L 249.547816 56.888224 
L 251.221293 57.035482 
L 252.89477 56.59516 
L 254.568247 54.567116 
L 256.241724 55.72673 
L 257.915201 55.167936 
L 259.588679 54.194103 
L 261.262156 54.588727 
L 262.935633 54.130895 
L 264.60911 54.827978 
L 266.282587 54.220582 
L 267.956064 54.676791 
L 271.303018 54.660135 
L 272.976495 55.077309 
L 274.649972 55.743045 
L 276.323449 55.717335 
L 277.996926 56.49787 
L 279.670403 56.200023 
L 283.017357 55.263346 
L 284.690834 55.72041 
L 286.364311 55.5184 
L 288.037788 55.147607 
L 289.711265 55.519168 
L 291.384742 55.61996 
L 293.058219 55.451262 
L 294.731696 56.416298 
L 296.405173 56.051313 
L 298.07865 179.836851 
L 299.752127 220.920354 
L 303.099082 221.091187 
L 304.772559 220.60175 
L 306.446036 220.949395 
L 309.79299 220.617979 
L 311.466467 221.045062 
L 313.139944 220.764041 
L 314.813421 220.758916 
L 316.486898 221.209915 
L 318.160375 220.935729 
L 319.833852 221.673471 
L 321.507329 221.383909 
L 323.180806 221.779472 
L 324.854283 221.658096 
L 326.52776 221.126207 
L 328.201237 221.743085 
L 329.874714 221.20479 
L 331.548191 221.568835 
L 333.221668 221.405263 
L 334.895145 221.460784 
L 336.568622 221.390827 
L 339.915576 221.688248 
L 341.589053 241.010461 
L 341.589053 241.010461 
" clip-path="url(#paf3db9caf1)" style="fill: none; stroke: #ff7f0e; stroke-width: 1.5; stroke-linecap: square"/>
   </g>
   <g id="line2d_165">
    <path d="M 73.832727 255.779976 
L 75.506204 212.524735 
L 77.179681 59.223416 
L 78.853158 61.101109 
L 80.526635 61.377782 
L 82.200112 60.685823 
L 83.87359 62.461221 
L 85.547067 60.976256 
L 87.220544 61.855277 
L 88.894021 61.551194 
L 90.567498 61.811885 
L 92.240975 61.532402 
L 93.914452 61.615513 
L 95.587929 61.972126 
L 97.261406 62.592677 
L 98.934883 59.896677 
L 100.60836 60.353057 
L 102.281837 60.045985 
L 103.955314 59.994821 
L 105.628791 59.346168 
L 107.302268 59.999091 
L 108.975745 59.421164 
L 110.649222 59.110333 
L 112.322699 59.66443 
L 113.996176 59.85004 
L 115.669653 59.186012 
L 117.34313 60.379024 
L 119.016607 59.78649 
L 120.690084 59.993796 
L 122.363561 57.140202 
L 124.037038 58.748765 
L 125.710515 58.41342 
L 127.383993 57.056152 
L 129.05747 57.625966 
L 130.730947 57.059825 
L 132.404424 58.075598 
L 134.077901 57.206144 
L 135.751378 57.845486 
L 137.424855 57.776384 
L 139.098332 57.488531 
L 140.771809 57.984288 
L 145.79224 60.223566 
L 147.465717 59.646663 
L 149.139194 59.862083 
L 150.812671 59.178837 
L 152.486148 59.710127 
L 154.159625 58.920452 
L 155.833102 59.072664 
L 159.180056 59.628811 
L 160.853533 58.933094 
L 162.52701 60.269776 
L 164.200487 59.276981 
L 165.873964 59.249647 
L 167.547441 56.411258 
L 169.220918 57.881703 
L 170.894396 57.272085 
L 172.567873 55.979649 
L 174.24135 57.289596 
L 175.914827 55.951376 
L 177.588304 56.974153 
L 179.261781 56.472502 
L 180.935258 56.935459 
L 182.608735 56.475747 
L 184.282212 56.941011 
L 185.955689 57.249535 
L 187.629166 57.991036 
L 189.302643 57.401491 
L 190.97612 58.513186 
L 192.649597 57.840873 
L 194.323074 57.403712 
L 195.996551 57.234587 
L 199.343505 57.426091 
L 201.016982 56.849359 
L 202.690459 57.443687 
L 204.363936 57.701645 
L 206.037413 56.997984 
L 207.71089 58.172546 
L 209.384367 57.574032 
L 211.057844 58.094048 
L 212.731321 57.152246 
L 214.404799 57.676874 
L 216.078276 57.52543 
L 217.751753 56.420739 
L 219.42523 57.43207 
L 221.098707 56.526229 
L 224.445661 57.069221 
L 226.119138 56.862001 
L 227.792615 56.907101 
L 229.466092 57.455218 
L 231.139569 57.320175 
L 232.813046 58.821455 
L 234.486523 57.450349 
L 236.16 59.166452 
L 239.506954 57.650907 
L 241.180431 57.9151 
L 242.853908 57.517743 
L 244.527385 57.8577 
L 246.200862 57.472216 
L 247.874339 57.854028 
L 249.547816 58.047838 
L 251.221293 57.584795 
L 252.89477 58.432724 
L 256.241724 58.074231 
L 257.915201 57.654409 
L 259.588679 57.450435 
L 261.262156 57.811576 
L 262.935633 56.709703 
L 264.60911 57.303946 
L 266.282587 56.833728 
L 269.629541 57.064181 
L 271.303018 57.396452 
L 272.976495 56.640943 
L 274.649972 58.040065 
L 276.323449 57.200079 
L 277.996926 59.814848 
L 279.670403 58.865444 
L 281.34388 60.314705 
L 283.017357 59.75164 
L 284.690834 58.516774 
L 286.364311 59.472584 
L 288.037788 58.255741 
L 289.711265 59.55988 
L 291.384742 58.900379 
L 293.058219 59.17542 
L 296.405173 58.978108 
L 298.07865 59.551765 
L 299.752127 70.624208 
L 301.425604 221.451559 
L 303.099082 221.695764 
L 304.772559 221.47539 
L 306.446036 221.498111 
L 308.119513 221.374855 
L 309.79299 221.440027 
L 314.813421 221.268426 
L 316.486898 221.474365 
L 318.160375 221.319932 
L 319.833852 221.683208 
L 321.507329 221.468215 
L 323.180806 222.533785 
L 324.854283 222.358682 
L 326.52776 222.722299 
L 328.201237 222.725716 
L 329.874714 222.058272 
L 331.548191 222.5665 
L 333.221668 222.129082 
L 336.568622 222.542327 
L 339.915576 222.234998 
L 341.589053 222.561631 
L 343.26253 222.432567 
L 343.26253 222.432567 
" clip-path="url(#paf3db9caf1)" style="fill: none; stroke: #2ca02c; stroke-width: 1.5; stroke-linecap: square"/>
   </g>
   <g id="patch_3">
    <path d="M 57.6 307.584 
L 57.6 41.472 
" style="fill: none; stroke: #000000; stroke-width: 0.8; stroke-linejoin: miter; stroke-linecap: square"/>
   </g>
   <g id="patch_4">
    <path d="M 414.72 307.584 
L 414.72 41.472 
" style="fill: none; stroke: #000000; stroke-width: 0.8; stroke-linejoin: miter; stroke-linecap: square"/>
   </g>
   <g id="patch_5">
    <path d="M 57.6 307.584 
L 414.72 307.584 
" style="fill: none; stroke: #000000; stroke-width: 0.8; stroke-linejoin: miter; stroke-linecap: square"/>
   </g>
   <g id="patch_6">
    <path d="M 57.6 41.472 
L 414.72 41.472 
" style="fill: none; stroke: #000000; stroke-width: 0.8; stroke-linejoin: miter; stroke-linecap: square"/>
   </g>
   <g id="legend_1">
    <g id="patch_7">
     <path d="M 297.237188 302.584 
L 407.72 302.584 
Q 409.72 302.584 409.72 300.584 
L 409.72 257.549625 
Q 409.72 255.549625 407.72 255.549625 
L 297.237188 255.549625 
Q 295.237188 255.549625 295.237188 257.549625 
L 295.237188 300.584 
Q 295.237188 302.584 297.237188 302.584 
z
" style="fill: #ffffff; opacity: 0.8; stroke: #cccccc; stroke-linejoin: miter"/>
    </g>
    <g id="line2d_166">
     <path d="M 299.237188 263.648062 
L 309.237188 263.648062 
L 319.237188 263.648062 
" style="fill: none; stroke: #1f77b4; stroke-width: 1.5; stroke-linecap: square"/>
    </g>
    <g id="text_19">
     <!-- No L3 -->
     <g transform="translate(327.237188 267.148062)scale(0.1 -0.1)">
      <defs>
       <path id="DejaVuSans-4e" d="M 628 4666 
L 1478 4666 
L 3547 763 
L 3547 4666 
L 4159 4666 
L 4159 0 
L 3309 0 
L 1241 3903 
L 1241 0 
L 628 0 
L 628 4666 
z
" transform="scale(0.015625)"/>
       <path id="DejaVuSans-4c" d="M 628 4666 
L 1259 4666 
L 1259 531 
L 3531 531 
L 3531 0 
L 628 0 
L 628 4666 
z
" transform="scale(0.015625)"/>
      </defs>
      <use xlink:href="#DejaVuSans-4e"/>
      <use xlink:href="#DejaVuSans-6f" x="74.804688"/>
      <use xlink:href="#DejaVuSans-20" x="135.986328"/>
      <use xlink:href="#DejaVuSans-4c" x="167.773438"/>
      <use xlink:href="#DejaVuSans-33" x="223.486328"/>
     </g>
    </g>
    <g id="line2d_167">
     <path d="M 299.237188 278.326188 
L 309.237188 278.326188 
L 319.237188 278.326188 
" style="fill: none; stroke: #ff7f0e; stroke-width: 1.5; stroke-linecap: square"/>
    </g>
    <g id="text_20">
     <!-- Stacked L3 -->
     <g transform="translate(327.237188 281.826188)scale(0.1 -0.1)">
      <defs>
       <path id="DejaVuSans-53" d="M 3425 4513 
L 3425 3897 
Q 3066 4069 2747 4153 
Q 2428 4238 2131 4238 
Q 1616 4238 1336 4038 
Q 1056 3838 1056 3469 
Q 1056 3159 1242 3001 
Q 1428 2844 1947 2747 
L 2328 2669 
Q 3034 2534 3370 2195 
Q 3706 1856 3706 1288 
Q 3706 609 3251 259 
Q 2797 -91 1919 -91 
Q 1588 -91 1214 -16 
Q 841 59 441 206 
L 441 856 
Q 825 641 1194 531 
Q 1563 422 1919 422 
Q 2459 422 2753 634 
Q 3047 847 3047 1241 
Q 3047 1584 2836 1778 
Q 2625 1972 2144 2069 
L 1759 2144 
Q 1053 2284 737 2584 
Q 422 2884 422 3419 
Q 422 4038 858 4394 
Q 1294 4750 2059 4750 
Q 2388 4750 2728 4690 
Q 3069 4631 3425 4513 
z
" transform="scale(0.015625)"/>
       <path id="DejaVuSans-74" d="M 1172 4494 
L 1172 3500 
L 2356 3500 
L 2356 3053 
L 1172 3053 
L 1172 1153 
Q 1172 725 1289 603 
Q 1406 481 1766 481 
L 2356 481 
L 2356 0 
L 1766 0 
Q 1100 0 847 248 
Q 594 497 594 1153 
L 594 3053 
L 172 3053 
L 172 3500 
L 594 3500 
L 594 4494 
L 1172 4494 
z
" transform="scale(0.015625)"/>
       <path id="DejaVuSans-61" d="M 2194 1759 
Q 1497 1759 1228 1600 
Q 959 1441 959 1056 
Q 959 750 1161 570 
Q 1363 391 1709 391 
Q 2188 391 2477 730 
Q 2766 1069 2766 1631 
L 2766 1759 
L 2194 1759 
z
M 3341 1997 
L 3341 0 
L 2766 0 
L 2766 531 
Q 2569 213 2275 61 
Q 1981 -91 1556 -91 
Q 1019 -91 701 211 
Q 384 513 384 1019 
Q 384 1609 779 1909 
Q 1175 2209 1959 2209 
L 2766 2209 
L 2766 2266 
Q 2766 2663 2505 2880 
Q 2244 3097 1772 3097 
Q 1472 3097 1187 3025 
Q 903 2953 641 2809 
L 641 3341 
Q 956 3463 1253 3523 
Q 1550 3584 1831 3584 
Q 2591 3584 2966 3190 
Q 3341 2797 3341 1997 
z
" transform="scale(0.015625)"/>
       <path id="DejaVuSans-63" d="M 3122 3366 
L 3122 2828 
Q 2878 2963 2633 3030 
Q 2388 3097 2138 3097 
Q 1578 3097 1268 2742 
Q 959 2388 959 1747 
Q 959 1106 1268 751 
Q 1578 397 2138 397 
Q 2388 397 2633 464 
Q 2878 531 3122 666 
L 3122 134 
Q 2881 22 2623 -34 
Q 2366 -91 2075 -91 
Q 1284 -91 818 406 
Q 353 903 353 1747 
Q 353 2603 823 3093 
Q 1294 3584 2113 3584 
Q 2378 3584 2631 3529 
Q 2884 3475 3122 3366 
z
" transform="scale(0.015625)"/>
       <path id="DejaVuSans-6b" d="M 581 4863 
L 1159 4863 
L 1159 1991 
L 2875 3500 
L 3609 3500 
L 1753 1863 
L 3688 0 
L 2938 0 
L 1159 1709 
L 1159 0 
L 581 0 
L 581 4863 
z
" transform="scale(0.015625)"/>
       <path id="DejaVuSans-64" d="M 2906 2969 
L 2906 4863 
L 3481 4863 
L 3481 0 
L 2906 0 
L 2906 525 
Q 2725 213 2448 61 
Q 2172 -91 1784 -91 
Q 1150 -91 751 415 
Q 353 922 353 1747 
Q 353 2572 751 3078 
Q 1150 3584 1784 3584 
Q 2172 3584 2448 3432 
Q 2725 3281 2906 2969 
z
M 947 1747 
Q 947 1113 1208 752 
Q 1469 391 1925 391 
Q 2381 391 2643 752 
Q 2906 1113 2906 1747 
Q 2906 2381 2643 2742 
Q 2381 3103 1925 3103 
Q 1469 3103 1208 2742 
Q 947 2381 947 1747 
z
" transform="scale(0.015625)"/>
      </defs>
      <use xlink:href="#DejaVuSans-53"/>
      <use xlink:href="#DejaVuSans-74" x="63.476562"/>
      <use xlink:href="#DejaVuSans-61" x="102.685547"/>
      <use xlink:href="#DejaVuSans-63" x="163.964844"/>
      <use xlink:href="#DejaVuSans-6b" x="218.945312"/>
      <use xlink:href="#DejaVuSans-65" x="273.230469"/>
      <use xlink:href="#DejaVuSans-64" x="334.753906"/>
      <use xlink:href="#DejaVuSans-20" x="398.230469"/>
      <use xlink:href="#DejaVuSans-4c" x="430.017578"/>
      <use xlink:href="#DejaVuSans-33" x="485.730469"/>
     </g>
    </g>
    <g id="line2d_168">
     <path d="M 299.237188 293.004312 
L 309.237188 293.004312 
L 319.237188 293.004312 
" style="fill: none; stroke: #2ca02c; stroke-width: 1.5; stroke-linecap: square"/>
    </g>
    <g id="text_21">
     <!-- Non-Stacked L3 -->
     <g transform="translate(327.237188 296.504312)scale(0.1 -0.1)">
      <defs>
       <path id="DejaVuSans-6e" d="M 3513 2113 
L 3513 0 
L 2938 0 
L 2938 2094 
Q 2938 2591 2744 2837 
Q 2550 3084 2163 3084 
Q 1697 3084 1428 2787 
Q 1159 2491 1159 1978 
L 1159 0 
L 581 0 
L 581 3500 
L 1159 3500 
L 1159 2956 
Q 1366 3272 1645 3428 
Q 1925 3584 2291 3584 
Q 2894 3584 3203 3211 
Q 3513 2838 3513 2113 
z
" transform="scale(0.015625)"/>
       <path id="DejaVuSans-2d" d="M 313 2009 
L 1997 2009 
L 1997 1497 
L 313 1497 
L 313 2009 
z
" transform="scale(0.015625)"/>
      </defs>
      <use xlink:href="#DejaVuSans-4e"/>
      <use xlink:href="#DejaVuSans-6f" x="74.804688"/>
      <use xlink:href="#DejaVuSans-6e" x="135.986328"/>
      <use xlink:href="#DejaVuSans-2d" x="199.365234"/>
      <use xlink:href="#DejaVuSans-53" x="235.449219"/>
      <use xlink:href="#DejaVuSans-74" x="298.925781"/>
      <use xlink:href="#DejaVuSans-61" x="338.134766"/>
      <use xlink:href="#DejaVuSans-63" x="399.414062"/>
      <use xlink:href="#DejaVuSans-6b" x="454.394531"/>
      <use xlink:href="#DejaVuSans-65" x="508.679688"/>
      <use xlink:href="#DejaVuSans-64" x="570.203125"/>
      <use xlink:href="#DejaVuSans-20" x="633.679688"/>
      <use xlink:href="#DejaVuSans-4c" x="665.466797"/>
      <use xlink:href="#DejaVuSans-33" x="721.179688"/>
     </g>
    </g>
   </g>
  </g>
 </g>
 <defs>
  <clipPath id="paf3db9caf1">
   <rect x="57.6" y="41.472" width="357.12" height="266.112"/>
  </clipPath>
 </defs>
</svg>
